<?xml version="1.0" standalone="no"?>
<!DOCTYPE svg PUBLIC "-//W3C//DTD SVG 1.1//EN" "http://www.w3.org/Graphics/SVG/1.1/DTD/svg11.dtd" >
<svg xmlns="http://www.w3.org/2000/svg" xmlns:xlink="http://www.w3.org/1999/xlink" version="1.1">
<metadata>
Created by FontForge 20170924 at Tue May 12 17:41:38 2020
 By www-data
(c) 2019 MCKL. All Rights Reserved.
</metadata>
<defs>
<font id="Redaction-Regular" horiz-adv-x="500" >
  <font-face 
    font-family="Redaction"
    font-weight="400"
    font-stretch="normal"
    units-per-em="1000"
    panose-1="2 10 5 3 6 5 4 6 3 3"
    ascent="750"
    descent="-250"
    x-height="470"
    cap-height="700"
    bbox="-82 -260 1023 953"
    underline-thickness="0"
    underline-position="0"
    unicode-range="U+000D-FB02"
  />
<missing-glyph horiz-adv-x="514" 
d="M60 -100v850h394v-850h-394z" />
    <glyph glyph-name=".notdef" horiz-adv-x="514" 
d="M60 -100v850h394v-850h-394z" />
    <glyph glyph-name="NULL" horiz-adv-x="250" 
 />
    <glyph glyph-name="NULL" horiz-adv-x="250" 
 />
    <glyph glyph-name="CR" unicode="&#xd;" horiz-adv-x="250" 
 />
    <glyph glyph-name="space" unicode=" " horiz-adv-x="250" 
 />
    <glyph glyph-name="nbspace" unicode="&#xa0;" horiz-adv-x="250" 
 />
    <glyph glyph-name="A" unicode="A" horiz-adv-x="721" 
d="M472 216h36l-8 20h-303l-44 -104q-21 -49 -9 -73t49 -28l17 -2v-29h-204v27q25 7 48 27t39 57l267 622h2l269 -630q14 -33 32.5 -51t51.5 -25v-27h-251v29l17 2q28 3 40 21t-1 50zM331 556l-119 -285h238z" />
    <glyph glyph-name="B" unicode="B" horiz-adv-x="660" 
d="M621 193q0 -87 -72 -140t-191 -53h-338v29l23 2q35 3 53 21.5t18 52.5v490q0 34 -18 52.5t-53 21.5l-23 2v29h313q112 0 180 -47t68 -125q0 -49 -33.5 -90t-89.5 -63q77 -19 120 -67t43 -115zM326 386q67 0 106.5 36.5t39.5 98.5q0 65 -40.5 101.5t-112.5 36.5h-135v-20
h36v-253h106zM339 41q81 0 126 41t45 115q0 71 -44.5 112.5t-121.5 41.5h-124v-290h-36v-20h155z" />
    <glyph glyph-name="C" unicode="C" horiz-adv-x="665" 
d="M362 -10q-71 0 -131.5 26.5t-104.5 73t-69 111t-25 139.5q0 78 25.5 146t70 117.5t105.5 78t131 28.5q67 0 120 -29.5t90 -86.5v35q-3 4 -15.5 18t-16.5 17l77 43v-245h-34l-20 46q-32 77 -82.5 116t-116.5 39q-49 0 -89 -22.5t-68.5 -63t-44 -97.5t-15.5 -126t17 -126
t47.5 -98t73.5 -63.5t94 -22.5q76 0 134 38t107 121l4 -2q-29 -97 -100 -154t-164 -57z" />
    <glyph glyph-name="D" unicode="D" horiz-adv-x="729" 
d="M20 0v29l23 2q35 3 53 21.5t18 52.5v490q0 34 -18 52.5t-53 21.5l-23 2v29h299q82 0 151.5 -26t120 -72t79 -109.5t28.5 -137.5q0 -75 -29.5 -140t-80.5 -112.5t-121 -75t-150 -27.5h-297zM184 41h121q127 0 201.5 84t74.5 226q0 68 -19.5 125t-54.5 97.5t-84.5 63
t-108.5 22.5h-130v-20h36v-578h-36v-20z" />
    <glyph glyph-name="E" unicode="E" horiz-adv-x="660" 
d="M220 61h-36v-20h225q61 0 100 35t59 108l18 65h33l-32 -249h-567v29l23 2q35 3 53 21.5t18 52.5v490q0 34 -18 52.5t-53 21.5l-23 2v29h569l12 -244h-32l-22 79q-18 65 -52.5 94.5t-92.5 29.5h-218v-20h36v-264h105q37 0 57 18t30 63l8 34h33v-264h-33l-8 34
q-10 44 -30 62t-57 18h-105v-279z" />
    <glyph glyph-name="F" unicode="F" horiz-adv-x="645" 
d="M220 105q0 -34 18 -52.5t53 -21.5l23 -2v-29h-294v29l23 2q35 3 53 21.5t18 52.5v490q0 34 -18 52.5t-53 21.5l-23 2v29h569l12 -244h-32l-22 79q-18 65 -52.5 94.5t-92.5 29.5h-218v-20h36v-270h110q37 0 57 18t30 63l8 34h33v-264h-33l-8 34q-10 44 -30 62t-57 18h-146
v-20h36v-209z" />
    <glyph glyph-name="G" unicode="G" horiz-adv-x="755" 
d="M363 -9q-71 0 -132 26.5t-105 73t-69 111t-25 139.5q0 78 26 146t71.5 117.5t108 77.5t135.5 28q69 0 124.5 -29t91.5 -86v35q-1 4 -14 17.5t-17 17.5l76 43v-245h-34l-19 45q-32 77 -85.5 116t-124.5 39q-50 0 -91 -22.5t-70 -62.5t-45 -97t-16 -126t18 -127t50 -98.5
t77.5 -63t100.5 -22.5q50 0 96.5 18t97.5 57v25l-38 -26v114q0 34 -19 52.5t-57 21.5l-23 2v29h287v-29l-23 -2q-33 -3 -49.5 -21.5t-16.5 -52.5v-243l-71 67q-44 -32 -98.5 -48.5t-117.5 -16.5z" />
    <glyph glyph-name="H" unicode="H" horiz-adv-x="769" 
d="M184 340v-20h36v-215q0 -34 18 -52.5t53 -21.5l23 -2v-29h-294v29l23 2q35 3 53 21.5t18 52.5v490q0 34 -18 52.5t-53 21.5l-23 2v29h294v-29l-23 -2q-35 -3 -53 -21.5t-18 -52.5v-220h329v220q0 34 -18 52.5t-53 21.5l-23 2v29h294v-29l-23 -2q-35 -3 -53 -21.5
t-18 -52.5v-490q0 -34 18 -52.5t53 -21.5l23 -2v-29h-294v29l23 2q35 3 53 21.5t18 52.5v215h36v20h-401z" />
    <glyph glyph-name="I" unicode="I" horiz-adv-x="334" 
d="M220 105q0 -34 18 -52.5t53 -21.5l23 -2v-29h-294v29l23 2q35 3 53 21.5t18 52.5v490q0 34 -18 52.5t-53 21.5l-23 2v29h294v-29l-23 -2q-35 -3 -53 -21.5t-18 -52.5v-490z" />
    <glyph glyph-name="J" unicode="J" horiz-adv-x="568" 
d="M454 595v-381q0 -49 -17.5 -90.5t-48.5 -71t-75 -46.5t-95 -17q-40 0 -76 12t-63 32t-42.5 47t-15.5 57q0 23 15.5 39t37.5 16q30 0 45 -21.5t9 -56.5h-21q1 -37 29.5 -59.5t74.5 -22.5q64 0 100.5 40.5t36.5 110.5v412q0 34 -18 52.5t-53 21.5l-23 2v29h294v-29l-23 -2
q-35 -3 -53 -21.5t-18 -52.5z" />
    <glyph glyph-name="K" unicode="K" horiz-adv-x="728" 
d="M17 0v29l23 2q35 3 53 21.5t18 52.5v490q0 34 -18 52.5t-53 21.5l-23 2v29h294v-29l-23 -2q-35 -3 -53 -21.5t-18 -52.5v-257l-28 -30v-25l294 305q30 31 26.5 55t-33.5 26l-22 2v29h235v-27q-40 -10 -83 -34t-71 -52l-152 -156l236 -328q23 -32 47 -50t53 -26v-27h-163
l-245 356l-94 -97v-154q0 -34 18 -52.5t53 -21.5l23 -2v-29h-294z" />
    <glyph glyph-name="L" unicode="L" horiz-adv-x="645" 
d="M587 0h-567v29l23 2q35 3 53 21.5t18 52.5v490q0 34 -18 52.5t-53 21.5l-23 2v29h294v-29l-23 -2q-35 -3 -53 -21.5t-18 -52.5v-534h-36v-20h225q61 0 100 36t60 111l17 61h33z" />
    <glyph glyph-name="M" unicode="M" horiz-adv-x="916" 
d="M20 671v29h223l209 -512l-15 -38l12 -24l230 574h217v-29l-23 -2q-35 -3 -53 -21.5t-18 -52.5v-490q0 -34 18 -52.5t53 -21.5l23 -2v-29h-293v29l23 2q35 3 53 21.5t18 52.5v457l16 39h-21l-259 -632h-2l-264 644v-497q0 -37 18 -58.5t54 -25.5l23 -3v-29h-242v29l23 3
q36 4 53.5 25t17.5 59v468q0 38 -17.5 59t-53.5 25z" />
    <glyph glyph-name="N" unicode="N" horiz-adv-x="759" 
d="M650 584v-594l-483 580v-454q0 -37 18 -58.5t54 -25.5l23 -3v-29h-242v29l23 3q36 4 53.5 25t17.5 59v502l-80 82h162l382 -452v-37l19 -22v395q0 37 -18 58.5t-54 25.5l-23 3v29h242v-29l-23 -3q-36 -4 -53.5 -25t-17.5 -59z" />
    <glyph glyph-name="O" unicode="O" horiz-adv-x="731" 
d="M364 -11q-69 0 -129.5 26.5t-105.5 74t-71 113.5t-26 144t26.5 145t72 115.5t107 76.5t130.5 28q68 0 129 -26.5t105.5 -73.5t71 -113t26.5 -144t-26.5 -145.5t-72 -116t-107 -76.5t-130.5 -28zM374 32q44 0 82.5 21t66 59.5t43.5 94t16 124.5q0 79 -17.5 142
t-47.5 106.5t-72 67t-91 23.5q-44 0 -82.5 -21t-66 -59.5t-43.5 -94t-16 -124.5q0 -79 17.5 -142t47.5 -106.5t72 -67t91 -23.5z" />
    <glyph glyph-name="P" unicode="P" horiz-adv-x="617" 
d="M220 303v-198q0 -34 18 -52.5t53 -21.5l23 -2v-29h-294v29l23 2q35 3 53 21.5t18 52.5v490q0 34 -18 52.5t-53 21.5l-23 2v29h324q109 0 176 -50.5t67 -132.5q0 -43 -18 -78.5t-50 -61t-76.5 -40t-97.5 -14.5h-161v-20h36zM220 358h113q64 0 103.5 42.5t39.5 112.5
q0 68 -38 107t-105 39h-149v-20h36v-281z" />
    <glyph glyph-name="Q" unicode="Q" horiz-adv-x="731" 
d="M683 -84q-21 -38 -48.5 -56t-64.5 -18q-39 0 -63.5 17t-43.5 54l-102 197q-12 22 -26.5 33.5t-33.5 11.5q-24 0 -38 -20.5t-15 -51.5q28 -26 62.5 -39t71.5 -12l20 -41q-10 -1 -19 -1.5t-19 -0.5q-69 0 -129.5 26.5t-105.5 74t-71 113.5t-26 144t26.5 145t72 115.5
t107 76.5t130.5 28q68 0 129 -26.5t105.5 -73.5t71 -113t26.5 -144q0 -110 -51 -197t-132 -130l55 -94q11 -19 24 -29t29 -10q14 0 26 3.5t29 19.5zM147 371q0 -84 20 -150t54 -110q7 40 38.5 66t77.5 26q49 -1 76 -23t45 -53l32 -54q42 36 67.5 101t25.5 155
q0 78 -16.5 141t-46.5 107.5t-72.5 68.5t-92.5 24q-41 0 -79 -19t-66.5 -56.5t-45.5 -93.5t-17 -130z" />
    <glyph glyph-name="R" unicode="R" horiz-adv-x="693" 
d="M220 318v-213q0 -34 18 -52.5t53 -21.5l23 -2v-29h-294v29l23 2q35 3 53 21.5t18 52.5v490q0 34 -18 52.5t-53 21.5l-23 2v29h329q106 0 172 -48t66 -125q0 -32 -13.5 -61t-35.5 -52.5t-51 -39.5t-59 -22q36 -13 58.5 -36t37.5 -58l73 -174q10 -25 29 -37.5t48 -16.5
l13 -2v-28h-176l-99 264q-15 40 -37 57t-59 17h-132v-20h36zM220 373h113q63 0 103 40t40 104q0 66 -38.5 104t-104.5 38h-149v-20h36v-266z" />
    <glyph glyph-name="S" unicode="S" horiz-adv-x="545" 
d="M281 -11q-60 0 -112 27.5t-94 81.5l1 -34q2 -3 14 -14t17 -15l-74 -44l-3 244h35l26 -57q33 -72 81 -108t111 -36q66 0 105.5 34t39.5 91q0 40 -26.5 72.5t-75.5 51.5l-171 68q-59 24 -89.5 65.5t-30.5 97.5q0 87 57.5 141.5t147.5 54.5q61 0 111 -30.5t81 -86.5l-1 37
q-4 6 -16 20.5t-15 16.5l72 41l3 -234h-35l-18 42q-33 77 -77.5 113t-107.5 36q-52 0 -84 -29.5t-32 -78.5q0 -37 23 -66t66 -46l184 -72q60 -24 93 -69.5t33 -105.5q0 -93 -66 -151t-173 -58z" />
    <glyph glyph-name="T" unicode="T" horiz-adv-x="659" 
d="M30 700h599l12 -220h-33l-16 56q-19 64 -54 93.5t-94 29.5h-97v-20h36v-534q0 -34 18 -52.5t53 -21.5l23 -2v-29h-294v29l23 2q35 3 53 21.5t18 52.5v554h-62q-59 0 -94 -29.5t-54 -93.5l-16 -56h-33z" />
    <glyph glyph-name="U" unicode="U" horiz-adv-x="763" 
d="M372 -11q-118 0 -188 65.5t-70 175.5v365q0 34 -18 52.5t-53 21.5l-23 2v29h293v-29l-23 -2q-35 -3 -53 -21.5t-18 -52.5v-345q0 -90 49.5 -144.5t130.5 -54.5q91 0 144 66t53 179v288q0 37 -18 58.5t-54 25.5l-23 3v29h242v-29l-23 -3q-36 -4 -53.5 -25t-17.5 -59v-301
q0 -134 -75.5 -214t-201.5 -80z" />
    <glyph glyph-name="V" unicode="V" horiz-adv-x="721" 
d="M201 598l177 -421l-14 -33l11 -25l193 449q19 46 9 71.5t-49 29.5l-17 2v29h204v-27q-28 -7 -50.5 -29t-36.5 -55l-267 -622h-2l-269 630q-15 34 -34 51.5t-50 24.5v27h251v-29l-17 -2q-31 -3 -41 -22.5t2 -48.5z" />
    <glyph glyph-name="W" unicode="W" horiz-adv-x="1021" 
d="M701 195l-13 -35l13 -27l163 435q17 46 8 71.5t-49 29.5l-17 2v29h205v-27q-28 -8 -50.5 -29.5t-34.5 -54.5l-240 -625h-2l-162 438l-173 -438h-2l-252 633q-13 34 -32.5 51.5t-52.5 24.5v27h249v-29l-17 -2q-31 -4 -41 -22.5t2 -48.5l161 -413l-12 -36l11 -25l135 338
l-56 135q-13 34 -32.5 51.5t-52.5 24.5v27h249v-29l-17 -2q-31 -4 -40.5 -22.5t1.5 -48.5z" />
    <glyph glyph-name="X" unicode="X" horiz-adv-x="720" 
d="M221 29v-29h-212v29q40 8 66.5 26.5t50.5 49.5l180 241l-160 249q-21 32 -44.5 50.5t-60.5 25.5v29h272v-29l-21 -2q-30 -3 -36 -23t14 -51l88 -137l-22 -29l13 -18l143 184q23 30 18.5 50.5t-37.5 23.5l-21 2v29h212v-29q-37 -7 -64 -25t-52 -51l-149 -196l192 -294
q22 -34 46.5 -52.5t63.5 -23.5v-29h-277v29l21 2q29 3 35 23.5t-13 50.5l-118 183l22 29l-13 20l-177 -232q-22 -29 -17 -50t36 -24z" />
    <glyph glyph-name="Y" unicode="Y" horiz-adv-x="716" 
d="M369 312l167 254q31 46 19 72.5t-52 30.5l-17 2v29h209v-27q-22 -6 -42.5 -23.5t-42.5 -50.5l-193 -286v-208q0 -34 18 -52.5t53 -21.5l23 -2v-29h-291v29l23 2q35 3 53 21.5t18 52.5v180l-219 328q-18 27 -35.5 41.5t-38.5 18.5v27h251v-29l-25 -3q-30 -4 -37.5 -26.5
t13.5 -53.5l153 -231l-20 -30z" />
    <glyph glyph-name="Z" unicode="Z" horiz-adv-x="610" 
d="M420 640h34l12 19h-223q-58 0 -92.5 -29.5t-52.5 -94.5l-22 -79h-32l12 244h517l-408 -640h-33l-12 -19h263q61 0 100 35t59 108l18 65h33l-32 -249h-548z" />
    <glyph glyph-name="Aacute" unicode="&#xc1;" horiz-adv-x="721" 
d="M472 216h36l-8 20h-303l-44 -104q-21 -49 -9 -73t49 -28l17 -2v-29h-204v27q25 7 48 27t39 57l267 622h2l269 -630q14 -33 32.5 -51t51.5 -25v-27h-251v29l17 2q28 3 40 21t-1 50zM331 556l-119 -285h238zM285 765h4l173 93q18 10 25.5 25.5t5.5 30t-14 25.5t-33 11
t-35.5 -11.5t-32.5 -37.5z" />
    <glyph glyph-name="Abreve" unicode="&#x102;" horiz-adv-x="721" 
d="M472 216h36l-8 20h-303l-44 -104q-21 -49 -9 -73t49 -28l17 -2v-29h-204v27q25 7 48 27t39 57l267 622h2l269 -630q14 -33 32.5 -51t51.5 -25v-27h-251v29l17 2q28 3 40 21t-1 50zM331 556l-119 -285h238zM229 930q11 -30 44.5 -51.5t86.5 -21.5t86.5 21.5t44.5 51.5h4
q3 -72 -37.5 -113.5t-97.5 -41.5t-97.5 41.5t-37.5 113.5h4z" />
    <glyph glyph-name="Acircumflex" unicode="&#xc2;" horiz-adv-x="721" 
d="M472 216h36l-8 20h-303l-44 -104q-21 -49 -9 -73t49 -28l17 -2v-29h-204v27q25 7 48 27t39 57l267 622h2l269 -630q14 -33 32.5 -51t51.5 -25v-27h-251v29l17 2q28 3 40 21t-1 50zM331 556l-119 -285h238zM205 765h-4l104 150h110l104 -150h-4l-158 73l50 35h-36z" />
    <glyph glyph-name="Adieresis" unicode="&#xc4;" horiz-adv-x="721" 
d="M472 216h36l-8 20h-303l-44 -104q-21 -49 -9 -73t49 -28l17 -2v-29h-204v27q25 7 48 27t39 57l267 622h2l269 -630q14 -33 32.5 -51t51.5 -25v-27h-251v29l17 2q28 3 40 21t-1 50zM331 556l-119 -285h238zM214 805v99h98v-99h-98zM408 805v99h98v-99h-98z" />
    <glyph glyph-name="AE" unicode="&#xc6;" horiz-adv-x="1095" 
d="M464 607q18 28 11.5 44t-31.5 18l-20 2v29h569l12 -244h-32l-22 79q-18 65 -52.5 94.5t-92.5 29.5h-182v-284h105q37 0 57 18t30 63l8 34h33v-264h-33l-8 34q-10 44 -30 62t-57 18h-105v-279h-36v-20h225q61 0 100 35t59 108l18 65h33l-32 -249h-567v29l23 2
q35 3 53 21.5t18 52.5v131h-250l-66 -104q-28 -45 -25 -71t40 -30l17 -2v-29h-228v27q19 5 37.5 11.5t38 20t41 37.5t47.5 63zM526 642l-236 -371h228v318l34 53h-26z" />
    <glyph glyph-name="Agrave" unicode="&#xc0;" horiz-adv-x="721" 
d="M472 216h36l-8 20h-303l-44 -104q-21 -49 -9 -73t49 -28l17 -2v-29h-204v27q25 7 48 27t39 57l267 622h2l269 -630q14 -33 32.5 -51t51.5 -25v-27h-251v29l17 2q28 3 40 21t-1 50zM331 556l-119 -285h238zM435 765h-4l-173 93q-18 10 -25.5 25.5t-5.5 30t14 25.5t33 11
t35.5 -11.5t32.5 -37.5z" />
    <glyph glyph-name="Amacron" unicode="&#x100;" horiz-adv-x="721" 
d="M472 216h36l-8 20h-303l-44 -104q-21 -49 -9 -73t49 -28l17 -2v-29h-204v27q25 7 48 27t39 57l267 622h2l269 -630q14 -33 32.5 -51t51.5 -25v-27h-251v29l17 2q28 3 40 21t-1 50zM331 556l-119 -285h238zM207 880h306v-60h-306v60z" />
    <glyph glyph-name="Aogonek" unicode="&#x104;" horiz-adv-x="721" 
d="M472 216h36l-8 20h-303l-44 -104q-21 -49 -9 -73t49 -28l17 -2v-29h-204v27q25 7 48 27t39 57l267 622h2l269 -630q14 -33 32.5 -51t51.5 -25v-27l-12 -6q-51 -25 -72.5 -57.5t-21.5 -57.5q0 -22 14.5 -35t39.5 -13q16 0 27.5 5t24.5 13l3 -3q-13 -28 -37.5 -42.5
t-53.5 -14.5q-38 0 -59 20.5t-21 51.5q0 38 35.5 77.5t96.5 61.5h-215v29l17 2q28 3 40 21t-1 50zM331 556l-119 -285h238z" />
    <glyph glyph-name="Aring" unicode="&#xc5;" horiz-adv-x="721" 
d="M472 216h36l-8 20h-303l-44 -104q-21 -49 -9 -73t49 -28l17 -2v-29h-204v27q25 7 48 27t39 57l267 622h2l269 -630q14 -33 32.5 -51t51.5 -25v-27h-251v29l17 2q28 3 40 21t-1 50zM331 556l-119 -285h238zM360 940q41 0 70 -26.5t29 -68.5q0 -38 -28.5 -65t-70.5 -27
t-70.5 27t-28.5 65q0 42 29 68.5t70 26.5zM360 788q28 0 43.5 17.5t15.5 39.5q0 25 -15.5 42t-43.5 17t-43.5 -17t-15.5 -42q0 -22 15.5 -39.5t43.5 -17.5z" />
    <glyph glyph-name="Atilde" unicode="&#xc3;" horiz-adv-x="721" 
d="M472 216h36l-8 20h-303l-44 -104q-21 -49 -9 -73t49 -28l17 -2v-29h-204v27q25 7 48 27t39 57l267 622h2l269 -630q14 -33 32.5 -51t51.5 -25v-27h-251v29l17 2q28 3 40 21t-1 50zM331 556l-119 -285h238zM537 924h4q-23 -75 -50 -109.5t-64 -34.5q-18 0 -39.5 10
t-43.5 22.5t-43.5 22.5t-39.5 10t-37 -13.5t-41 -51.5h-4q23 76 50 110.5t64 34.5q19 0 41 -10t44 -22.5t43 -22.5t38 -10q18 0 37 13.5t41 50.5z" />
    <glyph glyph-name="Cacute" unicode="&#x106;" horiz-adv-x="665" 
d="M362 -10q-71 0 -131.5 26.5t-104.5 73t-69 111t-25 139.5q0 78 25.5 146t70 117.5t105.5 78t131 28.5q67 0 120 -29.5t90 -86.5v35q-3 4 -15.5 18t-16.5 17l77 43v-245h-34l-20 46q-32 77 -82.5 116t-116.5 39q-49 0 -89 -22.5t-68.5 -63t-44 -97.5t-15.5 -126t17 -126
t47.5 -98t73.5 -63.5t94 -22.5q76 0 134 38t107 121l4 -2q-29 -97 -100 -154t-164 -57zM298 765h4l173 93q18 10 25.5 25.5t5.5 30t-14 25.5t-33 11t-35.5 -11.5t-32.5 -37.5z" />
    <glyph glyph-name="Ccaron" unicode="&#x10c;" horiz-adv-x="665" 
d="M362 -10q-71 0 -131.5 26.5t-104.5 73t-69 111t-25 139.5q0 78 25.5 146t70 117.5t105.5 78t131 28.5q67 0 120 -29.5t90 -86.5v35q-3 4 -15.5 18t-16.5 17l77 43v-245h-34l-20 46q-32 77 -82.5 116t-116.5 39q-49 0 -89 -22.5t-68.5 -63t-44 -97.5t-15.5 -126t17 -126
t47.5 -98t73.5 -63.5t94 -22.5q76 0 134 38t107 121l4 -2q-29 -97 -100 -154t-164 -57zM528 928h4l-104 -150h-110l-104 150h4l158 -73l-50 -35h36z" />
    <glyph glyph-name="Ccedilla" unicode="&#xc7;" horiz-adv-x="665" 
d="M271 -189v4q46 -3 69.5 7.5t23.5 29.5q0 10 -6.5 19.5t-22.5 19.5l-48 29l44 71q-65 6 -120 34.5t-94.5 74.5t-62 107.5t-22.5 132.5q0 78 25.5 146t70 117.5t105.5 78t131 28.5q67 0 120 -29.5t90 -86.5v35q-3 4 -15.5 18t-16.5 17l77 43v-245h-34l-20 46
q-32 77 -82.5 116t-116.5 39q-49 0 -89 -22.5t-68.5 -63t-44 -97.5t-15.5 -126t17 -126t47.5 -98t73.5 -63.5t94 -22.5q76 0 134 38t107 121l4 -2q-29 -97 -100 -154t-162 -57l-32 -55l19 -11l17 29l7 -4q43 -24 53.5 -44t10.5 -36q0 -31 -29.5 -52.5t-74.5 -21.5
q-19 0 -36 4.5t-28 11.5z" />
    <glyph glyph-name="Ccircumflex" unicode="&#x108;" horiz-adv-x="665" 
d="M362 -10q-71 0 -131.5 26.5t-104.5 73t-69 111t-25 139.5q0 78 25.5 146t70 117.5t105.5 78t131 28.5q67 0 120 -29.5t90 -86.5v35q-3 4 -15.5 18t-16.5 17l77 43v-245h-34l-20 46q-32 77 -82.5 116t-116.5 39q-49 0 -89 -22.5t-68.5 -63t-44 -97.5t-15.5 -126t17 -126
t47.5 -98t73.5 -63.5t94 -22.5q76 0 134 38t107 121l4 -2q-29 -97 -100 -154t-164 -57zM218 765h-4l104 150h110l104 -150h-4l-158 73l50 35h-36z" />
    <glyph glyph-name="Cdotaccent" unicode="&#x10a;" horiz-adv-x="665" 
d="M362 -10q-71 0 -131.5 26.5t-104.5 73t-69 111t-25 139.5q0 78 25.5 146t70 117.5t105.5 78t131 28.5q67 0 120 -29.5t90 -86.5v35q-3 4 -15.5 18t-16.5 17l77 43v-245h-34l-20 46q-32 77 -82.5 116t-116.5 39q-49 0 -89 -22.5t-68.5 -63t-44 -97.5t-15.5 -126t17 -126
t47.5 -98t73.5 -63.5t94 -22.5q76 0 134 38t107 121l4 -2q-29 -97 -100 -154t-164 -57zM324 805v99h98v-99h-98z" />
    <glyph glyph-name="Dcaron" unicode="&#x10e;" horiz-adv-x="729" 
d="M20 0v29l23 2q35 3 53 21.5t18 52.5v490q0 34 -18 52.5t-53 21.5l-23 2v29h299q82 0 151.5 -26t120 -72t79 -109.5t28.5 -137.5q0 -75 -29.5 -140t-80.5 -112.5t-121 -75t-150 -27.5h-297zM184 41h121q127 0 201.5 84t74.5 226q0 68 -19.5 125t-54.5 97.5t-84.5 63
t-108.5 22.5h-130v-20h36v-578h-36v-20zM503 928h4l-104 -150h-110l-104 150h4l158 -73l-50 -35h36z" />
    <glyph glyph-name="Dcroat" unicode="&#x110;" horiz-adv-x="729" 
d="M698 355q0 -75 -29.5 -140t-80.5 -112.5t-121 -75t-150 -27.5h-297v29l23 2q35 3 53 21.5t18 52.5v215h36v20h-130v35h94v220q0 34 -18 52.5t-53 21.5l-23 2v29h299q82 0 151.5 -26t120 -72t79 -109.5t28.5 -137.5zM184 41h121q127 0 201.5 84t74.5 226q0 68 -19.5 125
t-54.5 97.5t-84.5 63t-108.5 22.5h-130v-20h36v-264h94v-35h-94v-279h-36v-20z" />
    <glyph glyph-name="Eacute" unicode="&#xc9;" horiz-adv-x="660" 
d="M220 61h-36v-20h225q61 0 100 35t59 108l18 65h33l-32 -249h-567v29l23 2q35 3 53 21.5t18 52.5v490q0 34 -18 52.5t-53 21.5l-23 2v29h569l12 -244h-32l-22 79q-18 65 -52.5 94.5t-92.5 29.5h-218v-20h36v-264h105q37 0 57 18t30 63l8 34h33v-264h-33l-8 34
q-10 44 -30 62t-57 18h-105v-279zM278 765h4l173 93q18 10 25.5 25.5t5.5 30t-14 25.5t-33 11t-35.5 -11.5t-32.5 -37.5z" />
    <glyph glyph-name="Ebreve" unicode="&#x114;" horiz-adv-x="660" 
d="M220 61h-36v-20h225q61 0 100 35t59 108l18 65h33l-32 -249h-567v29l23 2q35 3 53 21.5t18 52.5v490q0 34 -18 52.5t-53 21.5l-23 2v29h569l12 -244h-32l-22 79q-18 65 -52.5 94.5t-92.5 29.5h-218v-20h36v-264h105q37 0 57 18t30 63l8 34h33v-264h-33l-8 34
q-10 44 -30 62t-57 18h-105v-279zM222 930q11 -30 44.5 -51.5t86.5 -21.5t86.5 21.5t44.5 51.5h4q3 -72 -37.5 -113.5t-97.5 -41.5t-97.5 41.5t-37.5 113.5h4z" />
    <glyph glyph-name="Ecaron" unicode="&#x11a;" horiz-adv-x="660" 
d="M220 61h-36v-20h225q61 0 100 35t59 108l18 65h33l-32 -249h-567v29l23 2q35 3 53 21.5t18 52.5v490q0 34 -18 52.5t-53 21.5l-23 2v29h569l12 -244h-32l-22 79q-18 65 -52.5 94.5t-92.5 29.5h-218v-20h36v-264h105q37 0 57 18t30 63l8 34h33v-264h-33l-8 34
q-10 44 -30 62t-57 18h-105v-279zM508 928h4l-104 -150h-110l-104 150h4l158 -73l-50 -35h36z" />
    <glyph glyph-name="Ecircumflex" unicode="&#xca;" horiz-adv-x="660" 
d="M220 61h-36v-20h225q61 0 100 35t59 108l18 65h33l-32 -249h-567v29l23 2q35 3 53 21.5t18 52.5v490q0 34 -18 52.5t-53 21.5l-23 2v29h569l12 -244h-32l-22 79q-18 65 -52.5 94.5t-92.5 29.5h-218v-20h36v-264h105q37 0 57 18t30 63l8 34h33v-264h-33l-8 34
q-10 44 -30 62t-57 18h-105v-279zM198 765h-4l104 150h110l104 -150h-4l-158 73l50 35h-36z" />
    <glyph glyph-name="Edieresis" unicode="&#xcb;" horiz-adv-x="660" 
d="M220 61h-36v-20h225q61 0 100 35t59 108l18 65h33l-32 -249h-567v29l23 2q35 3 53 21.5t18 52.5v490q0 34 -18 52.5t-53 21.5l-23 2v29h569l12 -244h-32l-22 79q-18 65 -52.5 94.5t-92.5 29.5h-218v-20h36v-264h105q37 0 57 18t30 63l8 34h33v-264h-33l-8 34
q-10 44 -30 62t-57 18h-105v-279zM207 805v99h98v-99h-98zM401 805v99h98v-99h-98z" />
    <glyph glyph-name="Edotaccent" unicode="&#x116;" horiz-adv-x="660" 
d="M220 61h-36v-20h225q61 0 100 35t59 108l18 65h33l-32 -249h-567v29l23 2q35 3 53 21.5t18 52.5v490q0 34 -18 52.5t-53 21.5l-23 2v29h569l12 -244h-32l-22 79q-18 65 -52.5 94.5t-92.5 29.5h-218v-20h36v-264h105q37 0 57 18t30 63l8 34h33v-264h-33l-8 34
q-10 44 -30 62t-57 18h-105v-279zM304 805v99h98v-99h-98z" />
    <glyph glyph-name="Egrave" unicode="&#xc8;" horiz-adv-x="660" 
d="M220 61h-36v-20h225q61 0 100 35t59 108l18 65h33l-32 -249h-567v29l23 2q35 3 53 21.5t18 52.5v490q0 34 -18 52.5t-53 21.5l-23 2v29h569l12 -244h-32l-22 79q-18 65 -52.5 94.5t-92.5 29.5h-218v-20h36v-264h105q37 0 57 18t30 63l8 34h33v-264h-33l-8 34
q-10 44 -30 62t-57 18h-105v-279zM428 765h-4l-173 93q-18 10 -25.5 25.5t-5.5 30t14 25.5t33 11t35.5 -11.5t32.5 -37.5z" />
    <glyph glyph-name="Emacron" unicode="&#x112;" horiz-adv-x="660" 
d="M220 61h-36v-20h225q61 0 100 35t59 108l18 65h33l-32 -249h-567v29l23 2q35 3 53 21.5t18 52.5v490q0 34 -18 52.5t-53 21.5l-23 2v29h569l12 -244h-32l-22 79q-18 65 -52.5 94.5t-92.5 29.5h-218v-20h36v-264h105q37 0 57 18t30 63l8 34h33v-264h-33l-8 34
q-10 44 -30 62t-57 18h-105v-279zM200 880h306v-60h-306v60z" />
    <glyph glyph-name="Eng" unicode="&#x14a;" horiz-adv-x="759" 
d="M650 -72q0 -92 -45.5 -140t-114.5 -48q-71 0 -114 39.5t-43 90.5q0 27 14.5 45t41.5 18q28 0 42.5 -21.5t8.5 -56.5h-32q6 -37 29.5 -54.5t64.5 -17.5q43 0 69 34.5t26 96.5v139l-430 517v-454q0 -37 18 -58.5t54 -25.5l23 -3v-29h-242v29l23 3q36 4 53.5 25t17.5 59v502
l-80 82h162l382 -452v-37l19 -22v395q0 37 -18 58.5t-54 25.5l-23 3v29h242v-29l-23 -3q-36 -4 -53.5 -25t-17.5 -59v-656z" />
    <glyph glyph-name="Eogonek" unicode="&#x118;" horiz-adv-x="660" 
d="M220 61h-36v-20h225q61 0 100 35t59 108l18 65h33l-32 -249l-12 -6q-51 -25 -72.5 -57.5t-21.5 -57.5q0 -22 14.5 -35t39.5 -13q16 0 27.5 5t24.5 13l3 -3q-13 -28 -37.5 -42.5t-53.5 -14.5q-38 0 -59 20.5t-21 51.5q0 38 35.5 77.5t96.5 61.5h-531v29l23 2q35 3 53 21.5
t18 52.5v490q0 34 -18 52.5t-53 21.5l-23 2v29h569l12 -244h-32l-22 79q-18 65 -52.5 94.5t-92.5 29.5h-218v-20h36v-264h105q37 0 57 18t30 63l8 34h33v-264h-33l-8 34q-10 44 -30 62t-57 18h-105v-279z" />
    <glyph glyph-name="Eth" unicode="&#xd0;" horiz-adv-x="729" 
d="M698 355q0 -75 -29.5 -140t-80.5 -112.5t-121 -75t-150 -27.5h-297v29l23 2q35 3 53 21.5t18 52.5v215h36v20h-130v35h94v220q0 34 -18 52.5t-53 21.5l-23 2v29h299q82 0 151.5 -26t120 -72t79 -109.5t28.5 -137.5zM184 41h121q127 0 201.5 84t74.5 226q0 68 -19.5 125
t-54.5 97.5t-84.5 63t-108.5 22.5h-130v-20h36v-264h94v-35h-94v-279h-36v-20z" />
    <glyph glyph-name="Gbreve" unicode="&#x11e;" horiz-adv-x="755" 
d="M363 -9q-71 0 -132 26.5t-105 73t-69 111t-25 139.5q0 78 26 146t71.5 117.5t108 77.5t135.5 28q69 0 124.5 -29t91.5 -86v35q-1 4 -14 17.5t-17 17.5l76 43v-245h-34l-19 45q-32 77 -85.5 116t-124.5 39q-50 0 -91 -22.5t-70 -62.5t-45 -97t-16 -126t18 -127t50 -98.5
t77.5 -63t100.5 -22.5q50 0 96.5 18t97.5 57v25l-38 -26v114q0 34 -19 52.5t-57 21.5l-23 2v29h287v-29l-23 -2q-33 -3 -49.5 -21.5t-16.5 -52.5v-243l-71 67q-44 -32 -98.5 -48.5t-117.5 -16.5zM255 930q11 -30 44.5 -51.5t86.5 -21.5t86.5 21.5t44.5 51.5h4
q3 -72 -37.5 -113.5t-97.5 -41.5t-97.5 41.5t-37.5 113.5h4z" />
    <glyph glyph-name="Gcircumflex" unicode="&#x11c;" horiz-adv-x="755" 
d="M363 -9q-71 0 -132 26.5t-105 73t-69 111t-25 139.5q0 78 26 146t71.5 117.5t108 77.5t135.5 28q69 0 124.5 -29t91.5 -86v35q-1 4 -14 17.5t-17 17.5l76 43v-245h-34l-19 45q-32 77 -85.5 116t-124.5 39q-50 0 -91 -22.5t-70 -62.5t-45 -97t-16 -126t18 -127t50 -98.5
t77.5 -63t100.5 -22.5q50 0 96.5 18t97.5 57v25l-38 -26v114q0 34 -19 52.5t-57 21.5l-23 2v29h287v-29l-23 -2q-33 -3 -49.5 -21.5t-16.5 -52.5v-243l-71 67q-44 -32 -98.5 -48.5t-117.5 -16.5zM231 765h-4l104 150h110l104 -150h-4l-158 73l50 35h-36z" />
    <glyph glyph-name="uni0122" unicode="&#x122;" horiz-adv-x="755" 
d="M363 -9q-71 0 -132 26.5t-105 73t-69 111t-25 139.5q0 78 26 146t71.5 117.5t108 77.5t135.5 28q69 0 124.5 -29t91.5 -86v35q-1 4 -14 17.5t-17 17.5l76 43v-245h-34l-19 45q-32 77 -85.5 116t-124.5 39q-50 0 -91 -22.5t-70 -62.5t-45 -97t-16 -126t18 -127t50 -98.5
t77.5 -63t100.5 -22.5q50 0 96.5 18t97.5 57v25l-38 -26v114q0 34 -19 52.5t-57 21.5l-23 2v29h287v-29l-23 -2q-33 -3 -49.5 -21.5t-16.5 -52.5v-243l-71 67q-44 -32 -98.5 -48.5t-117.5 -16.5zM327 -260l-3 6q37 16 58.5 48.5t21.5 72.5v19h-18v-40q-1 -1 -6.5 -2.5
t-11.5 -1.5q-22 0 -38 16t-16 38q0 25 18 41.5t46 16.5q31 0 50 -20.5t19 -55.5q0 -46 -32 -84t-88 -54z" />
    <glyph glyph-name="Gdotaccent" unicode="&#x120;" horiz-adv-x="755" 
d="M363 -9q-71 0 -132 26.5t-105 73t-69 111t-25 139.5q0 78 26 146t71.5 117.5t108 77.5t135.5 28q69 0 124.5 -29t91.5 -86v35q-1 4 -14 17.5t-17 17.5l76 43v-245h-34l-19 45q-32 77 -85.5 116t-124.5 39q-50 0 -91 -22.5t-70 -62.5t-45 -97t-16 -126t18 -127t50 -98.5
t77.5 -63t100.5 -22.5q50 0 96.5 18t97.5 57v25l-38 -26v114q0 34 -19 52.5t-57 21.5l-23 2v29h287v-29l-23 -2q-33 -3 -49.5 -21.5t-16.5 -52.5v-243l-71 67q-44 -32 -98.5 -48.5t-117.5 -16.5zM337 805v99h98v-99h-98z" />
    <glyph glyph-name="Hbar" unicode="&#x126;" horiz-adv-x="769" 
d="M655 480v-375q0 -34 18 -52.5t53 -21.5l23 -2v-29h-294v29l23 2q35 3 53 21.5t18 52.5v215h36v20h-401v-20h36v-215q0 -34 18 -52.5t53 -21.5l23 -2v-29h-294v29l23 2q35 3 53 21.5t18 52.5v375h36v20h-130v35h94v60q0 34 -18 52.5t-53 21.5l-23 2v29h294v-29l-23 -2
q-35 -3 -53 -21.5t-18 -52.5v-60h329v60q0 34 -18 52.5t-53 21.5l-23 2v29h294v-29l-23 -2q-35 -3 -53 -21.5t-18 -52.5v-60h94v-35h-130v-20h36zM220 500v-125h329v125h-329z" />
    <glyph glyph-name="Hcircumflex" unicode="&#x124;" horiz-adv-x="769" 
d="M184 340v-20h36v-215q0 -34 18 -52.5t53 -21.5l23 -2v-29h-294v29l23 2q35 3 53 21.5t18 52.5v490q0 34 -18 52.5t-53 21.5l-23 2v29h294v-29l-23 -2q-35 -3 -53 -21.5t-18 -52.5v-220h329v220q0 34 -18 52.5t-53 21.5l-23 2v29h294v-29l-23 -2q-35 -3 -53 -21.5
t-18 -52.5v-490q0 -34 18 -52.5t53 -21.5l23 -2v-29h-294v29l23 2q35 3 53 21.5t18 52.5v215h36v20h-401zM230 765h-4l104 150h110l104 -150h-4l-158 73l50 35h-36z" />
    <glyph glyph-name="Iacute" unicode="&#xcd;" horiz-adv-x="334" 
d="M220 105q0 -34 18 -52.5t53 -21.5l23 -2v-29h-294v29l23 2q35 3 53 21.5t18 52.5v490q0 34 -18 52.5t-53 21.5l-23 2v29h294v-29l-23 -2q-35 -3 -53 -21.5t-18 -52.5v-490zM92 765h4l173 93q18 10 25.5 25.5t5.5 30t-14 25.5t-33 11t-35.5 -11.5t-32.5 -37.5z" />
    <glyph glyph-name="Ibreve" unicode="&#x12c;" horiz-adv-x="334" 
d="M220 105q0 -34 18 -52.5t53 -21.5l23 -2v-29h-294v29l23 2q35 3 53 21.5t18 52.5v490q0 34 -18 52.5t-53 21.5l-23 2v29h294v-29l-23 -2q-35 -3 -53 -21.5t-18 -52.5v-490zM36 930q11 -30 44.5 -51.5t86.5 -21.5t86.5 21.5t44.5 51.5h4q3 -72 -37.5 -113.5t-97.5 -41.5
t-97.5 41.5t-37.5 113.5h4z" />
    <glyph glyph-name="Icircumflex" unicode="&#xce;" horiz-adv-x="334" 
d="M220 105q0 -34 18 -52.5t53 -21.5l23 -2v-29h-294v29l23 2q35 3 53 21.5t18 52.5v490q0 34 -18 52.5t-53 21.5l-23 2v29h294v-29l-23 -2q-35 -3 -53 -21.5t-18 -52.5v-490zM12 765h-4l104 150h110l104 -150h-4l-158 73l50 35h-36z" />
    <glyph glyph-name="Idieresis" unicode="&#xcf;" horiz-adv-x="334" 
d="M220 105q0 -34 18 -52.5t53 -21.5l23 -2v-29h-294v29l23 2q35 3 53 21.5t18 52.5v490q0 34 -18 52.5t-53 21.5l-23 2v29h294v-29l-23 -2q-35 -3 -53 -21.5t-18 -52.5v-490zM21 805v99h98v-99h-98zM215 805v99h98v-99h-98z" />
    <glyph glyph-name="Idotaccent" unicode="&#x130;" horiz-adv-x="334" 
d="M220 105q0 -34 18 -52.5t53 -21.5l23 -2v-29h-294v29l23 2q35 3 53 21.5t18 52.5v490q0 34 -18 52.5t-53 21.5l-23 2v29h294v-29l-23 -2q-35 -3 -53 -21.5t-18 -52.5v-490zM118 805v99h98v-99h-98z" />
    <glyph glyph-name="Igrave" unicode="&#xcc;" horiz-adv-x="334" 
d="M220 105q0 -34 18 -52.5t53 -21.5l23 -2v-29h-294v29l23 2q35 3 53 21.5t18 52.5v490q0 34 -18 52.5t-53 21.5l-23 2v29h294v-29l-23 -2q-35 -3 -53 -21.5t-18 -52.5v-490zM242 765h-4l-173 93q-18 10 -25.5 25.5t-5.5 30t14 25.5t33 11t35.5 -11.5t32.5 -37.5z" />
    <glyph glyph-name="IJ" unicode="&#x132;" horiz-adv-x="902" 
d="M220 105q0 -34 18 -52.5t53 -21.5l23 -2v-29h-294v29l23 2q35 3 53 21.5t18 52.5v490q0 34 -18 52.5t-53 21.5l-23 2v29h294v-29l-23 -2q-35 -3 -53 -21.5t-18 -52.5v-490zM788 595v-381q0 -49 -17.5 -90.5t-48.5 -71t-75 -46.5t-95 -17q-40 0 -76 12t-63 32t-42.5 47
t-15.5 57q0 23 15.5 39t37.5 16q30 0 45 -21.5t9 -56.5h-21q1 -37 29.5 -59.5t74.5 -22.5q64 0 100.5 40.5t36.5 110.5v412q0 34 -18 52.5t-53 21.5l-23 2v29h294v-29l-23 -2q-35 -3 -53 -21.5t-18 -52.5z" />
    <glyph glyph-name="Imacron" unicode="&#x12a;" horiz-adv-x="334" 
d="M220 105q0 -34 18 -52.5t53 -21.5l23 -2v-29h-294v29l23 2q35 3 53 21.5t18 52.5v490q0 34 -18 52.5t-53 21.5l-23 2v29h294v-29l-23 -2q-35 -3 -53 -21.5t-18 -52.5v-490zM14 880h306v-60h-306v60z" />
    <glyph glyph-name="Iogonek" unicode="&#x12e;" horiz-adv-x="334" 
d="M220 105q0 -34 18 -52.5t53 -21.5l23 -2v-29l-12 -6q-51 -25 -72.5 -57.5t-21.5 -57.5q0 -22 14.5 -35t39.5 -13q16 0 27.5 5t24.5 13l3 -3q-13 -28 -37.5 -42.5t-53.5 -14.5q-38 0 -59 20.5t-21 51.5q0 38 35.5 77.5t96.5 61.5h-258v29l23 2q35 3 53 21.5t18 52.5v490
q0 34 -18 52.5t-53 21.5l-23 2v29h294v-29l-23 -2q-35 -3 -53 -21.5t-18 -52.5v-490z" />
    <glyph glyph-name="Itilde" unicode="&#x128;" horiz-adv-x="334" 
d="M220 105q0 -34 18 -52.5t53 -21.5l23 -2v-29h-294v29l23 2q35 3 53 21.5t18 52.5v490q0 34 -18 52.5t-53 21.5l-23 2v29h294v-29l-23 -2q-35 -3 -53 -21.5t-18 -52.5v-490zM344 924h4q-23 -75 -50 -109.5t-64 -34.5q-18 0 -39.5 10t-43.5 22.5t-43.5 22.5t-39.5 10
t-37 -13.5t-41 -51.5h-4q23 76 50 110.5t64 34.5q19 0 41 -10t44 -22.5t43 -22.5t38 -10q18 0 37 13.5t41 50.5z" />
    <glyph glyph-name="Jcircumflex" unicode="&#x134;" horiz-adv-x="568" 
d="M454 595v-381q0 -49 -17.5 -90.5t-48.5 -71t-75 -46.5t-95 -17q-40 0 -76 12t-63 32t-42.5 47t-15.5 57q0 23 15.5 39t37.5 16q30 0 45 -21.5t9 -56.5h-21q1 -37 29.5 -59.5t74.5 -22.5q64 0 100.5 40.5t36.5 110.5v412q0 34 -18 52.5t-53 21.5l-23 2v29h294v-29l-23 -2
q-35 -3 -53 -21.5t-18 -52.5zM246 765h-4l104 150h110l104 -150h-4l-158 73l50 35h-36z" />
    <glyph glyph-name="uni0136" unicode="&#x136;" horiz-adv-x="728" 
d="M17 0v29l23 2q35 3 53 21.5t18 52.5v490q0 34 -18 52.5t-53 21.5l-23 2v29h294v-29l-23 -2q-35 -3 -53 -21.5t-18 -52.5v-257l-28 -30v-25l294 305q30 31 26.5 55t-33.5 26l-22 2v29h235v-27q-40 -10 -83 -34t-71 -52l-152 -156l236 -328q23 -32 47 -50t53 -26v-27h-163
l-245 356l-94 -97v-154q0 -34 18 -52.5t53 -21.5l23 -2v-29h-294zM346 -260l-3 6q37 16 58.5 48.5t21.5 72.5v19h-18v-40q-1 -1 -6.5 -2.5t-11.5 -1.5q-22 0 -38 16t-16 38q0 25 18 41.5t46 16.5q31 0 50 -20.5t19 -55.5q0 -46 -32 -84t-88 -54z" />
    <glyph glyph-name="Lacute" unicode="&#x139;" horiz-adv-x="645" 
d="M587 0h-567v29l23 2q35 3 53 21.5t18 52.5v490q0 34 -18 52.5t-53 21.5l-23 2v29h294v-29l-23 -2q-35 -3 -53 -21.5t-18 -52.5v-534h-36v-20h225q61 0 100 36t60 111l17 61h33zM92 765h4l173 93q18 10 25.5 25.5t5.5 30t-14 25.5t-33 11t-35.5 -11.5t-32.5 -37.5z" />
    <glyph glyph-name="Lcaron" unicode="&#x13d;" horiz-adv-x="645" 
d="M587 0h-567v29l23 2q35 3 53 21.5t18 52.5v490q0 34 -18 52.5t-53 21.5l-23 2v29h294v-29l-23 -2q-35 -3 -53 -21.5t-18 -52.5v-534h-36v-20h225q61 0 100 36t60 111l17 61h33zM452 496l-3 6q37 16 58.5 48.5t21.5 72.5v19h-18v-40q-1 -1 -6.5 -2.5t-11.5 -1.5
q-22 0 -38 16t-16 38q0 25 18 41.5t46 16.5q31 0 50 -20.5t19 -55.5q0 -46 -32 -84t-88 -54z" />
    <glyph glyph-name="uni013B" unicode="&#x13b;" horiz-adv-x="645" 
d="M587 0h-567v29l23 2q35 3 53 21.5t18 52.5v490q0 34 -18 52.5t-53 21.5l-23 2v29h294v-29l-23 -2q-35 -3 -53 -21.5t-18 -52.5v-534h-36v-20h225q61 0 100 36t60 111l17 61h33zM284 -260l-3 6q37 16 58.5 48.5t21.5 72.5v19h-18v-40q-1 -1 -6.5 -2.5t-11.5 -1.5
q-22 0 -38 16t-16 38q0 25 18 41.5t46 16.5q31 0 50 -20.5t19 -55.5q0 -46 -32 -84t-88 -54z" />
    <glyph glyph-name="Ldot" unicode="&#x13f;" horiz-adv-x="645" 
d="M587 0h-567v29l23 2q35 3 53 21.5t18 52.5v490q0 34 -18 52.5t-53 21.5l-23 2v29h294v-29l-23 -2q-35 -3 -53 -21.5t-18 -52.5v-534h-36v-20h225q61 0 100 36t60 111l17 61h33zM461 373v99h98v-99h-98z" />
    <glyph glyph-name="Lslash" unicode="&#x141;" horiz-adv-x="645" 
d="M159 350l-153 -103v45l108 73v230q0 34 -18 52.5t-53 21.5l-23 2v29h294v-29l-23 -2q-35 -3 -53 -21.5t-18 -52.5v-160l130 88v-45l-130 -88v-329h-36v-20h225q61 0 100 36t60 111l17 61h33l-32 -249h-567v29l23 2q35 3 53 21.5t18 52.5v189l45 30v26z" />
    <glyph glyph-name="Nacute" unicode="&#x143;" horiz-adv-x="759" 
d="M650 584v-594l-483 580v-454q0 -37 18 -58.5t54 -25.5l23 -3v-29h-242v29l23 3q36 4 53.5 25t17.5 59v502l-80 82h162l382 -452v-37l19 -22v395q0 37 -18 58.5t-54 25.5l-23 3v29h242v-29l-23 -3q-36 -4 -53.5 -25t-17.5 -59zM324 765h4l173 93q18 10 25.5 25.5t5.5 30
t-14 25.5t-33 11t-35.5 -11.5t-32.5 -37.5z" />
    <glyph glyph-name="Ncaron" unicode="&#x147;" horiz-adv-x="759" 
d="M650 584v-594l-483 580v-454q0 -37 18 -58.5t54 -25.5l23 -3v-29h-242v29l23 3q36 4 53.5 25t17.5 59v502l-80 82h162l382 -452v-37l19 -22v395q0 37 -18 58.5t-54 25.5l-23 3v29h242v-29l-23 -3q-36 -4 -53.5 -25t-17.5 -59zM554 928h4l-104 -150h-110l-104 150h4
l158 -73l-50 -35h36z" />
    <glyph glyph-name="uni0145" unicode="&#x145;" horiz-adv-x="759" 
d="M650 584v-594l-483 580v-454q0 -37 18 -58.5t54 -25.5l23 -3v-29h-242v29l23 3q36 4 53.5 25t17.5 59v502l-80 82h162l382 -452v-37l19 -22v395q0 37 -18 58.5t-54 25.5l-23 3v29h242v-29l-23 -3q-36 -4 -53.5 -25t-17.5 -59zM331 -260l-3 6q37 16 58.5 48.5t21.5 72.5
v19h-18v-40q-1 -1 -6.5 -2.5t-11.5 -1.5q-22 0 -38 16t-16 38q0 25 18 41.5t46 16.5q31 0 50 -20.5t19 -55.5q0 -46 -32 -84t-88 -54z" />
    <glyph glyph-name="Ntilde" unicode="&#xd1;" horiz-adv-x="759" 
d="M650 584v-594l-483 580v-454q0 -37 18 -58.5t54 -25.5l23 -3v-29h-242v29l23 3q36 4 53.5 25t17.5 59v502l-80 82h162l382 -452v-37l19 -22v395q0 37 -18 58.5t-54 25.5l-23 3v29h242v-29l-23 -3q-36 -4 -53.5 -25t-17.5 -59zM576 924h4q-23 -75 -50 -109.5t-64 -34.5
q-18 0 -39.5 10t-43.5 22.5t-43.5 22.5t-39.5 10t-37 -13.5t-41 -51.5h-4q23 76 50 110.5t64 34.5q19 0 41 -10t44 -22.5t43 -22.5t38 -10q18 0 37 13.5t41 50.5z" />
    <glyph glyph-name="Oacute" unicode="&#xd3;" horiz-adv-x="731" 
d="M364 -11q-69 0 -129.5 26.5t-105.5 74t-71 113.5t-26 144t26.5 145t72 115.5t107 76.5t130.5 28q68 0 129 -26.5t105.5 -73.5t71 -113t26.5 -144t-26.5 -145.5t-72 -116t-107 -76.5t-130.5 -28zM374 32q44 0 82.5 21t66 59.5t43.5 94t16 124.5q0 79 -17.5 142
t-47.5 106.5t-72 67t-91 23.5q-44 0 -82.5 -21t-66 -59.5t-43.5 -94t-16 -124.5q0 -79 17.5 -142t47.5 -106.5t72 -67t91 -23.5zM286 765h4l173 93q18 10 25.5 25.5t5.5 30t-14 25.5t-33 11t-35.5 -11.5t-32.5 -37.5z" />
    <glyph glyph-name="Obreve" unicode="&#x14e;" horiz-adv-x="731" 
d="M364 -11q-69 0 -129.5 26.5t-105.5 74t-71 113.5t-26 144t26.5 145t72 115.5t107 76.5t130.5 28q68 0 129 -26.5t105.5 -73.5t71 -113t26.5 -144t-26.5 -145.5t-72 -116t-107 -76.5t-130.5 -28zM374 32q44 0 82.5 21t66 59.5t43.5 94t16 124.5q0 79 -17.5 142
t-47.5 106.5t-72 67t-91 23.5q-44 0 -82.5 -21t-66 -59.5t-43.5 -94t-16 -124.5q0 -79 17.5 -142t47.5 -106.5t72 -67t91 -23.5zM230 930q11 -30 44.5 -51.5t86.5 -21.5t86.5 21.5t44.5 51.5h4q3 -72 -37.5 -113.5t-97.5 -41.5t-97.5 41.5t-37.5 113.5h4z" />
    <glyph glyph-name="Ocircumflex" unicode="&#xd4;" horiz-adv-x="731" 
d="M364 -11q-69 0 -129.5 26.5t-105.5 74t-71 113.5t-26 144t26.5 145t72 115.5t107 76.5t130.5 28q68 0 129 -26.5t105.5 -73.5t71 -113t26.5 -144t-26.5 -145.5t-72 -116t-107 -76.5t-130.5 -28zM374 32q44 0 82.5 21t66 59.5t43.5 94t16 124.5q0 79 -17.5 142
t-47.5 106.5t-72 67t-91 23.5q-44 0 -82.5 -21t-66 -59.5t-43.5 -94t-16 -124.5q0 -79 17.5 -142t47.5 -106.5t72 -67t91 -23.5zM206 765h-4l104 150h110l104 -150h-4l-158 73l50 35h-36z" />
    <glyph glyph-name="Odieresis" unicode="&#xd6;" horiz-adv-x="731" 
d="M364 -11q-69 0 -129.5 26.5t-105.5 74t-71 113.5t-26 144t26.5 145t72 115.5t107 76.5t130.5 28q68 0 129 -26.5t105.5 -73.5t71 -113t26.5 -144t-26.5 -145.5t-72 -116t-107 -76.5t-130.5 -28zM374 32q44 0 82.5 21t66 59.5t43.5 94t16 124.5q0 79 -17.5 142
t-47.5 106.5t-72 67t-91 23.5q-44 0 -82.5 -21t-66 -59.5t-43.5 -94t-16 -124.5q0 -79 17.5 -142t47.5 -106.5t72 -67t91 -23.5zM215 805v99h98v-99h-98zM409 805v99h98v-99h-98z" />
    <glyph glyph-name="OE" unicode="&#x152;" horiz-adv-x="1056" 
d="M413 0q-80 0 -150 27.5t-121 75t-80.5 112.5t-29.5 140q0 74 28.5 137.5t79 109.5t120 72t151.5 26h574l12 -244h-32l-22 79q-18 65 -52.5 94.5t-92.5 29.5h-182v-284h105q37 0 57 18t30 63l8 34h33v-264h-33l-8 34q-10 44 -30 62t-57 18h-105v-279h-36v-20h225
q61 0 100 35t59 108l18 65h33l-32 -249h-570zM510 41v598h36v20h-130q-59 0 -108.5 -22.5t-84.5 -63t-54.5 -97.5t-19.5 -125q0 -142 74.5 -226t201.5 -84h85z" />
    <glyph glyph-name="Ograve" unicode="&#xd2;" horiz-adv-x="731" 
d="M364 -11q-69 0 -129.5 26.5t-105.5 74t-71 113.5t-26 144t26.5 145t72 115.5t107 76.5t130.5 28q68 0 129 -26.5t105.5 -73.5t71 -113t26.5 -144t-26.5 -145.5t-72 -116t-107 -76.5t-130.5 -28zM374 32q44 0 82.5 21t66 59.5t43.5 94t16 124.5q0 79 -17.5 142
t-47.5 106.5t-72 67t-91 23.5q-44 0 -82.5 -21t-66 -59.5t-43.5 -94t-16 -124.5q0 -79 17.5 -142t47.5 -106.5t72 -67t91 -23.5zM436 765h-4l-173 93q-18 10 -25.5 25.5t-5.5 30t14 25.5t33 11t35.5 -11.5t32.5 -37.5z" />
    <glyph glyph-name="Ohungarumlaut" unicode="&#x150;" horiz-adv-x="731" 
d="M364 -11q-69 0 -129.5 26.5t-105.5 74t-71 113.5t-26 144t26.5 145t72 115.5t107 76.5t130.5 28q68 0 129 -26.5t105.5 -73.5t71 -113t26.5 -144t-26.5 -145.5t-72 -116t-107 -76.5t-130.5 -28zM374 32q44 0 82.5 21t66 59.5t43.5 94t16 124.5q0 79 -17.5 142
t-47.5 106.5t-72 67t-91 23.5q-44 0 -82.5 -21t-66 -59.5t-43.5 -94t-16 -124.5q0 -79 17.5 -142t47.5 -106.5t72 -67t91 -23.5zM300 903q16 26 31 38t35 12q18 0 29 -8.5t13 -21t-4.5 -27t-24.5 -26.5l-154 -102h-4zM460 903q16 26 31 38t35 12q18 0 29 -8.5t13 -21
t-4.5 -27t-24.5 -26.5l-154 -102h-4z" />
    <glyph glyph-name="Omacron" unicode="&#x14c;" horiz-adv-x="731" 
d="M364 -11q-69 0 -129.5 26.5t-105.5 74t-71 113.5t-26 144t26.5 145t72 115.5t107 76.5t130.5 28q68 0 129 -26.5t105.5 -73.5t71 -113t26.5 -144t-26.5 -145.5t-72 -116t-107 -76.5t-130.5 -28zM374 32q44 0 82.5 21t66 59.5t43.5 94t16 124.5q0 79 -17.5 142
t-47.5 106.5t-72 67t-91 23.5q-44 0 -82.5 -21t-66 -59.5t-43.5 -94t-16 -124.5q0 -79 17.5 -142t47.5 -106.5t72 -67t91 -23.5zM208 880h306v-60h-306v60z" />
    <glyph glyph-name="Oslash" unicode="&#xd8;" horiz-adv-x="731" 
d="M137 148q-3 5 -6.5 12t-5.5 12l-34 -34q-28 43 -43.5 96t-15.5 113q0 78 26.5 145t72 115.5t107 76.5t130.5 28q66 0 126 -25t105 -71l82 84h59l-145 -147q3 -5 6.5 -12t5.5 -12l34 34q28 -43 43.5 -96t15.5 -113q0 -78 -26.5 -145t-72 -115.5t-107 -76.5t-130.5 -28
q-66 0 -126 25t-105 71l-83 -85h-59zM146 371q0 -53 8 -99.5t23 -83.5l357 364q-31 57 -77.5 87.5t-102.5 30.5q-44 0 -82.5 -21t-66 -59.5t-43.5 -94t-16 -124.5zM374 32q44 0 82.5 21t66 59.5t43.5 94t16 124.5q0 52 -8 97.5t-21 82.5l-358 -363q31 -56 77.5 -86
t101.5 -30z" />
    <glyph glyph-name="Otilde" unicode="&#xd5;" horiz-adv-x="731" 
d="M364 -11q-69 0 -129.5 26.5t-105.5 74t-71 113.5t-26 144t26.5 145t72 115.5t107 76.5t130.5 28q68 0 129 -26.5t105.5 -73.5t71 -113t26.5 -144t-26.5 -145.5t-72 -116t-107 -76.5t-130.5 -28zM374 32q44 0 82.5 21t66 59.5t43.5 94t16 124.5q0 79 -17.5 142
t-47.5 106.5t-72 67t-91 23.5q-44 0 -82.5 -21t-66 -59.5t-43.5 -94t-16 -124.5q0 -79 17.5 -142t47.5 -106.5t72 -67t91 -23.5zM538 924h4q-23 -75 -50 -109.5t-64 -34.5q-18 0 -39.5 10t-43.5 22.5t-43.5 22.5t-39.5 10t-37 -13.5t-41 -51.5h-4q23 76 50 110.5t64 34.5
q19 0 41 -10t44 -22.5t43 -22.5t38 -10q18 0 37 13.5t41 50.5z" />
    <glyph glyph-name="Racute" unicode="&#x154;" horiz-adv-x="693" 
d="M220 318v-213q0 -34 18 -52.5t53 -21.5l23 -2v-29h-294v29l23 2q35 3 53 21.5t18 52.5v490q0 34 -18 52.5t-53 21.5l-23 2v29h329q106 0 172 -48t66 -125q0 -32 -13.5 -61t-35.5 -52.5t-51 -39.5t-59 -22q36 -13 58.5 -36t37.5 -58l73 -174q10 -25 29 -37.5t48 -16.5
l13 -2v-28h-176l-99 264q-15 40 -37 57t-59 17h-132v-20h36zM220 373h113q63 0 103 40t40 104q0 66 -38.5 104t-104.5 38h-149v-20h36v-266zM271 765h4l173 93q18 10 25.5 25.5t5.5 30t-14 25.5t-33 11t-35.5 -11.5t-32.5 -37.5z" />
    <glyph glyph-name="Rcaron" unicode="&#x158;" horiz-adv-x="693" 
d="M220 318v-213q0 -34 18 -52.5t53 -21.5l23 -2v-29h-294v29l23 2q35 3 53 21.5t18 52.5v490q0 34 -18 52.5t-53 21.5l-23 2v29h329q106 0 172 -48t66 -125q0 -32 -13.5 -61t-35.5 -52.5t-51 -39.5t-59 -22q36 -13 58.5 -36t37.5 -58l73 -174q10 -25 29 -37.5t48 -16.5
l13 -2v-28h-176l-99 264q-15 40 -37 57t-59 17h-132v-20h36zM220 373h113q63 0 103 40t40 104q0 66 -38.5 104t-104.5 38h-149v-20h36v-266zM501 928h4l-104 -150h-110l-104 150h4l158 -73l-50 -35h36z" />
    <glyph glyph-name="uni0156" unicode="&#x156;" horiz-adv-x="693" 
d="M220 318v-213q0 -34 18 -52.5t53 -21.5l23 -2v-29h-294v29l23 2q35 3 53 21.5t18 52.5v490q0 34 -18 52.5t-53 21.5l-23 2v29h329q106 0 172 -48t66 -125q0 -32 -13.5 -61t-35.5 -52.5t-51 -39.5t-59 -22q36 -13 58.5 -36t37.5 -58l73 -174q10 -25 29 -37.5t48 -16.5
l13 -2v-28h-176l-99 264q-15 40 -37 57t-59 17h-132v-20h36zM220 373h113q63 0 103 40t40 104q0 66 -38.5 104t-104.5 38h-149v-20h36v-266zM311 -260l-3 6q37 16 58.5 48.5t21.5 72.5v19h-18v-40q-1 -1 -6.5 -2.5t-11.5 -1.5q-22 0 -38 16t-16 38q0 25 18 41.5t46 16.5
q31 0 50 -20.5t19 -55.5q0 -46 -32 -84t-88 -54z" />
    <glyph glyph-name="Sacute" unicode="&#x15a;" horiz-adv-x="545" 
d="M281 -11q-60 0 -112 27.5t-94 81.5l1 -34q2 -3 14 -14t17 -15l-74 -44l-3 244h35l26 -57q33 -72 81 -108t111 -36q66 0 105.5 34t39.5 91q0 40 -26.5 72.5t-75.5 51.5l-171 68q-59 24 -89.5 65.5t-30.5 97.5q0 87 57.5 141.5t147.5 54.5q61 0 111 -30.5t81 -86.5l-1 37
q-4 6 -16 20.5t-15 16.5l72 41l3 -234h-35l-18 42q-33 77 -77.5 113t-107.5 36q-52 0 -84 -29.5t-32 -78.5q0 -37 23 -66t66 -46l184 -72q60 -24 93 -69.5t33 -105.5q0 -93 -66 -151t-173 -58zM186 765h4l173 93q18 10 25.5 25.5t5.5 30t-14 25.5t-33 11t-35.5 -11.5
t-32.5 -37.5z" />
    <glyph glyph-name="Scaron" unicode="&#x160;" horiz-adv-x="545" 
d="M281 -11q-60 0 -112 27.5t-94 81.5l1 -34q2 -3 14 -14t17 -15l-74 -44l-3 244h35l26 -57q33 -72 81 -108t111 -36q66 0 105.5 34t39.5 91q0 40 -26.5 72.5t-75.5 51.5l-171 68q-59 24 -89.5 65.5t-30.5 97.5q0 87 57.5 141.5t147.5 54.5q61 0 111 -30.5t81 -86.5l-1 37
q-4 6 -16 20.5t-15 16.5l72 41l3 -234h-35l-18 42q-33 77 -77.5 113t-107.5 36q-52 0 -84 -29.5t-32 -78.5q0 -37 23 -66t66 -46l184 -72q60 -24 93 -69.5t33 -105.5q0 -93 -66 -151t-173 -58zM416 928h4l-104 -150h-110l-104 150h4l158 -73l-50 -35h36z" />
    <glyph glyph-name="uni015E" unicode="&#x15e;" horiz-adv-x="545" 
d="M196 -189v4q46 -3 69.5 7.5t23.5 29.5q0 10 -6.5 19.5t-22.5 19.5l-48 29l43 70q-52 5 -97.5 32t-82.5 76l1 -34q2 -3 14 -14t17 -15l-74 -44l-3 244h35l26 -57q33 -72 81 -108t111 -36q66 0 105.5 34t39.5 91q0 40 -26.5 72.5t-75.5 51.5l-171 68q-59 24 -89.5 65.5
t-30.5 97.5q0 87 57.5 141.5t147.5 54.5q61 0 111 -30.5t81 -86.5l-1 37q-4 6 -16 20.5t-15 16.5l72 41l3 -234h-35l-18 42q-33 77 -77.5 113t-107.5 36q-52 0 -84 -29.5t-32 -78.5q0 -37 23 -66t66 -46l184 -72q60 -24 93 -69.5t33 -105.5q0 -92 -64 -149.5t-168 -59.5
l-31 -54l19 -11l17 29l7 -4q43 -24 53.5 -44t10.5 -36q0 -31 -29.5 -52.5t-74.5 -21.5q-19 0 -36 4.5t-28 11.5z" />
    <glyph glyph-name="Scircumflex" unicode="&#x15c;" horiz-adv-x="545" 
d="M281 -11q-60 0 -112 27.5t-94 81.5l1 -34q2 -3 14 -14t17 -15l-74 -44l-3 244h35l26 -57q33 -72 81 -108t111 -36q66 0 105.5 34t39.5 91q0 40 -26.5 72.5t-75.5 51.5l-171 68q-59 24 -89.5 65.5t-30.5 97.5q0 87 57.5 141.5t147.5 54.5q61 0 111 -30.5t81 -86.5l-1 37
q-4 6 -16 20.5t-15 16.5l72 41l3 -234h-35l-18 42q-33 77 -77.5 113t-107.5 36q-52 0 -84 -29.5t-32 -78.5q0 -37 23 -66t66 -46l184 -72q60 -24 93 -69.5t33 -105.5q0 -93 -66 -151t-173 -58zM106 765h-4l104 150h110l104 -150h-4l-158 73l50 35h-36z" />
    <glyph glyph-name="uni0218" unicode="&#x218;" horiz-adv-x="545" 
d="M281 -11q-60 0 -112 27.5t-94 81.5l1 -34q2 -3 14 -14t17 -15l-74 -44l-3 244h35l26 -57q33 -72 81 -108t111 -36q66 0 105.5 34t39.5 91q0 40 -26.5 72.5t-75.5 51.5l-171 68q-59 24 -89.5 65.5t-30.5 97.5q0 87 57.5 141.5t147.5 54.5q61 0 111 -30.5t81 -86.5l-1 37
q-4 6 -16 20.5t-15 16.5l72 41l3 -234h-35l-18 42q-33 77 -77.5 113t-107.5 36q-52 0 -84 -29.5t-32 -78.5q0 -37 23 -66t66 -46l184 -72q60 -24 93 -69.5t33 -105.5q0 -93 -66 -151t-173 -58zM227 -260l-3 6q37 16 58.5 48.5t21.5 72.5v19h-18v-40q-1 -1 -6.5 -2.5
t-11.5 -1.5q-22 0 -38 16t-16 38q0 25 18 41.5t46 16.5q31 0 50 -20.5t19 -55.5q0 -46 -32 -84t-88 -54z" />
    <glyph glyph-name="Tbar" unicode="&#x166;" horiz-adv-x="659" 
d="M547 375v-35h-164v-235q0 -34 18 -52.5t53 -21.5l23 -2v-29h-294v29l23 2q35 3 53 21.5t18 52.5v215h36v20h-200v35h164v284h-62q-59 0 -94 -29.5t-54 -93.5l-16 -56h-33l12 220h599l12 -220h-33l-16 56q-19 64 -54 93.5t-94 29.5h-97v-20h36v-264h164z" />
    <glyph glyph-name="Tcaron" unicode="&#x164;" horiz-adv-x="659" 
d="M30 700h599l12 -220h-33l-16 56q-19 64 -54 93.5t-94 29.5h-97v-20h36v-534q0 -34 18 -52.5t53 -21.5l23 -2v-29h-294v29l23 2q35 3 53 21.5t18 52.5v554h-62q-59 0 -94 -29.5t-54 -93.5l-16 -56h-33zM484 928h4l-104 -150h-110l-104 150h4l158 -73l-50 -35h36z" />
    <glyph glyph-name="uni0162" unicode="&#x162;" horiz-adv-x="659" 
d="M245 -189v4q46 -3 69.5 7.5t23.5 29.5q0 10 -6.5 19.5t-22.5 19.5l-48 29l49 80h-127v29l23 2q35 3 53 21.5t18 52.5v554h-62q-59 0 -94 -29.5t-54 -93.5l-16 -56h-33l12 220h599l12 -220h-33l-16 56q-19 64 -54 93.5t-94 29.5h-97v-20h36v-534q0 -34 18 -52.5t53 -21.5
l23 -2v-29h-133l-38 -65l19 -11l17 29l7 -4q43 -24 53.5 -44t10.5 -36q0 -31 -29.5 -52.5t-74.5 -21.5q-19 0 -36 4.5t-28 11.5z" />
    <glyph glyph-name="uni021A" unicode="&#x21a;" horiz-adv-x="659" 
d="M30 700h599l12 -220h-33l-16 56q-19 64 -54 93.5t-94 29.5h-97v-20h36v-534q0 -34 18 -52.5t53 -21.5l23 -2v-29h-294v29l23 2q35 3 53 21.5t18 52.5v554h-62q-59 0 -94 -29.5t-54 -93.5l-16 -56h-33zM276 -260l-3 6q37 16 58.5 48.5t21.5 72.5v19h-18v-40
q-1 -1 -6.5 -2.5t-11.5 -1.5q-22 0 -38 16t-16 38q0 25 18 41.5t46 16.5q31 0 50 -20.5t19 -55.5q0 -46 -32 -84t-88 -54z" />
    <glyph glyph-name="Thorn" unicode="&#xde;" horiz-adv-x="617" 
d="M220 595v-40h124q109 0 176 -50.5t67 -132.5q0 -43 -18 -78.5t-50 -61t-76.5 -40t-97.5 -14.5h-161v-20h36v-53q0 -34 18 -52.5t53 -21.5l23 -2v-29h-294v29l23 2q35 3 53 21.5t18 52.5v490q0 34 -18 52.5t-53 21.5l-23 2v29h294v-29l-23 -2q-35 -3 -53 -21.5t-18 -52.5z
M220 213h113q64 0 103.5 42.5t39.5 112.5q0 68 -38 107t-105 39h-149v-20h36v-281z" />
    <glyph glyph-name="Uacute" unicode="&#xda;" horiz-adv-x="763" 
d="M372 -11q-118 0 -188 65.5t-70 175.5v365q0 34 -18 52.5t-53 21.5l-23 2v29h293v-29l-23 -2q-35 -3 -53 -21.5t-18 -52.5v-345q0 -90 49.5 -144.5t130.5 -54.5q91 0 144 66t53 179v288q0 37 -18 58.5t-54 25.5l-23 3v29h242v-29l-23 -3q-36 -4 -53.5 -25t-17.5 -59v-301
q0 -134 -75.5 -214t-201.5 -80zM331 765h4l173 93q18 10 25.5 25.5t5.5 30t-14 25.5t-33 11t-35.5 -11.5t-32.5 -37.5z" />
    <glyph glyph-name="Ubreve" unicode="&#x16c;" horiz-adv-x="763" 
d="M372 -11q-118 0 -188 65.5t-70 175.5v365q0 34 -18 52.5t-53 21.5l-23 2v29h293v-29l-23 -2q-35 -3 -53 -21.5t-18 -52.5v-345q0 -90 49.5 -144.5t130.5 -54.5q91 0 144 66t53 179v288q0 37 -18 58.5t-54 25.5l-23 3v29h242v-29l-23 -3q-36 -4 -53.5 -25t-17.5 -59v-301
q0 -134 -75.5 -214t-201.5 -80zM275 930q11 -30 44.5 -51.5t86.5 -21.5t86.5 21.5t44.5 51.5h4q3 -72 -37.5 -113.5t-97.5 -41.5t-97.5 41.5t-37.5 113.5h4z" />
    <glyph glyph-name="Ucircumflex" unicode="&#xdb;" horiz-adv-x="763" 
d="M372 -11q-118 0 -188 65.5t-70 175.5v365q0 34 -18 52.5t-53 21.5l-23 2v29h293v-29l-23 -2q-35 -3 -53 -21.5t-18 -52.5v-345q0 -90 49.5 -144.5t130.5 -54.5q91 0 144 66t53 179v288q0 37 -18 58.5t-54 25.5l-23 3v29h242v-29l-23 -3q-36 -4 -53.5 -25t-17.5 -59v-301
q0 -134 -75.5 -214t-201.5 -80zM251 765h-4l104 150h110l104 -150h-4l-158 73l50 35h-36z" />
    <glyph glyph-name="Udieresis" unicode="&#xdc;" horiz-adv-x="763" 
d="M372 -11q-118 0 -188 65.5t-70 175.5v365q0 34 -18 52.5t-53 21.5l-23 2v29h293v-29l-23 -2q-35 -3 -53 -21.5t-18 -52.5v-345q0 -90 49.5 -144.5t130.5 -54.5q91 0 144 66t53 179v288q0 37 -18 58.5t-54 25.5l-23 3v29h242v-29l-23 -3q-36 -4 -53.5 -25t-17.5 -59v-301
q0 -134 -75.5 -214t-201.5 -80zM260 805v99h98v-99h-98zM454 805v99h98v-99h-98z" />
    <glyph glyph-name="Ugrave" unicode="&#xd9;" horiz-adv-x="763" 
d="M372 -11q-118 0 -188 65.5t-70 175.5v365q0 34 -18 52.5t-53 21.5l-23 2v29h293v-29l-23 -2q-35 -3 -53 -21.5t-18 -52.5v-345q0 -90 49.5 -144.5t130.5 -54.5q91 0 144 66t53 179v288q0 37 -18 58.5t-54 25.5l-23 3v29h242v-29l-23 -3q-36 -4 -53.5 -25t-17.5 -59v-301
q0 -134 -75.5 -214t-201.5 -80zM481 765h-4l-173 93q-18 10 -25.5 25.5t-5.5 30t14 25.5t33 11t35.5 -11.5t32.5 -37.5z" />
    <glyph glyph-name="Uhungarumlaut" unicode="&#x170;" horiz-adv-x="763" 
d="M372 -11q-118 0 -188 65.5t-70 175.5v365q0 34 -18 52.5t-53 21.5l-23 2v29h293v-29l-23 -2q-35 -3 -53 -21.5t-18 -52.5v-345q0 -90 49.5 -144.5t130.5 -54.5q91 0 144 66t53 179v288q0 37 -18 58.5t-54 25.5l-23 3v29h242v-29l-23 -3q-36 -4 -53.5 -25t-17.5 -59v-301
q0 -134 -75.5 -214t-201.5 -80zM345 903q16 26 31 38t35 12q18 0 29 -8.5t13 -21t-4.5 -27t-24.5 -26.5l-154 -102h-4zM505 903q16 26 31 38t35 12q18 0 29 -8.5t13 -21t-4.5 -27t-24.5 -26.5l-154 -102h-4z" />
    <glyph glyph-name="Umacron" unicode="&#x16a;" horiz-adv-x="763" 
d="M372 -11q-118 0 -188 65.5t-70 175.5v365q0 34 -18 52.5t-53 21.5l-23 2v29h293v-29l-23 -2q-35 -3 -53 -21.5t-18 -52.5v-345q0 -90 49.5 -144.5t130.5 -54.5q91 0 144 66t53 179v288q0 37 -18 58.5t-54 25.5l-23 3v29h242v-29l-23 -3q-36 -4 -53.5 -25t-17.5 -59v-301
q0 -134 -75.5 -214t-201.5 -80zM253 880h306v-60h-306v60z" />
    <glyph glyph-name="Uogonek" unicode="&#x172;" horiz-adv-x="763" 
d="M372 -11q-118 0 -188 65.5t-70 175.5v365q0 34 -18 52.5t-53 21.5l-23 2v29h293v-29l-23 -2q-35 -3 -53 -21.5t-18 -52.5v-345q0 -90 49.5 -144.5t130.5 -54.5q91 0 144 66t53 179v288q0 37 -18 58.5t-54 25.5l-23 3v29h242v-29l-23 -3q-36 -4 -53.5 -25t-17.5 -59v-301
q0 -109 -51 -183.5t-140 -99.5h1l-12 -6q-51 -25 -72.5 -57.5t-21.5 -57.5q0 -22 14.5 -35t39.5 -13q16 0 27.5 5t24.5 13l3 -3q-13 -28 -37.5 -42.5t-53.5 -14.5q-38 0 -59 20.5t-21 51.5q0 34 28.5 69t80.5 60q-7 -1 -14 -1h-14z" />
    <glyph glyph-name="Uring" unicode="&#x16e;" horiz-adv-x="763" 
d="M372 -11q-118 0 -188 65.5t-70 175.5v365q0 34 -18 52.5t-53 21.5l-23 2v29h293v-29l-23 -2q-35 -3 -53 -21.5t-18 -52.5v-345q0 -90 49.5 -144.5t130.5 -54.5q91 0 144 66t53 179v288q0 37 -18 58.5t-54 25.5l-23 3v29h242v-29l-23 -3q-36 -4 -53.5 -25t-17.5 -59v-301
q0 -134 -75.5 -214t-201.5 -80zM406 940q41 0 70 -26.5t29 -68.5q0 -38 -28.5 -65t-70.5 -27t-70.5 27t-28.5 65q0 42 29 68.5t70 26.5zM406 788q28 0 43.5 17.5t15.5 39.5q0 25 -15.5 42t-43.5 17t-43.5 -17t-15.5 -42q0 -22 15.5 -39.5t43.5 -17.5z" />
    <glyph glyph-name="Utilde" unicode="&#x168;" horiz-adv-x="763" 
d="M372 -11q-118 0 -188 65.5t-70 175.5v365q0 34 -18 52.5t-53 21.5l-23 2v29h293v-29l-23 -2q-35 -3 -53 -21.5t-18 -52.5v-345q0 -90 49.5 -144.5t130.5 -54.5q91 0 144 66t53 179v288q0 37 -18 58.5t-54 25.5l-23 3v29h242v-29l-23 -3q-36 -4 -53.5 -25t-17.5 -59v-301
q0 -134 -75.5 -214t-201.5 -80zM583 924h4q-23 -75 -50 -109.5t-64 -34.5q-18 0 -39.5 10t-43.5 22.5t-43.5 22.5t-39.5 10t-37 -13.5t-41 -51.5h-4q23 76 50 110.5t64 34.5q19 0 41 -10t44 -22.5t43 -22.5t38 -10q18 0 37 13.5t41 50.5z" />
    <glyph glyph-name="Wacute" unicode="&#x1e82;" horiz-adv-x="1021" 
d="M701 195l-13 -35l13 -27l163 435q17 46 8 71.5t-49 29.5l-17 2v29h205v-27q-28 -8 -50.5 -29.5t-34.5 -54.5l-240 -625h-2l-162 438l-173 -438h-2l-252 633q-13 34 -32.5 51.5t-52.5 24.5v27h249v-29l-17 -2q-31 -4 -41 -22.5t2 -48.5l161 -413l-12 -36l11 -25l135 338
l-56 135q-13 34 -32.5 51.5t-52.5 24.5v27h249v-29l-17 -2q-31 -4 -40.5 -22.5t1.5 -48.5zM440 765h4l173 93q18 10 25.5 25.5t5.5 30t-14 25.5t-33 11t-35.5 -11.5t-32.5 -37.5z" />
    <glyph glyph-name="Wdieresis" unicode="&#x1e84;" horiz-adv-x="1021" 
d="M701 195l-13 -35l13 -27l163 435q17 46 8 71.5t-49 29.5l-17 2v29h205v-27q-28 -8 -50.5 -29.5t-34.5 -54.5l-240 -625h-2l-162 438l-173 -438h-2l-252 633q-13 34 -32.5 51.5t-52.5 24.5v27h249v-29l-17 -2q-31 -4 -41 -22.5t2 -48.5l161 -413l-12 -36l11 -25l135 338
l-56 135q-13 34 -32.5 51.5t-52.5 24.5v27h249v-29l-17 -2q-31 -4 -40.5 -22.5t1.5 -48.5zM369 805v99h98v-99h-98zM563 805v99h98v-99h-98z" />
    <glyph glyph-name="Wgrave" unicode="&#x1e80;" horiz-adv-x="1021" 
d="M701 195l-13 -35l13 -27l163 435q17 46 8 71.5t-49 29.5l-17 2v29h205v-27q-28 -8 -50.5 -29.5t-34.5 -54.5l-240 -625h-2l-162 438l-173 -438h-2l-252 633q-13 34 -32.5 51.5t-52.5 24.5v27h249v-29l-17 -2q-31 -4 -41 -22.5t2 -48.5l161 -413l-12 -36l11 -25l135 338
l-56 135q-13 34 -32.5 51.5t-52.5 24.5v27h249v-29l-17 -2q-31 -4 -40.5 -22.5t1.5 -48.5zM590 765h-4l-173 93q-18 10 -25.5 25.5t-5.5 30t14 25.5t33 11t35.5 -11.5t32.5 -37.5z" />
    <glyph glyph-name="Wcircumflex" unicode="&#x174;" horiz-adv-x="1021" 
d="M701 195l-13 -35l13 -27l163 435q17 46 8 71.5t-49 29.5l-17 2v29h205v-27q-28 -8 -50.5 -29.5t-34.5 -54.5l-240 -625h-2l-162 438l-173 -438h-2l-252 633q-13 34 -32.5 51.5t-52.5 24.5v27h249v-29l-17 -2q-31 -4 -41 -22.5t2 -48.5l161 -413l-12 -36l11 -25l135 338
l-56 135q-13 34 -32.5 51.5t-52.5 24.5v27h249v-29l-17 -2q-31 -4 -40.5 -22.5t1.5 -48.5zM360 765h-4l104 150h110l104 -150h-4l-158 73l50 35h-36z" />
    <glyph glyph-name="Yacute" unicode="&#xdd;" horiz-adv-x="716" 
d="M369 312l167 254q31 46 19 72.5t-52 30.5l-17 2v29h209v-27q-22 -6 -42.5 -23.5t-42.5 -50.5l-193 -286v-208q0 -34 18 -52.5t53 -21.5l23 -2v-29h-291v29l23 2q35 3 53 21.5t18 52.5v180l-219 328q-18 27 -35.5 41.5t-38.5 18.5v27h251v-29l-25 -3q-30 -4 -37.5 -26.5
t13.5 -53.5l153 -231l-20 -30zM303 765h4l173 93q18 10 25.5 25.5t5.5 30t-14 25.5t-33 11t-35.5 -11.5t-32.5 -37.5z" />
    <glyph glyph-name="Ycircumflex" unicode="&#x176;" horiz-adv-x="716" 
d="M369 312l167 254q31 46 19 72.5t-52 30.5l-17 2v29h209v-27q-22 -6 -42.5 -23.5t-42.5 -50.5l-193 -286v-208q0 -34 18 -52.5t53 -21.5l23 -2v-29h-291v29l23 2q35 3 53 21.5t18 52.5v180l-219 328q-18 27 -35.5 41.5t-38.5 18.5v27h251v-29l-25 -3q-30 -4 -37.5 -26.5
t13.5 -53.5l153 -231l-20 -30zM223 765h-4l104 150h110l104 -150h-4l-158 73l50 35h-36z" />
    <glyph glyph-name="Ydieresis" unicode="&#x178;" horiz-adv-x="716" 
d="M369 312l167 254q31 46 19 72.5t-52 30.5l-17 2v29h209v-27q-22 -6 -42.5 -23.5t-42.5 -50.5l-193 -286v-208q0 -34 18 -52.5t53 -21.5l23 -2v-29h-291v29l23 2q35 3 53 21.5t18 52.5v180l-219 328q-18 27 -35.5 41.5t-38.5 18.5v27h251v-29l-25 -3q-30 -4 -37.5 -26.5
t13.5 -53.5l153 -231l-20 -30zM232 805v99h98v-99h-98zM426 805v99h98v-99h-98z" />
    <glyph glyph-name="Ygrave" unicode="&#x1ef2;" horiz-adv-x="716" 
d="M369 312l167 254q31 46 19 72.5t-52 30.5l-17 2v29h209v-27q-22 -6 -42.5 -23.5t-42.5 -50.5l-193 -286v-208q0 -34 18 -52.5t53 -21.5l23 -2v-29h-291v29l23 2q35 3 53 21.5t18 52.5v180l-219 328q-18 27 -35.5 41.5t-38.5 18.5v27h251v-29l-25 -3q-30 -4 -37.5 -26.5
t13.5 -53.5l153 -231l-20 -30zM453 765h-4l-173 93q-18 10 -25.5 25.5t-5.5 30t14 25.5t33 11t35.5 -11.5t32.5 -37.5z" />
    <glyph glyph-name="Zacute" unicode="&#x179;" horiz-adv-x="610" 
d="M420 640h34l12 19h-223q-58 0 -92.5 -29.5t-52.5 -94.5l-22 -79h-32l12 244h517l-408 -640h-33l-12 -19h263q61 0 100 35t59 108l18 65h33l-32 -249h-548zM236 765h4l173 93q18 10 25.5 25.5t5.5 30t-14 25.5t-33 11t-35.5 -11.5t-32.5 -37.5z" />
    <glyph glyph-name="Zcaron" unicode="&#x17d;" horiz-adv-x="610" 
d="M420 640h34l12 19h-223q-58 0 -92.5 -29.5t-52.5 -94.5l-22 -79h-32l12 244h517l-408 -640h-33l-12 -19h263q61 0 100 35t59 108l18 65h33l-32 -249h-548zM466 928h4l-104 -150h-110l-104 150h4l158 -73l-50 -35h36z" />
    <glyph glyph-name="Zdotaccent" unicode="&#x17b;" horiz-adv-x="610" 
d="M420 640h34l12 19h-223q-58 0 -92.5 -29.5t-52.5 -94.5l-22 -79h-32l12 244h517l-408 -640h-33l-12 -19h263q61 0 100 35t59 108l18 65h33l-32 -249h-548zM262 805v99h98v-99h-98z" />
    <glyph glyph-name="a" unicode="a" horiz-adv-x="501" 
d="M317 59l23 36v27l-10 -15q-46 -69 -82.5 -93t-80.5 -24q-62 0 -97.5 32t-35.5 87q0 49 28.5 78t98.5 53l154 52v46q0 46 -25.5 74.5t-67.5 28.5q-39 0 -68.5 -15t-33.5 -38h31q5 -40 -10.5 -59t-40.5 -19q-19 0 -33 15t-14 37q0 21 13 42t37 38t56.5 27.5t71.5 10.5
q84 0 129.5 -37.5t45.5 -106.5v-254q0 -16 9 -25t23 -9q15 0 26.5 4.5t23.5 15.5l2 -1q-13 -31 -42.5 -52t-57.5 -21q-34 0 -53 17t-20 48zM125 122q0 -35 21 -57t55 -22q31 0 62 23t52 60v134l-103 -36q-47 -17 -67 -40t-20 -62z" />
    <glyph glyph-name="b" unicode="b" horiz-adv-x="550" 
d="M274 -10q-34 0 -63.5 8.5t-56.5 26.5l-75 -36v625q0 20 -9.5 31.5t-36.5 22.5l-36 15l174 42v-306l-31 -46v-31l20 30q37 55 76.5 81.5t86.5 26.5q42 0 78 -17t61.5 -47t40 -71.5t14.5 -90.5q0 -57 -18.5 -105.5t-50.5 -83.5t-77 -55t-97 -20zM280 417q-29 0 -59.5 -20.5
t-49.5 -48.5v-280q22 -17 49 -27.5t52 -10.5q65 0 105 55.5t40 145.5q0 81 -38.5 133.5t-98.5 52.5z" />
    <glyph glyph-name="c" unicode="c" horiz-adv-x="442" 
d="M419 134q-16 -65 -62.5 -104.5t-106.5 -39.5q-48 0 -88.5 17.5t-69.5 49t-45.5 75.5t-16.5 96q0 53 18 99.5t48.5 80.5t72.5 53.5t90 19.5q67 0 115.5 -34.5t48.5 -83.5q0 -22 -14.5 -37t-35.5 -15q-30 0 -43.5 20t-7.5 54h21q-3 25 -27 40t-61 15q-59 0 -93 -49
t-34 -136t41 -144.5t104 -57.5q49 0 82 18.5t62 63.5z" />
    <glyph glyph-name="d" unicode="d" horiz-adv-x="570" 
d="M227 -10q-42 0 -78 17t-61.5 47t-40 71.5t-14.5 90.5q0 57 18.5 105.5t50.5 83.5t77 55t97 20q31 0 56.5 -5.5t46.5 -15.5v155q0 20 -9.5 31.5t-36.5 22.5l-36 15l174 42v-627q0 -26 10.5 -39.5t34.5 -23.5l38 -17l-175 -24v58l31 48v30l-17 -26q-37 -57 -78 -85.5
t-88 -28.5zM133 239q0 -81 38.5 -133.5t98.5 -52.5q29 0 60 20.5t49 48.5v276q-19 18 -47 30t-54 12q-65 0 -105 -55.5t-40 -145.5z" />
    <glyph glyph-name="e" unicode="e" horiz-adv-x="473" 
d="M438 266h-343v-19h32q2 -86 44.5 -140.5t106.5 -54.5q51 0 88.5 20.5t60.5 62.5l2 -1q-13 -65 -59.5 -104.5t-109.5 -39.5q-103 0 -166.5 66t-63.5 173q0 51 17.5 97t47 80t69.5 54t84 20q87 0 140 -60t50 -154zM241 440q-46 0 -75.5 -36.5t-36.5 -102.5h211
q0 60 -28 99.5t-71 39.5z" />
    <glyph glyph-name="f" unicode="f" horiz-adv-x="330" 
d="M94 95v335h-78v40h78v30q0 97 54 157.5t141 60.5q53 0 90 -24.5t37 -60.5q0 -21 -13 -36t-35 -15q-27 0 -41 20t-9 50h20q0 16 -14.5 24.5t-41.5 8.5q-46 0 -71 -30t-25 -84v-101h128v-40h-162v-19h34v-316q0 -31 13.5 -48t39.5 -19l23 -2v-26h-247v26l21 2
q29 3 43.5 19.5t14.5 47.5z" />
    <glyph glyph-name="g" unicode="g" horiz-adv-x="465" 
d="M210 -242q-104 0 -159 28t-55 81q0 29 25 51t95 53l20 9l-24 7l-35 -15q-19 11 -29 27t-10 38q0 37 34.5 71t89.5 53l-19 10l-29 -11q-37 22 -57.5 59t-20.5 83q0 37 15 69.5t40.5 56.5t61 37.5t76.5 13.5q30 0 57.5 -7t49.5 -20q25 34 53 50t59 16q28 0 47 -17t19 -42
q0 -20 -13.5 -34t-32.5 -14q-22 0 -36 17.5t-7 36.5h13v16q-22 0 -39.5 -9.5t-39.5 -34.5q29 -22 45.5 -55.5t16.5 -73.5q0 -37 -15 -70t-41 -56.5t-61 -37.5t-75 -14q-16 0 -31 1.5t-28 4.5q-26 -10 -43 -27t-17 -33q0 -18 17 -28t51 -12l145 -9q80 -4 117 -30.5t37 -77.5
q0 -74 -72.5 -117.5t-194.5 -43.5zM230 167q43 0 69 36.5t26 96.5q0 65 -27 103t-73 38q-43 0 -68 -36t-25 -97q0 -65 26.5 -103t71.5 -38zM231 -202q79 0 124.5 23.5t45.5 64.5q0 21 -13.5 33t-39.5 13l-179 13q-10 1 -20.5 2.5t-18.5 3.5q-30 -16 -44 -34t-14 -38
q0 -38 42 -59.5t117 -21.5z" />
    <glyph glyph-name="h" unicode="h" horiz-adv-x="581" 
d="M160 348l20 27q36 51 79.5 78.5t88.5 27.5q65 0 101.5 -39.5t36.5 -109.5v-237q0 -31 14.5 -47.5t43.5 -19.5l21 -2v-26h-242v26l18 2q27 3 40 19.5t13 47.5v230q0 44 -23.5 68.5t-66.5 24.5q-31 0 -61 -17t-52 -47v-259q0 -31 13 -47.5t40 -19.5l18 -2v-26h-242v26l21 2
q29 3 43.5 19.5t14.5 47.5v518q0 22 -9.5 33.5t-36.5 21.5l-36 15l174 42v-304l-31 -42v-31z" />
    <glyph glyph-name="i" unicode="i" horiz-adv-x="294" 
d="M99 575v99h98v-99h-98zM21 435l174 45v-385q0 -31 14.5 -47.5t43.5 -19.5l21 -2v-26h-250v26l21 2q29 3 43.5 19.5t14.5 47.5v269q0 20 -8.5 30t-37.5 24z" />
    <glyph glyph-name="j" unicode="j" horiz-adv-x="266" 
d="M91 585v99h98v-99h-98zM13 435l174 45v-585q0 -58 -40 -94.5t-104 -36.5q-49 0 -84 23t-35 55q0 20 13 34t31 14q25 0 37.5 -17.5t9.5 -48.5h-19q0 -16 13.5 -23t32.5 -7q26 0 39.5 16.5t13.5 48.5v505q0 20 -8.5 30t-37.5 24z" />
    <glyph glyph-name="k" unicode="k" horiz-adv-x="560" 
d="M410 0l-160 239l-59 -58v-86q0 -31 14.5 -47.5t43.5 -19.5l21 -2v-26h-250v26l21 2q29 3 43.5 19.5t14.5 47.5v519q0 20 -9.5 31.5t-36.5 22.5l-36 15l174 42v-474l-27 -28v-24l180 175q27 25 25 45.5t-31 22.5l-20 2v26h207v-24q-37 -9 -75.5 -29.5t-63.5 -45.5l-71 -69
l146 -210q22 -31 43 -46t51 -22v-24h-145z" />
    <glyph glyph-name="l" unicode="l" horiz-adv-x="290" 
d="M99 614q0 20 -9.5 31.5t-36.5 22.5l-36 15l174 42v-630q0 -31 14.5 -47.5t43.5 -19.5l21 -2v-26h-250v26l21 2q29 3 43.5 19.5t14.5 47.5v519z" />
    <glyph glyph-name="m" unicode="m" horiz-adv-x="872" 
d="M24 0v26l21 2q29 3 43.5 19.5t14.5 47.5v269q0 20 -8.5 30t-37.5 24l-36 17l174 45v-58l-31 -43v-31l17 24q37 53 80 81t89 28q44 0 75.5 -20t44.5 -57l-19 -29v-31l18 27q34 51 80 80.5t92 29.5q64 0 100 -39.5t36 -109.5v-237q0 -31 14.5 -47.5t43.5 -19.5l21 -2v-26
h-242v26l18 2q27 3 40 19.5t13 47.5v230q0 44 -23 68.5t-65 24.5q-30 0 -59.5 -18.5t-52.5 -52.5q1 -3 1 -8.5v-11.5v-232q0 -31 14.5 -47.5t43.5 -19.5l21 -2v-26h-242v26l18 2q27 3 40 19.5t13 47.5v230q0 44 -23 68.5t-65 24.5q-31 0 -60.5 -17t-50.5 -48v-258
q0 -31 13 -47.5t40 -19.5l18 -2v-26h-242z" />
    <glyph glyph-name="n" unicode="n" horiz-adv-x="585" 
d="M103 364q0 20 -8.5 30t-37.5 24l-36 17l174 45v-59l-31 -42v-31l20 27q36 51 79.5 78.5t88.5 27.5q65 0 101.5 -39.5t36.5 -109.5v-237q0 -31 14.5 -47.5t43.5 -19.5l21 -2v-26h-242v26l18 2q27 3 40 19.5t13 47.5v230q0 44 -23.5 68.5t-66.5 24.5q-31 0 -61 -17t-52 -47
v-259q0 -31 13 -47.5t40 -19.5l18 -2v-26h-242v26l21 2q29 3 43.5 19.5t14.5 47.5v269z" />
    <glyph glyph-name="o" unicode="o" horiz-adv-x="516" 
d="M258 481q49 0 91 -18.5t72 -51t47.5 -77t17.5 -96.5t-17.5 -98t-48.5 -79t-72.5 -52.5t-89.5 -19.5q-49 0 -91 18.5t-72 51t-47.5 77t-17.5 96.5q0 53 17.5 98.5t48 79t72.5 52.5t90 19zM252 439q-57 0 -89.5 -51t-32.5 -138q0 -99 36 -159t96 -60q57 0 90.5 51t33.5 138
q0 99 -37 159t-97 60z" />
    <glyph glyph-name="p" unicode="p" horiz-adv-x="567" 
d="M270 -204v-26h-250v26l21 2q29 3 43.5 19.5t14.5 47.5v499q0 20 -8.5 30t-37.5 24l-36 17l174 45v-62l-31 -43v-33l18 27q37 56 78 84t87 28q42 0 78 -17t61.5 -47t40 -71.5t14.5 -90.5q0 -57 -18.5 -105.5t-50.5 -83.5t-77 -55t-97 -20q-31 0 -56.5 5.5t-46.5 15.5v-147
q0 -31 14.5 -47.5t43.5 -19.5zM300 418q-32 0 -61 -19.5t-48 -50.5v-275q19 -18 47 -30t54 -12q65 0 105 55.5t40 145.5q0 81 -38.5 133.5t-98.5 52.5z" />
    <glyph glyph-name="q" unicode="q" horiz-adv-x="550" 
d="M390 97q-33 -49 -74 -78t-89 -29q-42 0 -78 17t-61.5 47t-40 71.5t-14.5 90.5q0 57 18.5 105.5t50.5 83.5t77 55t97 20q34 0 62.5 -8t54.5 -25l78 38v-620q0 -31 14.5 -47.5t43.5 -19.5l21 -2v-26h-250v26l21 2q29 3 43.5 19.5t14.5 47.5v183l31 48v31zM133 239
q0 -81 38.5 -133.5t98.5 -52.5q29 0 60 20.5t49 49.5v279q-22 17 -49 27.5t-52 10.5q-65 0 -105 -55.5t-40 -145.5z" />
    <glyph glyph-name="r" unicode="r" horiz-adv-x="433" 
d="M103 364q0 20 -8.5 30t-37.5 24l-36 17l174 45v-74q-4 -7 -13 -25.5t-12 -25.5v-42q27 75 74 122.5t97 47.5q38 0 58.5 -21.5t21.5 -46.5q1 -30 -15.5 -47t-38.5 -18q-21 -1 -39 14t-18 40q0 6 3 13t6 8h14v17q-23 1 -45 -10.5t-40 -30t-32 -41.5t-21 -45v-220
q0 -30 13.5 -47.5t41.5 -19.5l24 -2v-26h-250v26l21 2q30 3 44 20t14 47v269z" />
    <glyph glyph-name="s" unicode="s" horiz-adv-x="409" 
d="M184 437q-31 0 -50.5 -17.5t-19.5 -46.5q0 -25 15 -42.5t43 -28.5l116 -46q46 -18 70.5 -48t24.5 -71q0 -33 -13 -60t-35 -45.5t-51 -29t-60 -10.5q-49 0 -85 21.5t-67 59.5v-28q7 -8 14 -15t13 -12l-66 -32l-3 183h34l18 -37q22 -46 56.5 -71.5t78.5 -25.5q40 0 64.5 19
t24.5 52q0 25 -19 42t-50 29l-100 38q-48 18 -73.5 49.5t-25.5 74.5q0 63 41.5 101t101.5 38q45 0 79 -20t62 -57v29l-15 15t-15 13l65 25l2 -177h-34l-15 33q-21 47 -53.5 72.5t-72.5 25.5z" />
    <glyph glyph-name="t" unicode="t" horiz-adv-x="328" 
d="M174 411v-304q0 -23 14.5 -36.5t37.5 -13.5q28 0 48 16t34 49l3 -1q-13 -63 -46 -96t-84 -33q-42 0 -70.5 27t-28.5 72v339h-83q47 31 97 89.5t78 117.5v-167h132v-40h-166v-19h34z" />
    <glyph glyph-name="u" unicode="u" horiz-adv-x="581" 
d="M187 480v-334q0 -40 22 -66.5t68 -26.5q37 0 66.5 20t46.5 45v246q0 20 -8.5 30t-37.5 24l-36 17l174 45v-382q0 -26 10.5 -39.5t34.5 -23.5l38 -17l-175 -24v56l31 43v31l-19 -27q-13 -18 -29.5 -37t-37.5 -34.5t-46.5 -25.5t-55.5 -10q-66 0 -102 40.5t-36 108.5v225
q0 20 -8.5 30t-37.5 24l-36 17z" />
    <glyph glyph-name="v" unicode="v" horiz-adv-x="548" 
d="M284 89l122 260q19 40 9.5 64t-46.5 29l-15 2v26h189v-25q-25 -7 -45 -26.5t-35 -50.5l-188 -397h-2l-189 405q-15 31 -32 47t-45 22v25h228v-26l-15 -2q-28 -4 -37.5 -21.5t1.5 -43.5l105 -235l-15 -32z" />
    <glyph glyph-name="w" unicode="w" horiz-adv-x="782" 
d="M277 154l-15 -35l11 -23l97 232l-21 47q-14 34 -29 49.5t-38 20.5v25h211v-27l-15 -2q-25 -4 -33 -21.5t2 -43.5l89 -219l-15 -35l11 -22l105 249q18 42 9 65t-45 27l-16 2v27h186v-25q-25 -7 -46 -26.5t-34 -50.5l-168 -396h-2l-130 302l-129 -302h-2l-173 403
q-13 32 -30.5 47.5t-46.5 22.5v25h222v-27l-16 -2q-25 -4 -32.5 -21.5t2.5 -43.5z" />
    <glyph glyph-name="x" unicode="x" horiz-adv-x="531" 
d="M209 385l61 -75l-24 -26l13 -14l107 111q19 19 16.5 38t-30.5 22l-18 2v27h175v-27q-28 -6 -47 -20.5t-52 -49.5l-103 -109l124 -168q27 -37 44 -51t45 -18v-27h-236v27l17 1q26 1 34.5 17.5t-7.5 38.5l-66 90l23 27l-13 15l-112 -128q-19 -22 -14.5 -40.5t32.5 -19.5
l18 -1v-27h-184v27q28 3 48.5 17.5t51.5 50.5l112 128l-115 150q-24 31 -41 46t-44 24v27h217v-27l-15 -2q-22 -3 -27.5 -19.5t10.5 -36.5z" />
    <glyph glyph-name="y" unicode="y" horiz-adv-x="541" 
d="M201 -67l35 73l-154 370q-13 31 -31 46.5t-46 22.5v25h228v-26l-15 -2q-28 -4 -37 -21t1 -44l94 -241l-15 -33l11 -21l127 267q19 40 9.5 64t-46.5 29l-15 2v26h189v-25q-25 -7 -44.5 -26t-35.5 -51l-234 -483q-29 -60 -67 -89t-87 -29q-34 0 -57 18.5t-24 47.5
q-1 23 12.5 39.5t35.5 17.5q21 1 36.5 -13.5t15.5 -35.5q0 -6 -2.5 -12.5t-5.5 -7.5h-12v-15h13q33 0 61 29.5t60 97.5z" />
    <glyph glyph-name="z" unicode="z" horiz-adv-x="459" 
d="M296 414h30l12 18h-124q-55 0 -87 -22.5t-46 -71.5l-15 -52h-30l6 184h399l-281 -414h-30l-12 -18h138q56 0 90.5 27.5t50.5 83.5l11 40h31l-20 -189h-404z" />
    <glyph glyph-name="aacute" unicode="&#xe1;" horiz-adv-x="501" 
d="M317 59l23 36v27l-10 -15q-46 -69 -82.5 -93t-80.5 -24q-62 0 -97.5 32t-35.5 87q0 49 28.5 78t98.5 53l154 52v46q0 46 -25.5 74.5t-67.5 28.5q-39 0 -68.5 -15t-33.5 -38h31q5 -40 -10.5 -59t-40.5 -19q-19 0 -33 15t-14 37q0 21 13 42t37 38t56.5 27.5t71.5 10.5
q84 0 129.5 -37.5t45.5 -106.5v-254q0 -16 9 -25t23 -9q15 0 26.5 4.5t23.5 15.5l2 -1q-13 -31 -42.5 -52t-57.5 -21q-34 0 -53 17t-20 48zM125 122q0 -35 21 -57t55 -22q31 0 62 23t52 60v134l-103 -36q-47 -17 -67 -40t-20 -62zM153 535h4l173 93q18 10 25.5 25.5t5.5 30
t-14 25.5t-33 11t-35.5 -11.5t-32.5 -37.5z" />
    <glyph glyph-name="abreve" unicode="&#x103;" horiz-adv-x="501" 
d="M317 59l23 36v27l-10 -15q-46 -69 -82.5 -93t-80.5 -24q-62 0 -97.5 32t-35.5 87q0 49 28.5 78t98.5 53l154 52v46q0 46 -25.5 74.5t-67.5 28.5q-39 0 -68.5 -15t-33.5 -38h31q5 -40 -10.5 -59t-40.5 -19q-19 0 -33 15t-14 37q0 21 13 42t37 38t56.5 27.5t71.5 10.5
q84 0 129.5 -37.5t45.5 -106.5v-254q0 -16 9 -25t23 -9q15 0 26.5 4.5t23.5 15.5l2 -1q-13 -31 -42.5 -52t-57.5 -21q-34 0 -53 17t-20 48zM125 122q0 -35 21 -57t55 -22q31 0 62 23t52 60v134l-103 -36q-47 -17 -67 -40t-20 -62zM97 700q11 -30 44.5 -51.5t86.5 -21.5
t86.5 21.5t44.5 51.5h4q3 -72 -37.5 -113.5t-97.5 -41.5t-97.5 41.5t-37.5 113.5h4z" />
    <glyph glyph-name="acircumflex" unicode="&#xe2;" horiz-adv-x="501" 
d="M317 59l23 36v27l-10 -15q-46 -69 -82.5 -93t-80.5 -24q-62 0 -97.5 32t-35.5 87q0 49 28.5 78t98.5 53l154 52v46q0 46 -25.5 74.5t-67.5 28.5q-39 0 -68.5 -15t-33.5 -38h31q5 -40 -10.5 -59t-40.5 -19q-19 0 -33 15t-14 37q0 21 13 42t37 38t56.5 27.5t71.5 10.5
q84 0 129.5 -37.5t45.5 -106.5v-254q0 -16 9 -25t23 -9q15 0 26.5 4.5t23.5 15.5l2 -1q-13 -31 -42.5 -52t-57.5 -21q-34 0 -53 17t-20 48zM125 122q0 -35 21 -57t55 -22q31 0 62 23t52 60v134l-103 -36q-47 -17 -67 -40t-20 -62zM73 535h-4l104 150h110l104 -150h-4
l-158 73l50 35h-36z" />
    <glyph glyph-name="adieresis" unicode="&#xe4;" horiz-adv-x="501" 
d="M317 59l23 36v27l-10 -15q-46 -69 -82.5 -93t-80.5 -24q-62 0 -97.5 32t-35.5 87q0 49 28.5 78t98.5 53l154 52v46q0 46 -25.5 74.5t-67.5 28.5q-39 0 -68.5 -15t-33.5 -38h31q5 -40 -10.5 -59t-40.5 -19q-19 0 -33 15t-14 37q0 21 13 42t37 38t56.5 27.5t71.5 10.5
q84 0 129.5 -37.5t45.5 -106.5v-254q0 -16 9 -25t23 -9q15 0 26.5 4.5t23.5 15.5l2 -1q-13 -31 -42.5 -52t-57.5 -21q-34 0 -53 17t-20 48zM125 122q0 -35 21 -57t55 -22q31 0 62 23t52 60v134l-103 -36q-47 -17 -67 -40t-20 -62zM82 575v99h98v-99h-98zM276 575v99h98v-99
h-98z" />
    <glyph glyph-name="ae" unicode="&#xe6;" horiz-adv-x="755" 
d="M720 266h-343v-19h32q2 -86 44.5 -140.5t106.5 -54.5q51 0 88.5 20.5t60.5 62.5l2 -1q-13 -65 -59.5 -104.5t-109.5 -39.5q-69 0 -122.5 31t-80.5 89q-43 -66 -84 -93t-88 -27q-62 0 -97.5 32t-35.5 87q0 49 28.5 78t98.5 53l154 52v46q0 46 -25.5 74.5t-67.5 28.5
q-39 0 -68.5 -15t-33.5 -38h31q5 -40 -10.5 -59t-40.5 -19q-19 0 -33 15t-14 37q0 21 13 42t37 38t56.5 27.5t71.5 10.5q60 0 97 -17.5t53 -51.5q29 31 67.5 50t81.5 19q87 0 140 -60t50 -154zM523 440q-46 0 -75.5 -36.5t-36.5 -102.5h211q0 60 -28 99.5t-71 39.5zM125 122
q0 -35 21 -57t55 -22q33 0 66.5 26.5t58.5 75.5q-5 19 -8 40t-3 44v31l-103 -36q-47 -17 -67 -40t-20 -62z" />
    <glyph glyph-name="agrave" unicode="&#xe0;" horiz-adv-x="501" 
d="M317 59l23 36v27l-10 -15q-46 -69 -82.5 -93t-80.5 -24q-62 0 -97.5 32t-35.5 87q0 49 28.5 78t98.5 53l154 52v46q0 46 -25.5 74.5t-67.5 28.5q-39 0 -68.5 -15t-33.5 -38h31q5 -40 -10.5 -59t-40.5 -19q-19 0 -33 15t-14 37q0 21 13 42t37 38t56.5 27.5t71.5 10.5
q84 0 129.5 -37.5t45.5 -106.5v-254q0 -16 9 -25t23 -9q15 0 26.5 4.5t23.5 15.5l2 -1q-13 -31 -42.5 -52t-57.5 -21q-34 0 -53 17t-20 48zM125 122q0 -35 21 -57t55 -22q31 0 62 23t52 60v134l-103 -36q-47 -17 -67 -40t-20 -62zM303 535h-4l-173 93q-18 10 -25.5 25.5
t-5.5 30t14 25.5t33 11t35.5 -11.5t32.5 -37.5z" />
    <glyph glyph-name="amacron" unicode="&#x101;" horiz-adv-x="501" 
d="M317 59l23 36v27l-10 -15q-46 -69 -82.5 -93t-80.5 -24q-62 0 -97.5 32t-35.5 87q0 49 28.5 78t98.5 53l154 52v46q0 46 -25.5 74.5t-67.5 28.5q-39 0 -68.5 -15t-33.5 -38h31q5 -40 -10.5 -59t-40.5 -19q-19 0 -33 15t-14 37q0 21 13 42t37 38t56.5 27.5t71.5 10.5
q84 0 129.5 -37.5t45.5 -106.5v-254q0 -16 9 -25t23 -9q15 0 26.5 4.5t23.5 15.5l2 -1q-13 -31 -42.5 -52t-57.5 -21q-34 0 -53 17t-20 48zM125 122q0 -35 21 -57t55 -22q31 0 62 23t52 60v134l-103 -36q-47 -17 -67 -40t-20 -62zM75 650h306v-60h-306v60z" />
    <glyph glyph-name="aogonek" unicode="&#x105;" horiz-adv-x="501" 
d="M317 59l23 36v27l-10 -15q-46 -69 -82.5 -93t-80.5 -24q-62 0 -97.5 32t-35.5 87q0 49 28.5 78t98.5 53l154 52v46q0 46 -25.5 74.5t-67.5 28.5q-39 0 -68.5 -15t-33.5 -38h31q5 -40 -10.5 -59t-40.5 -19q-19 0 -33 15t-14 37q0 21 13 42t37 38t56.5 27.5t71.5 10.5
q84 0 129.5 -37.5t45.5 -106.5v-254q0 -16 9 -25t23 -9q15 0 26.5 4.5t23.5 15.5l2 -1q-9 -22 -27 -39t-38 -26l-8 -4q-51 -25 -72.5 -57.5t-21.5 -57.5q0 -22 14.5 -35t39.5 -13q16 0 27.5 5t24.5 13l3 -3q-13 -28 -37.5 -42.5t-53.5 -14.5q-38 0 -59 20.5t-21 51.5
q0 34 29 69.5t82 60.5q-25 4 -39.5 21t-15.5 43zM125 122q0 -35 21 -57t55 -22q31 0 62 23t52 60v134l-103 -36q-47 -17 -67 -40t-20 -62z" />
    <glyph glyph-name="aring" unicode="&#xe5;" horiz-adv-x="501" 
d="M317 59l23 36v27l-10 -15q-46 -69 -82.5 -93t-80.5 -24q-62 0 -97.5 32t-35.5 87q0 49 28.5 78t98.5 53l154 52v46q0 46 -25.5 74.5t-67.5 28.5q-39 0 -68.5 -15t-33.5 -38h31q5 -40 -10.5 -59t-40.5 -19q-19 0 -33 15t-14 37q0 21 13 42t37 38t56.5 27.5t71.5 10.5
q84 0 129.5 -37.5t45.5 -106.5v-254q0 -16 9 -25t23 -9q15 0 26.5 4.5t23.5 15.5l2 -1q-13 -31 -42.5 -52t-57.5 -21q-34 0 -53 17t-20 48zM125 122q0 -35 21 -57t55 -22q31 0 62 23t52 60v134l-103 -36q-47 -17 -67 -40t-20 -62zM228 710q41 0 70 -26.5t29 -68.5
q0 -38 -28.5 -65t-70.5 -27t-70.5 27t-28.5 65q0 42 29 68.5t70 26.5zM228 558q28 0 43.5 17.5t15.5 39.5q0 25 -15.5 42t-43.5 17t-43.5 -17t-15.5 -42q0 -22 15.5 -39.5t43.5 -17.5z" />
    <glyph glyph-name="atilde" unicode="&#xe3;" horiz-adv-x="501" 
d="M317 59l23 36v27l-10 -15q-46 -69 -82.5 -93t-80.5 -24q-62 0 -97.5 32t-35.5 87q0 49 28.5 78t98.5 53l154 52v46q0 46 -25.5 74.5t-67.5 28.5q-39 0 -68.5 -15t-33.5 -38h31q5 -40 -10.5 -59t-40.5 -19q-19 0 -33 15t-14 37q0 21 13 42t37 38t56.5 27.5t71.5 10.5
q84 0 129.5 -37.5t45.5 -106.5v-254q0 -16 9 -25t23 -9q15 0 26.5 4.5t23.5 15.5l2 -1q-13 -31 -42.5 -52t-57.5 -21q-34 0 -53 17t-20 48zM125 122q0 -35 21 -57t55 -22q31 0 62 23t52 60v134l-103 -36q-47 -17 -67 -40t-20 -62zM405 694h4q-23 -75 -50 -109.5t-64 -34.5
q-18 0 -39.5 10t-43.5 22.5t-43.5 22.5t-39.5 10t-37 -13.5t-41 -51.5h-4q23 76 50 110.5t64 34.5q19 0 41 -10t44 -22.5t43 -22.5t38 -10q18 0 37 13.5t41 50.5z" />
    <glyph glyph-name="cacute" unicode="&#x107;" horiz-adv-x="442" 
d="M419 134q-16 -65 -62.5 -104.5t-106.5 -39.5q-48 0 -88.5 17.5t-69.5 49t-45.5 75.5t-16.5 96q0 53 18 99.5t48.5 80.5t72.5 53.5t90 19.5q67 0 115.5 -34.5t48.5 -83.5q0 -22 -14.5 -37t-35.5 -15q-30 0 -43.5 20t-7.5 54h21q-3 25 -27 40t-61 15q-59 0 -93 -49
t-34 -136t41 -144.5t104 -57.5q49 0 82 18.5t62 63.5zM182 535h4l173 93q18 10 25.5 25.5t5.5 30t-14 25.5t-33 11t-35.5 -11.5t-32.5 -37.5z" />
    <glyph glyph-name="ccaron" unicode="&#x10d;" horiz-adv-x="442" 
d="M419 134q-16 -65 -62.5 -104.5t-106.5 -39.5q-48 0 -88.5 17.5t-69.5 49t-45.5 75.5t-16.5 96q0 53 18 99.5t48.5 80.5t72.5 53.5t90 19.5q67 0 115.5 -34.5t48.5 -83.5q0 -22 -14.5 -37t-35.5 -15q-30 0 -43.5 20t-7.5 54h21q-3 25 -27 40t-61 15q-59 0 -93 -49
t-34 -136t41 -144.5t104 -57.5q49 0 82 18.5t62 63.5zM412 698h4l-104 -150h-110l-104 150h4l158 -73l-50 -35h36z" />
    <glyph glyph-name="ccedilla" unicode="&#xe7;" horiz-adv-x="442" 
d="M169 -189v4q46 -3 69.5 7.5t23.5 29.5q0 10 -6.5 19.5t-22.5 19.5l-48 29l43 71q-87 7 -142.5 73t-55.5 164q0 53 18 99.5t48.5 80.5t72.5 53.5t90 19.5q67 0 115.5 -34.5t48.5 -83.5q0 -22 -14.5 -37t-35.5 -15q-30 0 -43.5 20t-7.5 54h21q-3 25 -27 40t-61 15
q-59 0 -93 -49t-34 -136t41 -144.5t104 -57.5q49 0 82 18.5t62 63.5l2 -1q-16 -62 -58.5 -101t-98.5 -43l-32 -55l19 -11l17 29l7 -4q43 -24 53.5 -44t10.5 -36q0 -31 -29.5 -52.5t-74.5 -21.5q-19 0 -36 4.5t-28 11.5z" />
    <glyph glyph-name="ccircumflex" unicode="&#x109;" horiz-adv-x="442" 
d="M419 134q-16 -65 -62.5 -104.5t-106.5 -39.5q-48 0 -88.5 17.5t-69.5 49t-45.5 75.5t-16.5 96q0 53 18 99.5t48.5 80.5t72.5 53.5t90 19.5q67 0 115.5 -34.5t48.5 -83.5q0 -22 -14.5 -37t-35.5 -15q-30 0 -43.5 20t-7.5 54h21q-3 25 -27 40t-61 15q-59 0 -93 -49
t-34 -136t41 -144.5t104 -57.5q49 0 82 18.5t62 63.5zM102 535h-4l104 150h110l104 -150h-4l-158 73l50 35h-36z" />
    <glyph glyph-name="cdotaccent" unicode="&#x10b;" horiz-adv-x="442" 
d="M419 134q-16 -65 -62.5 -104.5t-106.5 -39.5q-48 0 -88.5 17.5t-69.5 49t-45.5 75.5t-16.5 96q0 53 18 99.5t48.5 80.5t72.5 53.5t90 19.5q67 0 115.5 -34.5t48.5 -83.5q0 -22 -14.5 -37t-35.5 -15q-30 0 -43.5 20t-7.5 54h21q-3 25 -27 40t-61 15q-59 0 -93 -49
t-34 -136t41 -144.5t104 -57.5q49 0 82 18.5t62 63.5zM208 575v99h98v-99h-98z" />
    <glyph glyph-name="dcaron" unicode="&#x10f;" horiz-adv-x="570" 
d="M227 -10q-42 0 -78 17t-61.5 47t-40 71.5t-14.5 90.5q0 57 18.5 105.5t50.5 83.5t77 55t97 20q31 0 56.5 -5.5t46.5 -15.5v155q0 20 -9.5 31.5t-36.5 22.5l-36 15l174 42v-627q0 -26 10.5 -39.5t34.5 -23.5l38 -17l-175 -24v58l31 48v30l-17 -26q-37 -57 -78 -85.5
t-88 -28.5zM133 239q0 -81 38.5 -133.5t98.5 -52.5q29 0 60 20.5t49 48.5v276q-19 18 -47 30t-54 12q-65 0 -105 -55.5t-40 -145.5zM532 496l-3 6q37 16 58.5 48.5t21.5 72.5v19h-18v-40q-1 -1 -6.5 -2.5t-11.5 -1.5q-22 0 -38 16t-16 38q0 25 18 41.5t46 16.5
q31 0 50 -20.5t19 -55.5q0 -46 -32 -84t-88 -54z" />
    <glyph glyph-name="dcroat" unicode="&#x111;" horiz-adv-x="570" 
d="M413 545h-166v40h132v28q0 22 -9.5 33.5t-36.5 21.5l-36 15l174 42v-140h83v-40h-83v-447q0 -26 10.5 -39.5t34.5 -23.5l38 -17l-175 -24v58l31 48v30l-17 -26q-37 -57 -78 -85.5t-88 -28.5q-42 0 -78 17t-61.5 47t-40 71.5t-14.5 90.5q0 57 18.5 105.5t50.5 83.5t77 55
t97 20q31 0 56.5 -5.5t46.5 -15.5v67h34v19zM133 239q0 -81 38.5 -133.5t98.5 -52.5q29 0 60 20.5t49 48.5v276q-19 18 -47 30t-54 12q-65 0 -105 -55.5t-40 -145.5z" />
    <glyph glyph-name="dotlessi" unicode="&#x131;" horiz-adv-x="294" 
d="M21 435l174 45v-385q0 -31 14.5 -47.5t43.5 -19.5l21 -2v-26h-250v26l21 2q29 3 43.5 19.5t14.5 47.5v269q0 20 -8.5 30t-37.5 24z" />
    <glyph glyph-name="uni0237" unicode="&#x237;" horiz-adv-x="266" 
d="M13 435l174 45v-585q0 -58 -40 -94.5t-104 -36.5q-49 0 -84 23t-35 55q0 20 13 34t31 14q25 0 37.5 -17.5t9.5 -48.5h-19q0 -16 13.5 -23t32.5 -7q26 0 39.5 16.5t13.5 48.5v505q0 20 -8.5 30t-37.5 24z" />
    <glyph glyph-name="eacute" unicode="&#xe9;" horiz-adv-x="473" 
d="M438 266h-343v-19h32q2 -86 44.5 -140.5t106.5 -54.5q51 0 88.5 20.5t60.5 62.5l2 -1q-13 -65 -59.5 -104.5t-109.5 -39.5q-103 0 -166.5 66t-63.5 173q0 51 17.5 97t47 80t69.5 54t84 20q87 0 140 -60t50 -154zM241 440q-46 0 -75.5 -36.5t-36.5 -102.5h211
q0 60 -28 99.5t-71 39.5zM166 535h4l173 93q18 10 25.5 25.5t5.5 30t-14 25.5t-33 11t-35.5 -11.5t-32.5 -37.5z" />
    <glyph glyph-name="ebreve" unicode="&#x115;" horiz-adv-x="473" 
d="M438 266h-343v-19h32q2 -86 44.5 -140.5t106.5 -54.5q51 0 88.5 20.5t60.5 62.5l2 -1q-13 -65 -59.5 -104.5t-109.5 -39.5q-103 0 -166.5 66t-63.5 173q0 51 17.5 97t47 80t69.5 54t84 20q87 0 140 -60t50 -154zM241 440q-46 0 -75.5 -36.5t-36.5 -102.5h211
q0 60 -28 99.5t-71 39.5zM110 700q11 -30 44.5 -51.5t86.5 -21.5t86.5 21.5t44.5 51.5h4q3 -72 -37.5 -113.5t-97.5 -41.5t-97.5 41.5t-37.5 113.5h4z" />
    <glyph glyph-name="ecaron" unicode="&#x11b;" horiz-adv-x="473" 
d="M438 266h-343v-19h32q2 -86 44.5 -140.5t106.5 -54.5q51 0 88.5 20.5t60.5 62.5l2 -1q-13 -65 -59.5 -104.5t-109.5 -39.5q-103 0 -166.5 66t-63.5 173q0 51 17.5 97t47 80t69.5 54t84 20q87 0 140 -60t50 -154zM241 440q-46 0 -75.5 -36.5t-36.5 -102.5h211
q0 60 -28 99.5t-71 39.5zM396 698h4l-104 -150h-110l-104 150h4l158 -73l-50 -35h36z" />
    <glyph glyph-name="ecircumflex" unicode="&#xea;" horiz-adv-x="473" 
d="M438 266h-343v-19h32q2 -86 44.5 -140.5t106.5 -54.5q51 0 88.5 20.5t60.5 62.5l2 -1q-13 -65 -59.5 -104.5t-109.5 -39.5q-103 0 -166.5 66t-63.5 173q0 51 17.5 97t47 80t69.5 54t84 20q87 0 140 -60t50 -154zM241 440q-46 0 -75.5 -36.5t-36.5 -102.5h211
q0 60 -28 99.5t-71 39.5zM86 535h-4l104 150h110l104 -150h-4l-158 73l50 35h-36z" />
    <glyph glyph-name="edieresis" unicode="&#xeb;" horiz-adv-x="473" 
d="M438 266h-343v-19h32q2 -86 44.5 -140.5t106.5 -54.5q51 0 88.5 20.5t60.5 62.5l2 -1q-13 -65 -59.5 -104.5t-109.5 -39.5q-103 0 -166.5 66t-63.5 173q0 51 17.5 97t47 80t69.5 54t84 20q87 0 140 -60t50 -154zM241 440q-46 0 -75.5 -36.5t-36.5 -102.5h211
q0 60 -28 99.5t-71 39.5zM95 575v99h98v-99h-98zM289 575v99h98v-99h-98z" />
    <glyph glyph-name="edotaccent" unicode="&#x117;" horiz-adv-x="473" 
d="M438 266h-343v-19h32q2 -86 44.5 -140.5t106.5 -54.5q51 0 88.5 20.5t60.5 62.5l2 -1q-13 -65 -59.5 -104.5t-109.5 -39.5q-103 0 -166.5 66t-63.5 173q0 51 17.5 97t47 80t69.5 54t84 20q87 0 140 -60t50 -154zM241 440q-46 0 -75.5 -36.5t-36.5 -102.5h211
q0 60 -28 99.5t-71 39.5zM192 575v99h98v-99h-98z" />
    <glyph glyph-name="egrave" unicode="&#xe8;" horiz-adv-x="473" 
d="M438 266h-343v-19h32q2 -86 44.5 -140.5t106.5 -54.5q51 0 88.5 20.5t60.5 62.5l2 -1q-13 -65 -59.5 -104.5t-109.5 -39.5q-103 0 -166.5 66t-63.5 173q0 51 17.5 97t47 80t69.5 54t84 20q87 0 140 -60t50 -154zM241 440q-46 0 -75.5 -36.5t-36.5 -102.5h211
q0 60 -28 99.5t-71 39.5zM316 535h-4l-173 93q-18 10 -25.5 25.5t-5.5 30t14 25.5t33 11t35.5 -11.5t32.5 -37.5z" />
    <glyph glyph-name="emacron" unicode="&#x113;" horiz-adv-x="473" 
d="M438 266h-343v-19h32q2 -86 44.5 -140.5t106.5 -54.5q51 0 88.5 20.5t60.5 62.5l2 -1q-13 -65 -59.5 -104.5t-109.5 -39.5q-103 0 -166.5 66t-63.5 173q0 51 17.5 97t47 80t69.5 54t84 20q87 0 140 -60t50 -154zM241 440q-46 0 -75.5 -36.5t-36.5 -102.5h211
q0 60 -28 99.5t-71 39.5zM88 650h306v-60h-306v60z" />
    <glyph glyph-name="eng" unicode="&#x14b;" horiz-adv-x="557" 
d="M490 332v-437q0 -58 -40 -94.5t-104 -36.5q-49 0 -84 23t-35 55q0 20 13 34t31 14q25 0 37.5 -17.5t9.5 -48.5h-19q0 -16 13.5 -23t32.5 -7q26 0 39.5 16.5t13.5 48.5v466q0 44 -23.5 68.5t-66.5 24.5q-31 0 -61 -17t-52 -47v-259q0 -31 13 -47.5t40 -19.5l18 -2v-26
h-242v26l21 2q29 3 43.5 19.5t14.5 47.5v269q0 20 -8.5 30t-37.5 24l-36 17l174 45v-59l-31 -42v-31l20 27q36 51 79.5 78.5t88.5 27.5q65 0 101.5 -39.5t36.5 -109.5z" />
    <glyph glyph-name="eogonek" unicode="&#x119;" horiz-adv-x="473" 
d="M333 -147l3 -3q-13 -28 -37.5 -42.5t-53.5 -14.5q-38 0 -59 20.5t-21 51.5q0 32 26 66t75 59h-6q-103 0 -166.5 66t-63.5 173q0 51 17.5 97t47 80t69.5 54t84 20q87 0 140 -60t50 -154h-343v-19h32q2 -86 44.5 -140.5t106.5 -54.5q51 0 88.5 20.5t60.5 62.5l2 -1
q-9 -46 -35.5 -79.5t-63.5 -49.5l3 -1l-12 -6q-51 -25 -72.5 -57.5t-21.5 -57.5q0 -22 14.5 -35t39.5 -13q16 0 27.5 5t24.5 13zM241 440q-46 0 -75.5 -36.5t-36.5 -102.5h211q0 60 -28 99.5t-71 39.5z" />
    <glyph glyph-name="eth" unicode="&#xf0;" horiz-adv-x="516" 
d="M145 502l-16 36l147 56q-35 42 -74 68t-73 36l3 12q51 -14 99 -39.5t88 -59.5l155 60l16 -36zM486 277q0 -64 -16.5 -117t-46.5 -91t-72 -59t-93 -21q-49 0 -91 18.5t-72 51t-47.5 77t-17.5 96.5q0 51 17.5 97t47.5 79.5t71 53t88 19.5q31 0 58.5 -10.5t50.5 -29.5
q-10 29 -23.5 55.5t-28.5 48.5l54 21q56 -60 88.5 -135.5t32.5 -153.5zM396 248q0 29 -3 57t-7 53q-22 44 -55 62.5t-66 18.5q-66 0 -100.5 -49.5t-34.5 -139.5q0 -99 36 -159t96 -60q62 0 98 58.5t36 158.5z" />
    <glyph glyph-name="gbreve" unicode="&#x11f;" horiz-adv-x="465" 
d="M210 -242q-104 0 -159 28t-55 81q0 29 25 51t95 53l20 9l-24 7l-35 -15q-19 11 -29 27t-10 38q0 37 34.5 71t89.5 53l-19 10l-29 -11q-37 22 -57.5 59t-20.5 83q0 37 15 69.5t40.5 56.5t61 37.5t76.5 13.5q30 0 57.5 -7t49.5 -20q25 34 53 50t59 16q28 0 47 -17t19 -42
q0 -20 -13.5 -34t-32.5 -14q-22 0 -36 17.5t-7 36.5h13v16q-22 0 -39.5 -9.5t-39.5 -34.5q29 -22 45.5 -55.5t16.5 -73.5q0 -37 -15 -70t-41 -56.5t-61 -37.5t-75 -14q-16 0 -31 1.5t-28 4.5q-26 -10 -43 -27t-17 -33q0 -18 17 -28t51 -12l145 -9q80 -4 117 -30.5t37 -77.5
q0 -74 -72.5 -117.5t-194.5 -43.5zM230 167q43 0 69 36.5t26 96.5q0 65 -27 103t-73 38q-43 0 -68 -36t-25 -97q0 -65 26.5 -103t71.5 -38zM231 -202q79 0 124.5 23.5t45.5 64.5q0 21 -13.5 33t-39.5 13l-179 13q-10 1 -20.5 2.5t-18.5 3.5q-30 -16 -44 -34t-14 -38
q0 -38 42 -59.5t117 -21.5zM99 700q11 -30 44.5 -51.5t86.5 -21.5t86.5 21.5t44.5 51.5h4q3 -72 -37.5 -113.5t-97.5 -41.5t-97.5 41.5t-37.5 113.5h4z" />
    <glyph glyph-name="gcircumflex" unicode="&#x11d;" horiz-adv-x="465" 
d="M210 -242q-104 0 -159 28t-55 81q0 29 25 51t95 53l20 9l-24 7l-35 -15q-19 11 -29 27t-10 38q0 37 34.5 71t89.5 53l-19 10l-29 -11q-37 22 -57.5 59t-20.5 83q0 37 15 69.5t40.5 56.5t61 37.5t76.5 13.5q30 0 57.5 -7t49.5 -20q25 34 53 50t59 16q28 0 47 -17t19 -42
q0 -20 -13.5 -34t-32.5 -14q-22 0 -36 17.5t-7 36.5h13v16q-22 0 -39.5 -9.5t-39.5 -34.5q29 -22 45.5 -55.5t16.5 -73.5q0 -37 -15 -70t-41 -56.5t-61 -37.5t-75 -14q-16 0 -31 1.5t-28 4.5q-26 -10 -43 -27t-17 -33q0 -18 17 -28t51 -12l145 -9q80 -4 117 -30.5t37 -77.5
q0 -74 -72.5 -117.5t-194.5 -43.5zM230 167q43 0 69 36.5t26 96.5q0 65 -27 103t-73 38q-43 0 -68 -36t-25 -97q0 -65 26.5 -103t71.5 -38zM231 -202q79 0 124.5 23.5t45.5 64.5q0 21 -13.5 33t-39.5 13l-179 13q-10 1 -20.5 2.5t-18.5 3.5q-30 -16 -44 -34t-14 -38
q0 -38 42 -59.5t117 -21.5zM75 535h-4l104 150h110l104 -150h-4l-158 73l50 35h-36z" />
    <glyph glyph-name="uni0123" unicode="&#x123;" horiz-adv-x="465" 
d="M301 792l3 -6q-37 -16 -58.5 -48.5t-21.5 -72.5v-19h18v40q1 1 6.5 2.5t11.5 1.5q22 0 38 -16t16 -38q0 -25 -18 -41.5t-46 -16.5q-31 0 -50 20.5t-19 55.5q0 46 32 84t88 54zM210 -242q-104 0 -159 28t-55 81q0 29 25 51t95 53l20 9l-24 7l-35 -15q-19 11 -29 27t-10 38
q0 37 34.5 71t89.5 53l-19 10l-29 -11q-37 22 -57.5 59t-20.5 83q0 37 15 69.5t40.5 56.5t61 37.5t76.5 13.5q30 0 57.5 -7t49.5 -20q25 34 53 50t59 16q28 0 47 -17t19 -42q0 -20 -13.5 -34t-32.5 -14q-22 0 -36 17.5t-7 36.5h13v16q-22 0 -39.5 -9.5t-39.5 -34.5
q29 -22 45.5 -55.5t16.5 -73.5q0 -37 -15 -70t-41 -56.5t-61 -37.5t-75 -14q-16 0 -31 1.5t-28 4.5q-26 -10 -43 -27t-17 -33q0 -18 17 -28t51 -12l145 -9q80 -4 117 -30.5t37 -77.5q0 -74 -72.5 -117.5t-194.5 -43.5zM230 167q43 0 69 36.5t26 96.5q0 65 -27 103t-73 38
q-43 0 -68 -36t-25 -97q0 -65 26.5 -103t71.5 -38zM231 -202q79 0 124.5 23.5t45.5 64.5q0 21 -13.5 33t-39.5 13l-179 13q-10 1 -20.5 2.5t-18.5 3.5q-30 -16 -44 -34t-14 -38q0 -38 42 -59.5t117 -21.5z" />
    <glyph glyph-name="gdotaccent" unicode="&#x121;" horiz-adv-x="465" 
d="M210 -242q-104 0 -159 28t-55 81q0 29 25 51t95 53l20 9l-24 7l-35 -15q-19 11 -29 27t-10 38q0 37 34.5 71t89.5 53l-19 10l-29 -11q-37 22 -57.5 59t-20.5 83q0 37 15 69.5t40.5 56.5t61 37.5t76.5 13.5q30 0 57.5 -7t49.5 -20q25 34 53 50t59 16q28 0 47 -17t19 -42
q0 -20 -13.5 -34t-32.5 -14q-22 0 -36 17.5t-7 36.5h13v16q-22 0 -39.5 -9.5t-39.5 -34.5q29 -22 45.5 -55.5t16.5 -73.5q0 -37 -15 -70t-41 -56.5t-61 -37.5t-75 -14q-16 0 -31 1.5t-28 4.5q-26 -10 -43 -27t-17 -33q0 -18 17 -28t51 -12l145 -9q80 -4 117 -30.5t37 -77.5
q0 -74 -72.5 -117.5t-194.5 -43.5zM230 167q43 0 69 36.5t26 96.5q0 65 -27 103t-73 38q-43 0 -68 -36t-25 -97q0 -65 26.5 -103t71.5 -38zM231 -202q79 0 124.5 23.5t45.5 64.5q0 21 -13.5 33t-39.5 13l-179 13q-10 1 -20.5 2.5t-18.5 3.5q-30 -16 -44 -34t-14 -38
q0 -38 42 -59.5t117 -21.5zM181 575v99h98v-99h-98z" />
    <glyph glyph-name="germandbls" unicode="&#xdf;" horiz-adv-x="599" 
d="M396 450q-19 -19 -25 -29.5t-6 -19.5q0 -13 8.5 -22t29.5 -25l79 -60q43 -32 67 -67.5t24 -78.5q0 -67 -49.5 -111.5t-124.5 -44.5q-69 0 -117 36t-48 88q0 27 14.5 43t37.5 16q28 0 41.5 -20t7.5 -54h-28q4 -31 30.5 -48.5t68.5 -17.5q40 0 65 22.5t25 59.5
q0 26 -17.5 48.5t-45.5 44.5l-101 79q-22 18 -34 36.5t-12 42.5q0 19 10.5 37t39.5 49t44.5 61.5t15.5 68.5q0 46 -27 73.5t-73 27.5q-56 0 -83 -28t-27 -86v-571h-171v26l21 2q29 3 43.5 19.5t14.5 47.5v316h34v19h-112v40h78v30q0 101 56 159.5t152 58.5q81 0 130.5 -35
t49.5 -89q0 -39 -21 -69.5t-65 -74.5z" />
    <glyph glyph-name="hbar" unicode="&#x127;" horiz-adv-x="581" 
d="M133 545h-117v40h83v28q0 22 -9.5 33.5t-36.5 21.5l-36 15l174 42v-140h132v-40h-132v-124l-31 -42v-31l20 27q36 51 79.5 78.5t88.5 27.5q65 0 101.5 -39.5t36.5 -109.5v-237q0 -31 14.5 -47.5t43.5 -19.5l21 -2v-26h-242v26l18 2q27 3 40 19.5t13 47.5v230
q0 44 -23.5 68.5t-66.5 24.5q-31 0 -61 -17t-52 -47v-259q0 -31 13 -47.5t40 -19.5l18 -2v-26h-242v26l21 2q29 3 43.5 19.5t14.5 47.5v431h34v19z" />
    <glyph glyph-name="hcircumflex" unicode="&#x125;" horiz-adv-x="581" 
d="M160 348l20 27q36 51 79.5 78.5t88.5 27.5q65 0 101.5 -39.5t36.5 -109.5v-237q0 -31 14.5 -47.5t43.5 -19.5l21 -2v-26h-242v26l18 2q27 3 40 19.5t13 47.5v230q0 44 -23.5 68.5t-66.5 24.5q-31 0 -61 -17t-52 -47v-259q0 -31 13 -47.5t40 -19.5l18 -2v-26h-242v26l21 2
q29 3 43.5 19.5t14.5 47.5v518q0 22 -9.5 33.5t-36.5 21.5l-36 15l174 42v-304l-31 -42v-31zM-8 765h-4l104 150h110l104 -150h-4l-158 73l50 35h-36z" />
    <glyph glyph-name="iacute" unicode="&#xed;" horiz-adv-x="294" 
d="M21 435l174 45v-385q0 -31 14.5 -47.5t43.5 -19.5l21 -2v-26h-250v26l21 2q29 3 43.5 19.5t14.5 47.5v269q0 20 -8.5 30t-37.5 24zM73 535h4l173 93q18 10 25.5 25.5t5.5 30t-14 25.5t-33 11t-35.5 -11.5t-32.5 -37.5z" />
    <glyph glyph-name="ibreve" unicode="&#x12d;" horiz-adv-x="294" 
d="M21 435l174 45v-385q0 -31 14.5 -47.5t43.5 -19.5l21 -2v-26h-250v26l21 2q29 3 43.5 19.5t14.5 47.5v269q0 20 -8.5 30t-37.5 24zM17 700q11 -30 44.5 -51.5t86.5 -21.5t86.5 21.5t44.5 51.5h4q3 -72 -37.5 -113.5t-97.5 -41.5t-97.5 41.5t-37.5 113.5h4z" />
    <glyph glyph-name="icircumflex" unicode="&#xee;" horiz-adv-x="294" 
d="M21 435l174 45v-385q0 -31 14.5 -47.5t43.5 -19.5l21 -2v-26h-250v26l21 2q29 3 43.5 19.5t14.5 47.5v269q0 20 -8.5 30t-37.5 24zM-7 535h-4l104 150h110l104 -150h-4l-158 73l50 35h-36z" />
    <glyph glyph-name="idieresis" unicode="&#xef;" horiz-adv-x="294" 
d="M21 435l174 45v-385q0 -31 14.5 -47.5t43.5 -19.5l21 -2v-26h-250v26l21 2q29 3 43.5 19.5t14.5 47.5v269q0 20 -8.5 30t-37.5 24zM2 575v99h98v-99h-98zM196 575v99h98v-99h-98z" />
    <glyph glyph-name="idotaccent" unicode="&#xe785;" horiz-adv-x="294" 
d="M21 435l174 45v-385q0 -31 14.5 -47.5t43.5 -19.5l21 -2v-26h-250v26l21 2q29 3 43.5 19.5t14.5 47.5v269q0 20 -8.5 30t-37.5 24zM99 575v99h98v-99h-98z" />
    <glyph glyph-name="igrave" unicode="&#xec;" horiz-adv-x="294" 
d="M21 435l174 45v-385q0 -31 14.5 -47.5t43.5 -19.5l21 -2v-26h-250v26l21 2q29 3 43.5 19.5t14.5 47.5v269q0 20 -8.5 30t-37.5 24zM223 535h-4l-173 93q-18 10 -25.5 25.5t-5.5 30t14 25.5t33 11t35.5 -11.5t32.5 -37.5z" />
    <glyph glyph-name="ij" unicode="&#x133;" horiz-adv-x="560" 
d="M99 575v99h98v-99h-98zM21 435l174 45v-385q0 -31 14.5 -47.5t43.5 -19.5l21 -2v-26h-250v26l21 2q29 3 43.5 19.5t14.5 47.5v269q0 20 -8.5 30t-37.5 24zM385 585v99h98v-99h-98zM307 435l174 45v-585q0 -58 -40 -94.5t-104 -36.5q-49 0 -84 23t-35 55q0 20 13 34t31 14
q25 0 37.5 -17.5t9.5 -48.5h-19q0 -16 13.5 -23t32.5 -7q26 0 39.5 16.5t13.5 48.5v505q0 20 -8.5 30t-37.5 24z" />
    <glyph glyph-name="imacron" unicode="&#x12b;" horiz-adv-x="294" 
d="M21 435l174 45v-385q0 -31 14.5 -47.5t43.5 -19.5l21 -2v-26h-250v26l21 2q29 3 43.5 19.5t14.5 47.5v269q0 20 -8.5 30t-37.5 24zM-5 650h306v-60h-306v60z" />
    <glyph glyph-name="iogonek" unicode="&#x12f;" horiz-adv-x="294" 
d="M99 575v99h98v-99h-98zM274 -151l3 -3q-13 -28 -37.5 -42.5t-53.5 -14.5q-38 0 -59 20.5t-21 51.5q0 38 35.5 77.5t96.5 61.5h-214v26l21 2q29 3 43.5 19.5t14.5 47.5v269q0 20 -8.5 30t-37.5 24l-36 17l174 45v-385q0 -31 14.5 -47.5t43.5 -19.5l21 -2v-26l-12 -6
q-51 -25 -72.5 -57.5t-21.5 -57.5q0 -22 14.5 -35t39.5 -13q16 0 27.5 5t24.5 13z" />
    <glyph glyph-name="itilde" unicode="&#x129;" horiz-adv-x="294" 
d="M21 435l174 45v-385q0 -31 14.5 -47.5t43.5 -19.5l21 -2v-26h-250v26l21 2q29 3 43.5 19.5t14.5 47.5v269q0 20 -8.5 30t-37.5 24zM325 694h4q-23 -75 -50 -109.5t-64 -34.5q-18 0 -39.5 10t-43.5 22.5t-43.5 22.5t-39.5 10t-37 -13.5t-41 -51.5h-4q23 76 50 110.5
t64 34.5q19 0 41 -10t44 -22.5t43 -22.5t38 -10q18 0 37 13.5t41 50.5z" />
    <glyph glyph-name="jcircumflex" unicode="&#x135;" horiz-adv-x="266" 
d="M13 435l174 45v-585q0 -58 -40 -94.5t-104 -36.5q-49 0 -84 23t-35 55q0 20 13 34t31 14q25 0 37.5 -17.5t9.5 -48.5h-19q0 -16 13.5 -23t32.5 -7q26 0 39.5 16.5t13.5 48.5v505q0 20 -8.5 30t-37.5 24zM-15 535h-4l104 150h110l104 -150h-4l-158 73l50 35h-36z" />
    <glyph glyph-name="uni0137" unicode="&#x137;" horiz-adv-x="560" 
d="M410 0l-160 239l-59 -58v-86q0 -31 14.5 -47.5t43.5 -19.5l21 -2v-26h-250v26l21 2q29 3 43.5 19.5t14.5 47.5v519q0 20 -9.5 31.5t-36.5 22.5l-36 15l174 42v-474l-27 -28v-24l180 175q27 25 25 45.5t-31 22.5l-20 2v26h207v-24q-37 -9 -75.5 -29.5t-63.5 -45.5l-71 -69
l146 -210q22 -31 43 -46t51 -22v-24h-145zM250 -260l-3 6q37 16 58.5 48.5t21.5 72.5v19h-18v-40q-1 -1 -6.5 -2.5t-11.5 -1.5q-22 0 -38 16t-16 38q0 25 18 41.5t46 16.5q31 0 50 -20.5t19 -55.5q0 -46 -32 -84t-88 -54z" />
    <glyph glyph-name="kgreenlandic" unicode="&#x138;" horiz-adv-x="580" 
d="M99 95v269q0 20 -8.5 30t-37.5 24l-36 17l174 45v-229l-27 -28v-24l180 175q27 25 25 45.5t-31 22.5l-20 2v26h207v-24q-37 -9 -75.5 -29.5t-63.5 -45.5l-71 -69l146 -210q22 -31 43 -46t51 -22v-24h-145l-160 239l-59 -58v-86q0 -31 14.5 -47.5t43.5 -19.5l21 -2v-26
h-250v26l21 2q29 3 43.5 19.5t14.5 47.5z" />
    <glyph glyph-name="lacute" unicode="&#x13a;" horiz-adv-x="290" 
d="M99 614q0 20 -9.5 31.5t-36.5 22.5l-36 15l174 42v-630q0 -31 14.5 -47.5t43.5 -19.5l21 -2v-26h-250v26l21 2q29 3 43.5 19.5t14.5 47.5v519zM70 765h4l173 93q18 10 25.5 25.5t5.5 30t-14 25.5t-33 11t-35.5 -11.5t-32.5 -37.5z" />
    <glyph glyph-name="lcaron" unicode="&#x13e;" horiz-adv-x="290" 
d="M99 614q0 20 -9.5 31.5t-36.5 22.5l-36 15l174 42v-630q0 -31 14.5 -47.5t43.5 -19.5l21 -2v-26h-250v26l21 2q29 3 43.5 19.5t14.5 47.5v519zM252 496l-3 6q37 16 58.5 48.5t21.5 72.5v19h-18v-40q-1 -1 -6.5 -2.5t-11.5 -1.5q-22 0 -38 16t-16 38q0 25 18 41.5t46 16.5
q31 0 50 -20.5t19 -55.5q0 -46 -32 -84t-88 -54z" />
    <glyph glyph-name="uni013C" unicode="&#x13c;" horiz-adv-x="290" 
d="M99 614q0 20 -9.5 31.5t-36.5 22.5l-36 15l174 42v-630q0 -31 14.5 -47.5t43.5 -19.5l21 -2v-26h-250v26l21 2q29 3 43.5 19.5t14.5 47.5v519zM91 -260l-3 6q37 16 58.5 48.5t21.5 72.5v19h-18v-40q-1 -1 -6.5 -2.5t-11.5 -1.5q-22 0 -38 16t-16 38q0 25 18 41.5t46 16.5
q31 0 50 -20.5t19 -55.5q0 -46 -32 -84t-88 -54z" />
    <glyph glyph-name="ldot" unicode="&#x140;" horiz-adv-x="290" 
d="M99 614q0 20 -9.5 31.5t-36.5 22.5l-36 15l174 42v-630q0 -31 14.5 -47.5t43.5 -19.5l21 -2v-26h-250v26l21 2q29 3 43.5 19.5t14.5 47.5v519zM253 286v99h98v-99h-98z" />
    <glyph glyph-name="lslash" unicode="&#x142;" horiz-adv-x="290" 
d="M270 26v-26h-250v26l21 2q29 3 43.5 19.5t14.5 47.5v200l37 25v25l-145 -98v45l108 73v249q0 20 -9.5 31.5t-36.5 22.5l-36 15l174 42v-298l130 87v-45l-130 -87v-287q0 -31 14.5 -47.5t43.5 -19.5z" />
    <glyph glyph-name="nacute" unicode="&#x144;" horiz-adv-x="585" 
d="M103 364q0 20 -8.5 30t-37.5 24l-36 17l174 45v-59l-31 -42v-31l20 27q36 51 79.5 78.5t88.5 27.5q65 0 101.5 -39.5t36.5 -109.5v-237q0 -31 14.5 -47.5t43.5 -19.5l21 -2v-26h-242v26l18 2q27 3 40 19.5t13 47.5v230q0 44 -23.5 68.5t-66.5 24.5q-31 0 -61 -17t-52 -47
v-259q0 -31 13 -47.5t40 -19.5l18 -2v-26h-242v26l21 2q29 3 43.5 19.5t14.5 47.5v269zM224 535h4l173 93q18 10 25.5 25.5t5.5 30t-14 25.5t-33 11t-35.5 -11.5t-32.5 -37.5z" />
    <glyph glyph-name="ncaron" unicode="&#x148;" horiz-adv-x="585" 
d="M103 364q0 20 -8.5 30t-37.5 24l-36 17l174 45v-59l-31 -42v-31l20 27q36 51 79.5 78.5t88.5 27.5q65 0 101.5 -39.5t36.5 -109.5v-237q0 -31 14.5 -47.5t43.5 -19.5l21 -2v-26h-242v26l18 2q27 3 40 19.5t13 47.5v230q0 44 -23.5 68.5t-66.5 24.5q-31 0 -61 -17t-52 -47
v-259q0 -31 13 -47.5t40 -19.5l18 -2v-26h-242v26l21 2q29 3 43.5 19.5t14.5 47.5v269zM454 698h4l-104 -150h-110l-104 150h4l158 -73l-50 -35h36z" />
    <glyph glyph-name="uni0146" unicode="&#x146;" horiz-adv-x="585" 
d="M103 364q0 20 -8.5 30t-37.5 24l-36 17l174 45v-59l-31 -42v-31l20 27q36 51 79.5 78.5t88.5 27.5q65 0 101.5 -39.5t36.5 -109.5v-237q0 -31 14.5 -47.5t43.5 -19.5l21 -2v-26h-242v26l18 2q27 3 40 19.5t13 47.5v230q0 44 -23.5 68.5t-66.5 24.5q-31 0 -61 -17t-52 -47
v-259q0 -31 13 -47.5t40 -19.5l18 -2v-26h-242v26l21 2q29 3 43.5 19.5t14.5 47.5v269zM243 -260l-3 6q37 16 58.5 48.5t21.5 72.5v19h-18v-40q-1 -1 -6.5 -2.5t-11.5 -1.5q-22 0 -38 16t-16 38q0 25 18 41.5t46 16.5q31 0 50 -20.5t19 -55.5q0 -46 -32 -84t-88 -54z" />
    <glyph glyph-name="ntilde" unicode="&#xf1;" horiz-adv-x="585" 
d="M103 364q0 20 -8.5 30t-37.5 24l-36 17l174 45v-59l-31 -42v-31l20 27q36 51 79.5 78.5t88.5 27.5q65 0 101.5 -39.5t36.5 -109.5v-237q0 -31 14.5 -47.5t43.5 -19.5l21 -2v-26h-242v26l18 2q27 3 40 19.5t13 47.5v230q0 44 -23.5 68.5t-66.5 24.5q-31 0 -61 -17t-52 -47
v-259q0 -31 13 -47.5t40 -19.5l18 -2v-26h-242v26l21 2q29 3 43.5 19.5t14.5 47.5v269zM476 694h4q-23 -75 -50 -109.5t-64 -34.5q-18 0 -39.5 10t-43.5 22.5t-43.5 22.5t-39.5 10t-37 -13.5t-41 -51.5h-4q23 76 50 110.5t64 34.5q19 0 41 -10t44 -22.5t43 -22.5t38 -10
q18 0 37 13.5t41 50.5z" />
    <glyph glyph-name="oacute" unicode="&#xf3;" horiz-adv-x="516" 
d="M258 481q49 0 91 -18.5t72 -51t47.5 -77t17.5 -96.5t-17.5 -98t-48.5 -79t-72.5 -52.5t-89.5 -19.5q-49 0 -91 18.5t-72 51t-47.5 77t-17.5 96.5q0 53 17.5 98.5t48 79t72.5 52.5t90 19zM252 439q-57 0 -89.5 -51t-32.5 -138q0 -99 36 -159t96 -60q57 0 90.5 51t33.5 138
q0 99 -37 159t-97 60zM181 535h4l173 93q18 10 25.5 25.5t5.5 30t-14 25.5t-33 11t-35.5 -11.5t-32.5 -37.5z" />
    <glyph glyph-name="obreve" unicode="&#x14f;" horiz-adv-x="516" 
d="M258 481q49 0 91 -18.5t72 -51t47.5 -77t17.5 -96.5t-17.5 -98t-48.5 -79t-72.5 -52.5t-89.5 -19.5q-49 0 -91 18.5t-72 51t-47.5 77t-17.5 96.5q0 53 17.5 98.5t48 79t72.5 52.5t90 19zM252 439q-57 0 -89.5 -51t-32.5 -138q0 -99 36 -159t96 -60q57 0 90.5 51t33.5 138
q0 99 -37 159t-97 60zM125 700q11 -30 44.5 -51.5t86.5 -21.5t86.5 21.5t44.5 51.5h4q3 -72 -37.5 -113.5t-97.5 -41.5t-97.5 41.5t-37.5 113.5h4z" />
    <glyph glyph-name="ocircumflex" unicode="&#xf4;" horiz-adv-x="516" 
d="M258 481q49 0 91 -18.5t72 -51t47.5 -77t17.5 -96.5t-17.5 -98t-48.5 -79t-72.5 -52.5t-89.5 -19.5q-49 0 -91 18.5t-72 51t-47.5 77t-17.5 96.5q0 53 17.5 98.5t48 79t72.5 52.5t90 19zM252 439q-57 0 -89.5 -51t-32.5 -138q0 -99 36 -159t96 -60q57 0 90.5 51t33.5 138
q0 99 -37 159t-97 60zM101 535h-4l104 150h110l104 -150h-4l-158 73l50 35h-36z" />
    <glyph glyph-name="odieresis" unicode="&#xf6;" horiz-adv-x="516" 
d="M258 481q49 0 91 -18.5t72 -51t47.5 -77t17.5 -96.5t-17.5 -98t-48.5 -79t-72.5 -52.5t-89.5 -19.5q-49 0 -91 18.5t-72 51t-47.5 77t-17.5 96.5q0 53 17.5 98.5t48 79t72.5 52.5t90 19zM252 439q-57 0 -89.5 -51t-32.5 -138q0 -99 36 -159t96 -60q57 0 90.5 51t33.5 138
q0 99 -37 159t-97 60zM110 575v99h98v-99h-98zM304 575v99h98v-99h-98z" />
    <glyph glyph-name="oe" unicode="&#x153;" horiz-adv-x="829" 
d="M258 481q62 0 106.5 -29.5t69.5 -78.5q24 48 65.5 77.5t95.5 29.5q87 0 140 -60t50 -154h-343v-19h32q2 -86 44.5 -140.5t106.5 -54.5q51 0 88.5 20.5t60.5 62.5l2 -1q-13 -65 -59.5 -104.5t-109.5 -39.5q-65 0 -109.5 27t-67.5 76q-27 -48 -70.5 -76t-101.5 -28
q-49 0 -91 18.5t-72 51t-47.5 77t-17.5 96.5q0 53 17.5 98.5t48 79t72.5 52.5t90 19zM598 440q-46 0 -75.5 -36.5t-36.5 -102.5h211q0 60 -28 99.5t-71 39.5zM252 439q-57 0 -89.5 -51t-32.5 -138q0 -99 36 -159t96 -60q57 0 90.5 51t33.5 138q0 99 -37 159t-97 60z" />
    <glyph glyph-name="ograve" unicode="&#xf2;" horiz-adv-x="516" 
d="M258 481q49 0 91 -18.5t72 -51t47.5 -77t17.5 -96.5t-17.5 -98t-48.5 -79t-72.5 -52.5t-89.5 -19.5q-49 0 -91 18.5t-72 51t-47.5 77t-17.5 96.5q0 53 17.5 98.5t48 79t72.5 52.5t90 19zM252 439q-57 0 -89.5 -51t-32.5 -138q0 -99 36 -159t96 -60q57 0 90.5 51t33.5 138
q0 99 -37 159t-97 60zM331 535h-4l-173 93q-18 10 -25.5 25.5t-5.5 30t14 25.5t33 11t35.5 -11.5t32.5 -37.5z" />
    <glyph glyph-name="ohungarumlaut" unicode="&#x151;" horiz-adv-x="516" 
d="M258 481q49 0 91 -18.5t72 -51t47.5 -77t17.5 -96.5t-17.5 -98t-48.5 -79t-72.5 -52.5t-89.5 -19.5q-49 0 -91 18.5t-72 51t-47.5 77t-17.5 96.5q0 53 17.5 98.5t48 79t72.5 52.5t90 19zM252 439q-57 0 -89.5 -51t-32.5 -138q0 -99 36 -159t96 -60q57 0 90.5 51t33.5 138
q0 99 -37 159t-97 60zM195 673q16 26 31 38t35 12q18 0 29 -8.5t13 -21t-4.5 -27t-24.5 -26.5l-154 -102h-4zM355 673q16 26 31 38t35 12q18 0 29 -8.5t13 -21t-4.5 -27t-24.5 -26.5l-154 -102h-4z" />
    <glyph glyph-name="omacron" unicode="&#x14d;" horiz-adv-x="516" 
d="M258 481q49 0 91 -18.5t72 -51t47.5 -77t17.5 -96.5t-17.5 -98t-48.5 -79t-72.5 -52.5t-89.5 -19.5q-49 0 -91 18.5t-72 51t-47.5 77t-17.5 96.5q0 53 17.5 98.5t48 79t72.5 52.5t90 19zM252 439q-57 0 -89.5 -51t-32.5 -138q0 -99 36 -159t96 -60q57 0 90.5 51t33.5 138
q0 99 -37 159t-97 60zM103 650h306v-60h-306v60z" />
    <glyph glyph-name="oslash" unicode="&#xf8;" horiz-adv-x="516" 
d="M258 481q45 0 84.5 -16t69.5 -44l48 49h56l-105 -107q3 -4 5.5 -8t4.5 -8l28 28q18 -28 27.5 -63t9.5 -74q0 -53 -17.5 -98.5t-48 -79t-72.5 -52.5t-90 -19q-45 0 -84.5 16t-69.5 44l-48 -49h-56l105 107q-3 4 -5.5 8t-4.5 8l-28 -28q-18 28 -27.5 63t-9.5 74
q0 53 17.5 98.5t48 79t72.5 52.5t90 19zM130 250q0 -28 3 -54.5t10 -48.5l212 219q-16 34 -42.5 53.5t-60.5 19.5q-57 0 -89.5 -51t-32.5 -138zM262 31q57 0 89.5 51t32.5 138q0 28 -3 54.5t-10 48.5l-212 -219q16 -34 42.5 -53.5t60.5 -19.5z" />
    <glyph glyph-name="otilde" unicode="&#xf5;" horiz-adv-x="516" 
d="M258 481q49 0 91 -18.5t72 -51t47.5 -77t17.5 -96.5t-17.5 -98t-48.5 -79t-72.5 -52.5t-89.5 -19.5q-49 0 -91 18.5t-72 51t-47.5 77t-17.5 96.5q0 53 17.5 98.5t48 79t72.5 52.5t90 19zM252 439q-57 0 -89.5 -51t-32.5 -138q0 -99 36 -159t96 -60q57 0 90.5 51t33.5 138
q0 99 -37 159t-97 60zM433 694h4q-23 -75 -50 -109.5t-64 -34.5q-18 0 -39.5 10t-43.5 22.5t-43.5 22.5t-39.5 10t-37 -13.5t-41 -51.5h-4q23 76 50 110.5t64 34.5q19 0 41 -10t44 -22.5t43 -22.5t38 -10q18 0 37 13.5t41 50.5z" />
    <glyph glyph-name="racute" unicode="&#x155;" horiz-adv-x="433" 
d="M103 364q0 20 -8.5 30t-37.5 24l-36 17l174 45v-74q-4 -7 -13 -25.5t-12 -25.5v-42q27 75 74 122.5t97 47.5q38 0 58.5 -21.5t21.5 -46.5q1 -30 -15.5 -47t-38.5 -18q-21 -1 -39 14t-18 40q0 6 3 13t6 8h14v17q-23 1 -45 -10.5t-40 -30t-32 -41.5t-21 -45v-220
q0 -30 13.5 -47.5t41.5 -19.5l24 -2v-26h-250v26l21 2q30 3 44 20t14 47v269zM167 535h4l173 93q18 10 25.5 25.5t5.5 30t-14 25.5t-33 11t-35.5 -11.5t-32.5 -37.5z" />
    <glyph glyph-name="rcaron" unicode="&#x159;" horiz-adv-x="433" 
d="M103 364q0 20 -8.5 30t-37.5 24l-36 17l174 45v-74q-4 -7 -13 -25.5t-12 -25.5v-42q27 75 74 122.5t97 47.5q38 0 58.5 -21.5t21.5 -46.5q1 -30 -15.5 -47t-38.5 -18q-21 -1 -39 14t-18 40q0 6 3 13t6 8h14v17q-23 1 -45 -10.5t-40 -30t-32 -41.5t-21 -45v-220
q0 -30 13.5 -47.5t41.5 -19.5l24 -2v-26h-250v26l21 2q30 3 44 20t14 47v269zM397 698h4l-104 -150h-110l-104 150h4l158 -73l-50 -35h36z" />
    <glyph glyph-name="uni0157" unicode="&#x157;" horiz-adv-x="433" 
d="M103 364q0 20 -8.5 30t-37.5 24l-36 17l174 45v-74q-4 -7 -13 -25.5t-12 -25.5v-42q27 75 74 122.5t97 47.5q38 0 58.5 -21.5t21.5 -46.5q1 -30 -15.5 -47t-38.5 -18q-21 -1 -39 14t-18 40q0 6 3 13t6 8h14v17q-23 1 -45 -10.5t-40 -30t-32 -41.5t-21 -45v-220
q0 -30 13.5 -47.5t41.5 -19.5l24 -2v-26h-250v26l21 2q30 3 44 20t14 47v269zM96 -260l-3 6q37 16 58.5 48.5t21.5 72.5v19h-18v-40q-1 -1 -6.5 -2.5t-11.5 -1.5q-22 0 -38 16t-16 38q0 25 18 41.5t46 16.5q31 0 50 -20.5t19 -55.5q0 -46 -32 -84t-88 -54z" />
    <glyph glyph-name="sacute" unicode="&#x15b;" horiz-adv-x="409" 
d="M184 437q-31 0 -50.5 -17.5t-19.5 -46.5q0 -25 15 -42.5t43 -28.5l116 -46q46 -18 70.5 -48t24.5 -71q0 -33 -13 -60t-35 -45.5t-51 -29t-60 -10.5q-49 0 -85 21.5t-67 59.5v-28q7 -8 14 -15t13 -12l-66 -32l-3 183h34l18 -37q22 -46 56.5 -71.5t78.5 -25.5q40 0 64.5 19
t24.5 52q0 25 -19 42t-50 29l-100 38q-48 18 -73.5 49.5t-25.5 74.5q0 63 41.5 101t101.5 38q45 0 79 -20t62 -57v29l-15 15t-15 13l65 25l2 -177h-34l-15 33q-21 47 -53.5 72.5t-72.5 25.5zM120 535h4l173 93q18 10 25.5 25.5t5.5 30t-14 25.5t-33 11t-35.5 -11.5
t-32.5 -37.5z" />
    <glyph glyph-name="scaron" unicode="&#x161;" horiz-adv-x="409" 
d="M184 437q-31 0 -50.5 -17.5t-19.5 -46.5q0 -25 15 -42.5t43 -28.5l116 -46q46 -18 70.5 -48t24.5 -71q0 -33 -13 -60t-35 -45.5t-51 -29t-60 -10.5q-49 0 -85 21.5t-67 59.5v-28q7 -8 14 -15t13 -12l-66 -32l-3 183h34l18 -37q22 -46 56.5 -71.5t78.5 -25.5q40 0 64.5 19
t24.5 52q0 25 -19 42t-50 29l-100 38q-48 18 -73.5 49.5t-25.5 74.5q0 63 41.5 101t101.5 38q45 0 79 -20t62 -57v29l-15 15t-15 13l65 25l2 -177h-34l-15 33q-21 47 -53.5 72.5t-72.5 25.5zM350 698h4l-104 -150h-110l-104 150h4l158 -73l-50 -35h36z" />
    <glyph glyph-name="uni015F" unicode="&#x15f;" horiz-adv-x="409" 
d="M133 -188v4q46 -3 69.5 7.5t23.5 29.5q0 10 -6.5 19.5t-22.5 19.5l-48 29l45 73q-37 6 -67 26.5t-55 52.5v-28q7 -8 14 -15t13 -12l-66 -32l-3 183h34l18 -37q22 -46 56.5 -71.5t78.5 -25.5q40 0 64.5 19t24.5 52q0 25 -19 42t-50 29l-100 38q-48 18 -73.5 49.5
t-25.5 74.5q0 63 41.5 101t101.5 38q45 0 79 -20t62 -57v29l-15 15t-15 13l65 25l2 -177h-34l-15 33q-21 47 -53.5 72.5t-72.5 25.5q-31 0 -50.5 -17.5t-19.5 -46.5q0 -25 15 -42.5t43 -28.5l116 -46q46 -18 70.5 -48t24.5 -71q0 -33 -13 -60t-35 -45.5t-50.5 -29
t-58.5 -10.5l-32 -56l19 -11l17 29l7 -4q43 -24 53.5 -44t10.5 -36q0 -31 -29.5 -52.5t-74.5 -21.5q-19 0 -36 4.5t-28 11.5z" />
    <glyph glyph-name="scircumflex" unicode="&#x15d;" horiz-adv-x="409" 
d="M184 437q-31 0 -50.5 -17.5t-19.5 -46.5q0 -25 15 -42.5t43 -28.5l116 -46q46 -18 70.5 -48t24.5 -71q0 -33 -13 -60t-35 -45.5t-51 -29t-60 -10.5q-49 0 -85 21.5t-67 59.5v-28q7 -8 14 -15t13 -12l-66 -32l-3 183h34l18 -37q22 -46 56.5 -71.5t78.5 -25.5q40 0 64.5 19
t24.5 52q0 25 -19 42t-50 29l-100 38q-48 18 -73.5 49.5t-25.5 74.5q0 63 41.5 101t101.5 38q45 0 79 -20t62 -57v29l-15 15t-15 13l65 25l2 -177h-34l-15 33q-21 47 -53.5 72.5t-72.5 25.5zM40 535h-4l104 150h110l104 -150h-4l-158 73l50 35h-36z" />
    <glyph glyph-name="uni0219" unicode="&#x219;" horiz-adv-x="409" 
d="M184 437q-31 0 -50.5 -17.5t-19.5 -46.5q0 -25 15 -42.5t43 -28.5l116 -46q46 -18 70.5 -48t24.5 -71q0 -33 -13 -60t-35 -45.5t-51 -29t-60 -10.5q-49 0 -85 21.5t-67 59.5v-28q7 -8 14 -15t13 -12l-66 -32l-3 183h34l18 -37q22 -46 56.5 -71.5t78.5 -25.5q40 0 64.5 19
t24.5 52q0 25 -19 42t-50 29l-100 38q-48 18 -73.5 49.5t-25.5 74.5q0 63 41.5 101t101.5 38q45 0 79 -20t62 -57v29l-15 15t-15 13l65 25l2 -177h-34l-15 33q-21 47 -53.5 72.5t-72.5 25.5zM164 -259l-3 6q37 16 58.5 48.5t21.5 72.5v19h-18v-40q-1 -1 -6.5 -2.5
t-11.5 -1.5q-22 0 -38 16t-16 38q0 25 18 41.5t46 16.5q31 0 50 -20.5t19 -55.5q0 -46 -32 -84t-88 -54z" />
    <glyph glyph-name="tbar" unicode="&#x167;" horiz-adv-x="328" 
d="M311 121q-13 -63 -46 -96t-84 -33q-42 0 -70.5 27t-28.5 72v150h34v19h-117v40h83v130h-83q47 31 97 89.5t78 117.5v-167h132v-40h-166v-19h34v-111h132v-40h-132v-153q0 -23 14.5 -36.5t37.5 -13.5q28 0 48 16t34 49z" />
    <glyph glyph-name="tcaron" unicode="&#x165;" horiz-adv-x="328" 
d="M174 411v-304q0 -23 14.5 -36.5t37.5 -13.5q28 0 48 16t34 49l3 -1q-13 -63 -46 -96t-84 -33q-42 0 -70.5 27t-28.5 72v339h-83q47 31 97 89.5t78 117.5v-167h132v-40h-166v-19h34zM222 506l-3 6q37 16 58.5 48.5t21.5 72.5v19h-18v-40q-1 -1 -6.5 -2.5t-11.5 -1.5
q-22 0 -38 16t-16 38q0 25 18 41.5t46 16.5q31 0 50 -20.5t19 -55.5q0 -46 -32 -84t-88 -54z" />
    <glyph glyph-name="uni0163" unicode="&#x163;" horiz-adv-x="328" 
d="M97 -189v4q46 -3 69.5 7.5t23.5 29.5q0 10 -6.5 19.5t-22.5 19.5l-48 29l45 74q-33 7 -54.5 32.5t-21.5 64.5v339h-83q47 31 97 89.5t78 117.5v-167h132v-40h-166v-19h34v-304q0 -23 14.5 -36.5t37.5 -13.5q28 0 48 16t34 49l3 -1q-13 -60 -43.5 -92.5t-76.5 -36.5
l-33 -57l19 -11l17 29l7 -4q43 -24 53.5 -44t10.5 -36q0 -31 -29.5 -52.5t-74.5 -21.5q-19 0 -36 4.5t-28 11.5z" />
    <glyph glyph-name="uni021B" unicode="&#x21b;" horiz-adv-x="328" 
d="M174 411v-304q0 -23 14.5 -36.5t37.5 -13.5q28 0 48 16t34 49l3 -1q-13 -63 -46 -96t-84 -33q-42 0 -70.5 27t-28.5 72v339h-83q47 31 97 89.5t78 117.5v-167h132v-40h-166v-19h34zM128 -260l-3 6q37 16 58.5 48.5t21.5 72.5v19h-18v-40q-1 -1 -6.5 -2.5t-11.5 -1.5
q-22 0 -38 16t-16 38q0 25 18 41.5t46 16.5q31 0 50 -20.5t19 -55.5q0 -46 -32 -84t-88 -54z" />
    <glyph glyph-name="thorn" unicode="&#xfe;" horiz-adv-x="547" 
d="M250 -204v-26h-250v26l21 2q29 3 43.5 19.5t14.5 47.5v744q0 20 -8.5 30t-37.5 24l-36 17l174 45v-307l-31 -43v-33l18 27q37 56 78 84t87 28q42 0 78 -17t61.5 -47t40 -71.5t14.5 -90.5q0 -57 -18.5 -105.5t-50.5 -83.5t-77 -55t-97 -20q-31 0 -56.5 5.5t-46.5 15.5
v-147q0 -31 14.5 -47.5t43.5 -19.5zM280 418q-32 0 -61 -19.5t-48 -50.5v-275q19 -18 47 -30t54 -12q65 0 105 55.5t40 145.5q0 81 -38.5 133.5t-98.5 52.5z" />
    <glyph glyph-name="uacute" unicode="&#xfa;" horiz-adv-x="581" 
d="M187 480v-334q0 -40 22 -66.5t68 -26.5q37 0 66.5 20t46.5 45v246q0 20 -8.5 30t-37.5 24l-36 17l174 45v-382q0 -26 10.5 -39.5t34.5 -23.5l38 -17l-175 -24v56l31 43v31l-19 -27q-13 -18 -29.5 -37t-37.5 -34.5t-46.5 -25.5t-55.5 -10q-66 0 -102 40.5t-36 108.5v225
q0 20 -8.5 30t-37.5 24l-36 17zM210 535h4l173 93q18 10 25.5 25.5t5.5 30t-14 25.5t-33 11t-35.5 -11.5t-32.5 -37.5z" />
    <glyph glyph-name="ubreve" unicode="&#x16d;" horiz-adv-x="581" 
d="M187 480v-334q0 -40 22 -66.5t68 -26.5q37 0 66.5 20t46.5 45v246q0 20 -8.5 30t-37.5 24l-36 17l174 45v-382q0 -26 10.5 -39.5t34.5 -23.5l38 -17l-175 -24v56l31 43v31l-19 -27q-13 -18 -29.5 -37t-37.5 -34.5t-46.5 -25.5t-55.5 -10q-66 0 -102 40.5t-36 108.5v225
q0 20 -8.5 30t-37.5 24l-36 17zM154 700q11 -30 44.5 -51.5t86.5 -21.5t86.5 21.5t44.5 51.5h4q3 -72 -37.5 -113.5t-97.5 -41.5t-97.5 41.5t-37.5 113.5h4z" />
    <glyph glyph-name="ucircumflex" unicode="&#xfb;" horiz-adv-x="581" 
d="M187 480v-334q0 -40 22 -66.5t68 -26.5q37 0 66.5 20t46.5 45v246q0 20 -8.5 30t-37.5 24l-36 17l174 45v-382q0 -26 10.5 -39.5t34.5 -23.5l38 -17l-175 -24v56l31 43v31l-19 -27q-13 -18 -29.5 -37t-37.5 -34.5t-46.5 -25.5t-55.5 -10q-66 0 -102 40.5t-36 108.5v225
q0 20 -8.5 30t-37.5 24l-36 17zM130 535h-4l104 150h110l104 -150h-4l-158 73l50 35h-36z" />
    <glyph glyph-name="udieresis" unicode="&#xfc;" horiz-adv-x="581" 
d="M187 480v-334q0 -40 22 -66.5t68 -26.5q37 0 66.5 20t46.5 45v246q0 20 -8.5 30t-37.5 24l-36 17l174 45v-382q0 -26 10.5 -39.5t34.5 -23.5l38 -17l-175 -24v56l31 43v31l-19 -27q-13 -18 -29.5 -37t-37.5 -34.5t-46.5 -25.5t-55.5 -10q-66 0 -102 40.5t-36 108.5v225
q0 20 -8.5 30t-37.5 24l-36 17zM139 575v99h98v-99h-98zM333 575v99h98v-99h-98z" />
    <glyph glyph-name="ugrave" unicode="&#xf9;" horiz-adv-x="581" 
d="M187 480v-334q0 -40 22 -66.5t68 -26.5q37 0 66.5 20t46.5 45v246q0 20 -8.5 30t-37.5 24l-36 17l174 45v-382q0 -26 10.5 -39.5t34.5 -23.5l38 -17l-175 -24v56l31 43v31l-19 -27q-13 -18 -29.5 -37t-37.5 -34.5t-46.5 -25.5t-55.5 -10q-66 0 -102 40.5t-36 108.5v225
q0 20 -8.5 30t-37.5 24l-36 17zM360 535h-4l-173 93q-18 10 -25.5 25.5t-5.5 30t14 25.5t33 11t35.5 -11.5t32.5 -37.5z" />
    <glyph glyph-name="uhungarumlaut" unicode="&#x171;" horiz-adv-x="581" 
d="M187 480v-334q0 -40 22 -66.5t68 -26.5q37 0 66.5 20t46.5 45v246q0 20 -8.5 30t-37.5 24l-36 17l174 45v-382q0 -26 10.5 -39.5t34.5 -23.5l38 -17l-175 -24v56l31 43v31l-19 -27q-13 -18 -29.5 -37t-37.5 -34.5t-46.5 -25.5t-55.5 -10q-66 0 -102 40.5t-36 108.5v225
q0 20 -8.5 30t-37.5 24l-36 17zM224 673q16 26 31 38t35 12q18 0 29 -8.5t13 -21t-4.5 -27t-24.5 -26.5l-154 -102h-4zM384 673q16 26 31 38t35 12q18 0 29 -8.5t13 -21t-4.5 -27t-24.5 -26.5l-154 -102h-4z" />
    <glyph glyph-name="umacron" unicode="&#x16b;" horiz-adv-x="581" 
d="M187 480v-334q0 -40 22 -66.5t68 -26.5q37 0 66.5 20t46.5 45v246q0 20 -8.5 30t-37.5 24l-36 17l174 45v-382q0 -26 10.5 -39.5t34.5 -23.5l38 -17l-175 -24v56l31 43v31l-19 -27q-13 -18 -29.5 -37t-37.5 -34.5t-46.5 -25.5t-55.5 -10q-66 0 -102 40.5t-36 108.5v225
q0 20 -8.5 30t-37.5 24l-36 17zM132 650h306v-60h-306v60z" />
    <glyph glyph-name="uogonek" unicode="&#x173;" horiz-adv-x="581" 
d="M187 480v-334q0 -40 22 -66.5t68 -26.5q37 0 66.5 20t46.5 45v246q0 20 -8.5 30t-37.5 24l-36 17l174 45v-382q0 -26 10.5 -39.5t34.5 -23.5l38 -17l-12 -6q-51 -25 -72.5 -57.5t-21.5 -57.5q0 -22 14.5 -35t39.5 -13q16 0 27.5 5t24.5 13l3 -3q-13 -28 -37.5 -42.5
t-53.5 -14.5q-38 0 -59 20.5t-21 51.5q0 34 30 70.5t84 61.5l-121 -17v56l31 43v31l-19 -27q-13 -18 -29.5 -37t-37.5 -34.5t-46.5 -25.5t-55.5 -10q-66 0 -102 40.5t-36 108.5v225q0 20 -8.5 30t-37.5 24l-36 17z" />
    <glyph glyph-name="uring" unicode="&#x16f;" horiz-adv-x="581" 
d="M187 480v-334q0 -40 22 -66.5t68 -26.5q37 0 66.5 20t46.5 45v246q0 20 -8.5 30t-37.5 24l-36 17l174 45v-382q0 -26 10.5 -39.5t34.5 -23.5l38 -17l-175 -24v56l31 43v31l-19 -27q-13 -18 -29.5 -37t-37.5 -34.5t-46.5 -25.5t-55.5 -10q-66 0 -102 40.5t-36 108.5v225
q0 20 -8.5 30t-37.5 24l-36 17zM285 710q41 0 70 -26.5t29 -68.5q0 -38 -28.5 -65t-70.5 -27t-70.5 27t-28.5 65q0 42 29 68.5t70 26.5zM285 558q28 0 43.5 17.5t15.5 39.5q0 25 -15.5 42t-43.5 17t-43.5 -17t-15.5 -42q0 -22 15.5 -39.5t43.5 -17.5z" />
    <glyph glyph-name="utilde" unicode="&#x169;" horiz-adv-x="581" 
d="M187 480v-334q0 -40 22 -66.5t68 -26.5q37 0 66.5 20t46.5 45v246q0 20 -8.5 30t-37.5 24l-36 17l174 45v-382q0 -26 10.5 -39.5t34.5 -23.5l38 -17l-175 -24v56l31 43v31l-19 -27q-13 -18 -29.5 -37t-37.5 -34.5t-46.5 -25.5t-55.5 -10q-66 0 -102 40.5t-36 108.5v225
q0 20 -8.5 30t-37.5 24l-36 17zM462 694h4q-23 -75 -50 -109.5t-64 -34.5q-18 0 -39.5 10t-43.5 22.5t-43.5 22.5t-39.5 10t-37 -13.5t-41 -51.5h-4q23 76 50 110.5t64 34.5q19 0 41 -10t44 -22.5t43 -22.5t38 -10q18 0 37 13.5t41 50.5z" />
    <glyph glyph-name="wacute" unicode="&#x1e83;" horiz-adv-x="782" 
d="M277 154l-15 -35l11 -23l97 232l-21 47q-14 34 -29 49.5t-38 20.5v25h211v-27l-15 -2q-25 -4 -33 -21.5t2 -43.5l89 -219l-15 -35l11 -22l105 249q18 42 9 65t-45 27l-16 2v27h186v-25q-25 -7 -46 -26.5t-34 -50.5l-168 -396h-2l-130 302l-129 -302h-2l-173 403
q-13 32 -30.5 47.5t-46.5 22.5v25h222v-27l-16 -2q-25 -4 -32.5 -21.5t2.5 -43.5zM313 535h4l173 93q18 10 25.5 25.5t5.5 30t-14 25.5t-33 11t-35.5 -11.5t-32.5 -37.5z" />
    <glyph glyph-name="wdieresis" unicode="&#x1e85;" horiz-adv-x="782" 
d="M277 154l-15 -35l11 -23l97 232l-21 47q-14 34 -29 49.5t-38 20.5v25h211v-27l-15 -2q-25 -4 -33 -21.5t2 -43.5l89 -219l-15 -35l11 -22l105 249q18 42 9 65t-45 27l-16 2v27h186v-25q-25 -7 -46 -26.5t-34 -50.5l-168 -396h-2l-130 302l-129 -302h-2l-173 403
q-13 32 -30.5 47.5t-46.5 22.5v25h222v-27l-16 -2q-25 -4 -32.5 -21.5t2.5 -43.5zM242 575v99h98v-99h-98zM436 575v99h98v-99h-98z" />
    <glyph glyph-name="wgrave" unicode="&#x1e81;" horiz-adv-x="782" 
d="M277 154l-15 -35l11 -23l97 232l-21 47q-14 34 -29 49.5t-38 20.5v25h211v-27l-15 -2q-25 -4 -33 -21.5t2 -43.5l89 -219l-15 -35l11 -22l105 249q18 42 9 65t-45 27l-16 2v27h186v-25q-25 -7 -46 -26.5t-34 -50.5l-168 -396h-2l-130 302l-129 -302h-2l-173 403
q-13 32 -30.5 47.5t-46.5 22.5v25h222v-27l-16 -2q-25 -4 -32.5 -21.5t2.5 -43.5zM463 535h-4l-173 93q-18 10 -25.5 25.5t-5.5 30t14 25.5t33 11t35.5 -11.5t32.5 -37.5z" />
    <glyph glyph-name="wcircumflex" unicode="&#x175;" horiz-adv-x="782" 
d="M277 154l-15 -35l11 -23l97 232l-21 47q-14 34 -29 49.5t-38 20.5v25h211v-27l-15 -2q-25 -4 -33 -21.5t2 -43.5l89 -219l-15 -35l11 -22l105 249q18 42 9 65t-45 27l-16 2v27h186v-25q-25 -7 -46 -26.5t-34 -50.5l-168 -396h-2l-130 302l-129 -302h-2l-173 403
q-13 32 -30.5 47.5t-46.5 22.5v25h222v-27l-16 -2q-25 -4 -32.5 -21.5t2.5 -43.5zM233 535h-4l104 150h110l104 -150h-4l-158 73l50 35h-36z" />
    <glyph glyph-name="yacute" unicode="&#xfd;" horiz-adv-x="541" 
d="M201 -67l35 73l-154 370q-13 31 -31 46.5t-46 22.5v25h228v-26l-15 -2q-28 -4 -37 -21t1 -44l94 -241l-15 -33l11 -21l127 267q19 40 9.5 64t-46.5 29l-15 2v26h189v-25q-25 -7 -44.5 -26t-35.5 -51l-234 -483q-29 -60 -67 -89t-87 -29q-34 0 -57 18.5t-24 47.5
q-1 23 12.5 39.5t35.5 17.5q21 1 36.5 -13.5t15.5 -35.5q0 -6 -2.5 -12.5t-5.5 -7.5h-12v-15h13q33 0 61 29.5t60 97.5zM215 535h4l173 93q18 10 25.5 25.5t5.5 30t-14 25.5t-33 11t-35.5 -11.5t-32.5 -37.5z" />
    <glyph glyph-name="ycircumflex" unicode="&#x177;" horiz-adv-x="541" 
d="M201 -67l35 73l-154 370q-13 31 -31 46.5t-46 22.5v25h228v-26l-15 -2q-28 -4 -37 -21t1 -44l94 -241l-15 -33l11 -21l127 267q19 40 9.5 64t-46.5 29l-15 2v26h189v-25q-25 -7 -44.5 -26t-35.5 -51l-234 -483q-29 -60 -67 -89t-87 -29q-34 0 -57 18.5t-24 47.5
q-1 23 12.5 39.5t35.5 17.5q21 1 36.5 -13.5t15.5 -35.5q0 -6 -2.5 -12.5t-5.5 -7.5h-12v-15h13q33 0 61 29.5t60 97.5zM135 535h-4l104 150h110l104 -150h-4l-158 73l50 35h-36z" />
    <glyph glyph-name="ydieresis" unicode="&#xff;" horiz-adv-x="541" 
d="M201 -67l35 73l-154 370q-13 31 -31 46.5t-46 22.5v25h228v-26l-15 -2q-28 -4 -37 -21t1 -44l94 -241l-15 -33l11 -21l127 267q19 40 9.5 64t-46.5 29l-15 2v26h189v-25q-25 -7 -44.5 -26t-35.5 -51l-234 -483q-29 -60 -67 -89t-87 -29q-34 0 -57 18.5t-24 47.5
q-1 23 12.5 39.5t35.5 17.5q21 1 36.5 -13.5t15.5 -35.5q0 -6 -2.5 -12.5t-5.5 -7.5h-12v-15h13q33 0 61 29.5t60 97.5zM144 575v99h98v-99h-98zM338 575v99h98v-99h-98z" />
    <glyph glyph-name="ygrave" unicode="&#x1ef3;" horiz-adv-x="541" 
d="M201 -67l35 73l-154 370q-13 31 -31 46.5t-46 22.5v25h228v-26l-15 -2q-28 -4 -37 -21t1 -44l94 -241l-15 -33l11 -21l127 267q19 40 9.5 64t-46.5 29l-15 2v26h189v-25q-25 -7 -44.5 -26t-35.5 -51l-234 -483q-29 -60 -67 -89t-87 -29q-34 0 -57 18.5t-24 47.5
q-1 23 12.5 39.5t35.5 17.5q21 1 36.5 -13.5t15.5 -35.5q0 -6 -2.5 -12.5t-5.5 -7.5h-12v-15h13q33 0 61 29.5t60 97.5zM365 535h-4l-173 93q-18 10 -25.5 25.5t-5.5 30t14 25.5t33 11t35.5 -11.5t32.5 -37.5z" />
    <glyph glyph-name="zacute" unicode="&#x17a;" horiz-adv-x="459" 
d="M296 414h30l12 18h-124q-55 0 -87 -22.5t-46 -71.5l-15 -52h-30l6 184h399l-281 -414h-30l-12 -18h138q56 0 90.5 27.5t50.5 83.5l11 40h31l-20 -189h-404zM164 535h4l173 93q18 10 25.5 25.5t5.5 30t-14 25.5t-33 11t-35.5 -11.5t-32.5 -37.5z" />
    <glyph glyph-name="zcaron" unicode="&#x17e;" horiz-adv-x="459" 
d="M296 414h30l12 18h-124q-55 0 -87 -22.5t-46 -71.5l-15 -52h-30l6 184h399l-281 -414h-30l-12 -18h138q56 0 90.5 27.5t50.5 83.5l11 40h31l-20 -189h-404zM394 698h4l-104 -150h-110l-104 150h4l158 -73l-50 -35h36z" />
    <glyph glyph-name="zdotaccent" unicode="&#x17c;" horiz-adv-x="459" 
d="M296 414h30l12 18h-124q-55 0 -87 -22.5t-46 -71.5l-15 -52h-30l6 184h399l-281 -414h-30l-12 -18h138q56 0 90.5 27.5t50.5 83.5l11 40h31l-20 -189h-404zM190 575v99h98v-99h-98z" />
    <glyph glyph-name="fi" unicode="&#xfb01;" horiz-adv-x="624" 
d="M94 95v335h-78v40h78v30q0 97 54 157.5t141 60.5q53 0 90 -24.5t37 -60.5q0 -21 -13 -36t-35 -15q-27 0 -41 20t-9 50h20q0 16 -14.5 24.5t-41.5 8.5q-46 0 -71 -30t-25 -84v-101h128v-40h-162v-19h34v-316q0 -31 13.5 -48t39.5 -19l23 -2v-26h-247v26l21 2
q29 3 43.5 19.5t14.5 47.5zM429 575v99h98v-99h-98zM351 435l174 45v-385q0 -31 14.5 -47.5t43.5 -19.5l21 -2v-26h-250v26l21 2q29 3 43.5 19.5t14.5 47.5v269q0 20 -8.5 30t-37.5 24z" />
    <glyph glyph-name="fl" unicode="&#xfb02;" horiz-adv-x="620" 
d="M94 95v335h-78v40h78v30q0 97 54 157.5t141 60.5q28 0 52 -7t41 -20l139 34v-630q0 -31 14.5 -47.5t43.5 -19.5l21 -2v-26h-250v26l21 2q29 3 43.5 19.5t14.5 47.5v519q0 13 -3.5 22t-12.5 16q1 -4 2 -9.5t1 -9.5q0 -21 -13 -36t-35 -15q-27 0 -41 20t-9 50h20
q0 16 -14.5 24.5t-41.5 8.5q-46 0 -71 -30t-25 -84v-101h128v-40h-162v-19h34v-316q0 -31 13.5 -48t39.5 -19l23 -2v-26h-247v26l21 2q29 3 43.5 19.5t14.5 47.5z" />
    <glyph glyph-name="ampersand" unicode="&#x26;" horiz-adv-x="725" 
d="M455 92q-47 -50 -100.5 -75.5t-119.5 -25.5q-95 0 -156.5 52.5t-61.5 134.5q0 29 7 54.5t26 49.5t53 50t88 55q-32 51 -45.5 86.5t-13.5 69.5q0 31 11.5 61t35 53t59 37t82.5 14q59 0 100.5 -35t41.5 -85q0 -42 -27.5 -75t-93.5 -69l-80 -44l12 -17l27 15
q52 -74 100 -133.5t76 -91.5q10 16 22 38t25 52l19 41q16 36 10.5 58.5t-36.5 26.5l-23 3v26h195v-25q-30 -7 -51 -23t-36 -44l-45 -85q-13 -26 -27.5 -49.5t-29.5 -44.5q47 -50 84 -71t80 -21q15 0 35.5 2.5t32.5 7.5q-25 -31 -64.5 -50.5t-80.5 -19.5q-37 0 -68.5 13
t-69.5 47l22 23zM218 573q1 -31 13 -62t43 -77q51 24 78.5 62t27.5 86q0 40 -22 66.5t-56 26.5q-37 0 -60.5 -29t-23.5 -73zM410 92q-24 25 -54.5 64t-59.5 79.5t-54.5 77t-38.5 56.5q-43 -28 -65.5 -70.5t-22.5 -96.5q0 -75 42 -120t111 -45q52 0 85 17t57 38z" />
    <glyph glyph-name="grave" unicode="`" 
d="M325 535h-4l-173 93q-18 10 -25.5 25.5t-5.5 30t14 25.5t33 11t35.5 -11.5t32.5 -37.5z" />
    <glyph glyph-name="acute" unicode="&#xb4;" 
d="M175 535h4l173 93q18 10 25.5 25.5t5.5 30t-14 25.5t-33 11t-35.5 -11.5t-32.5 -37.5z" />
    <glyph glyph-name="circumflex" unicode="&#x2c6;" 
d="M95 535h-4l104 150h110l104 -150h-4l-158 73l50 35h-36z" />
    <glyph glyph-name="tilde" unicode="&#x2dc;" 
d="M427 694h4q-23 -75 -50 -109.5t-64 -34.5q-18 0 -39.5 10t-43.5 22.5t-43.5 22.5t-39.5 10t-37 -13.5t-41 -51.5h-4q23 76 50 110.5t64 34.5q19 0 41 -10t44 -22.5t43 -22.5t38 -10q18 0 37 13.5t41 50.5z" />
    <glyph glyph-name="macron" unicode="&#xaf;" 
d="M97 650h306v-60h-306v60z" />
    <glyph glyph-name="breve" unicode="&#x2d8;" 
d="M119 700q11 -30 44.5 -51.5t86.5 -21.5t86.5 21.5t44.5 51.5h4q3 -72 -37.5 -113.5t-97.5 -41.5t-97.5 41.5t-37.5 113.5h4z" />
    <glyph glyph-name="dotaccent" unicode="&#x2d9;" 
d="M201 575v99h98v-99h-98z" />
    <glyph glyph-name="dieresis" unicode="&#xa8;" 
d="M104 575v99h98v-99h-98zM298 575v99h98v-99h-98z" />
    <glyph glyph-name="ring" unicode="&#x2da;" 
d="M250 710q41 0 70 -26.5t29 -68.5q0 -38 -28.5 -65t-70.5 -27t-70.5 27t-28.5 65q0 42 29 68.5t70 26.5zM250 558q28 0 43.5 17.5t15.5 39.5q0 25 -15.5 42t-43.5 17t-43.5 -17t-15.5 -42q0 -22 15.5 -39.5t43.5 -17.5z" />
    <glyph glyph-name="hungarumlaut" unicode="&#x2dd;" 
d="M189 670q16 26 31 38t35 12q18 0 29 -8.5t13 -21t-4.5 -27t-24.5 -26.5l-154 -102h-4zM349 670q16 26 31 38t35 12q18 0 29 -8.5t13 -21t-4.5 -27t-24.5 -26.5l-154 -102h-4z" />
    <glyph glyph-name="caron" unicode="&#x2c7;" 
d="M405 695h4l-104 -150h-110l-104 150h4l158 -73l-50 -35h36z" />
    <glyph glyph-name="caronSlovak" unicode="&#xe413;" 
d="M200 496l-3 6q37 16 58.5 48.5t21.5 72.5v19h-18v-40q-1 -1 -6.5 -2.5t-11.5 -1.5q-22 0 -38 16t-16 38q0 25 18 41.5t46 16.5q31 0 50 -20.5t19 -55.5q0 -46 -32 -84t-88 -54z" />
    <glyph glyph-name="commaaccent" unicode="&#x326;" 
d="M197 -260l-3 6q37 16 58.5 48.5t21.5 72.5v19h-18v-40q-1 -1 -6.5 -2.5t-11.5 -1.5q-22 0 -38 16t-16 38q0 25 18 41.5t46 16.5q31 0 50 -20.5t19 -55.5q0 -46 -32 -84t-88 -54z" />
    <glyph glyph-name="cedilla" unicode="&#xb8;" 
d="M204 -189v4q46 -3 69.5 7.5t23.5 29.5q0 10 -6.5 19.5t-22.5 19.5l-48 29l60 98h33l-48 -83l19 -11l17 29l7 -4q43 -24 53.5 -44t10.5 -36q0 -31 -29.5 -52.5t-74.5 -21.5q-19 0 -36 4.5t-28 11.5z" />
    <glyph glyph-name="ogonek" unicode="&#x2db;" 
d="M320 -151l3 -3q-13 -28 -37.5 -42.5t-53.5 -14.5q-38 0 -59 20.5t-21 51.5q0 38 36 77.5t101 63.5l11 4l20 -6l-12 -6q-51 -25 -72.5 -57.5t-21.5 -57.5q0 -22 14.5 -35t39.5 -13q16 0 27.5 5t24.5 13z" />
    <glyph glyph-name="period" unicode="." horiz-adv-x="240" 
d="M64 113h112v-113h-112v113z" />
    <glyph glyph-name="comma" unicode="," horiz-adv-x="238" 
d="M41 -141l-4 6q48 22 76 61.5t28 81.5v19h-16v-24q-1 -1 -7 -2.5t-12 -1.5q-22 0 -37.5 16.5t-15.5 39.5q0 25 17.5 42.5t43.5 17.5q31 0 49.5 -23.5t18.5 -60.5q0 -56 -39 -103t-102 -69z" />
    <glyph glyph-name="colon" unicode=":" horiz-adv-x="240" 
d="M64 480h112v-113h-112v113zM64 113h112v-113h-112v113z" />
    <glyph glyph-name="semicolon" unicode=";" horiz-adv-x="240" 
d="M64 480h112v-113h-112v113zM41 -141l-4 6q48 22 76 61.5t28 81.5v19h-16v-24q-1 -1 -7 -2.5t-12 -1.5q-22 0 -37.5 16.5t-15.5 39.5q0 25 17.5 42.5t43.5 17.5q31 0 49.5 -23.5t18.5 -60.5q0 -56 -39 -103t-102 -69z" />
    <glyph glyph-name="ellipsis" unicode="&#x2026;" horiz-adv-x="720" 
d="M64 113h112v-113h-112v113zM304 113h112v-113h-112v113zM544 113h112v-113h-112v113z" />
    <glyph glyph-name="exclam" unicode="!" horiz-adv-x="240" 
d="M67 641q-4 33 13.5 52t39.5 19t39.5 -19t13.5 -52l-52 -454h-2zM64 113h112v-113h-112v113z" />
    <glyph glyph-name="exclamdown" unicode="&#xa1;" horiz-adv-x="240" 
d="M176 587h-112v113h112v-113zM173 59q4 -33 -13.5 -52t-39.5 -19t-39.5 19t-13.5 52l52 454h2z" />
    <glyph glyph-name="question" unicode="?" horiz-adv-x="430" 
d="M232 207q-28 1 -47 18.5t-19 48.5q0 25 11.5 46.5t36.5 43.5l53 46q33 28 49.5 62.5t16.5 74.5q0 54 -37 89.5t-94 35.5q-49 0 -78.5 -22t-30.5 -59h20q6 -31 -7 -51.5t-38 -20.5q-20 0 -34.5 16t-14.5 38q0 28 15.5 53t41 43.5t60 29.5t72.5 11q47 0 87 -12.5t69 -35
t45.5 -53t16.5 -66.5q0 -49 -26 -90.5t-83 -83.5l-70 -51q-18 -13 -27.5 -31.5t-9.5 -36.5q0 -13 5.5 -24.5t16.5 -18.5zM149 113h112v-113h-112v113z" />
    <glyph glyph-name="questiondown" unicode="&#xbf;" horiz-adv-x="430" 
d="M296 587h-112v113h112v-113zM213 493q28 -1 47 -18.5t19 -48.5q0 -25 -11.5 -46.5t-36.5 -43.5l-53 -46q-33 -28 -49.5 -62.5t-16.5 -74.5q0 -54 37 -89.5t94 -35.5q49 0 78.5 22t30.5 59h-20q-6 31 7 51.5t38 20.5q20 0 34.5 -16t14.5 -38q0 -28 -15.5 -53t-41 -43.5
t-60 -29.5t-72.5 -11q-47 0 -87 12.5t-69 35t-45.5 53t-16.5 66.5q0 49 26 90.5t83 83.5l70 51q18 13 27.5 31.5t9.5 36.5q0 13 -5.5 24.5t-16.5 18.5z" />
    <glyph glyph-name="quoteleft" unicode="&#x2018;" horiz-adv-x="238" 
d="M197 707l4 -6q-48 -22 -76 -61.5t-28 -81.5v-19h16v24q1 1 7 2.5t12 1.5q22 0 37.5 -16.5t15.5 -39.5q0 -25 -17.5 -42.5t-43.5 -17.5q-31 0 -49.5 23.5t-18.5 60.5q0 56 39 103t102 69z" />
    <glyph glyph-name="quoteright" unicode="&#x2019;" horiz-adv-x="238" 
d="M41 455l-4 6q48 22 76 61.5t28 81.5v19h-16v-24q-1 -1 -7 -2.5t-12 -1.5q-22 0 -37.5 16.5t-15.5 39.5q0 25 17.5 42.5t43.5 17.5q31 0 49.5 -23.5t18.5 -60.5q0 -56 -39 -103t-102 -69z" />
    <glyph glyph-name="quotedblleft" unicode="&#x201c;" horiz-adv-x="396" 
d="M197 707l4 -6q-48 -22 -76 -61.5t-28 -81.5v-19h16v24q1 1 7 2.5t12 1.5q22 0 37.5 -16.5t15.5 -39.5q0 -25 -17.5 -42.5t-43.5 -17.5q-31 0 -49.5 23.5t-18.5 60.5q0 56 39 103t102 69zM355 707l4 -6q-48 -22 -76 -61.5t-28 -81.5v-19h16v24q1 1 7 2.5t12 1.5
q22 0 37.5 -16.5t15.5 -39.5q0 -25 -17.5 -42.5t-43.5 -17.5q-31 0 -49.5 23.5t-18.5 60.5q0 56 39 103t102 69z" />
    <glyph glyph-name="quotedblright" unicode="&#x201d;" horiz-adv-x="396" 
d="M199 455l-4 6q48 22 76 61.5t28 81.5v19h-16v-24q-1 -1 -7 -2.5t-12 -1.5q-22 0 -37.5 16.5t-15.5 39.5q0 25 17.5 42.5t43.5 17.5q31 0 49.5 -23.5t18.5 -60.5q0 -56 -39 -103t-102 -69zM41 455l-4 6q48 22 76 61.5t28 81.5v19h-16v-24q-1 -1 -7 -2.5t-12 -1.5
q-22 0 -37.5 16.5t-15.5 39.5q0 25 17.5 42.5t43.5 17.5q31 0 49.5 -23.5t18.5 -60.5q0 -56 -39 -103t-102 -69z" />
    <glyph glyph-name="quotesinglbase" unicode="&#x201a;" horiz-adv-x="238" 
d="M41 -141l-4 6q48 22 76 61.5t28 81.5v19h-16v-24q-1 -1 -7 -2.5t-12 -1.5q-22 0 -37.5 16.5t-15.5 39.5q0 25 17.5 42.5t43.5 17.5q31 0 49.5 -23.5t18.5 -60.5q0 -56 -39 -103t-102 -69z" />
    <glyph glyph-name="quotedblbase" unicode="&#x201e;" horiz-adv-x="396" 
d="M199 -141l-4 6q48 22 76 61.5t28 81.5v19h-16v-24q-1 -1 -7 -2.5t-12 -1.5q-22 0 -37.5 16.5t-15.5 39.5q0 25 17.5 42.5t43.5 17.5q31 0 49.5 -23.5t18.5 -60.5q0 -56 -39 -103t-102 -69zM41 -141l-4 6q48 22 76 61.5t28 81.5v19h-16v-24q-1 -1 -7 -2.5t-12 -1.5
q-22 0 -37.5 16.5t-15.5 39.5q0 25 17.5 42.5t43.5 17.5q31 0 49.5 -23.5t18.5 -60.5q0 -56 -39 -103t-102 -69z" />
    <glyph glyph-name="reversequoteleft" unicode="&#x201b;" horiz-adv-x="238" 
d="M197 451q-63 22 -102 69t-39 103q0 37 18.5 60.5t49.5 23.5q26 0 43.5 -17.5t17.5 -42.5q0 -23 -15.5 -39.5t-37.5 -16.5q-6 0 -12 1.5t-7 2.5v24h-16v-19q0 -42 28 -81.5t76 -61.5z" />
    <glyph glyph-name="reversequotedblleft" unicode="&#x201f;" horiz-adv-x="396" 
d="M197 451q-63 22 -102 69t-39 103q0 37 18.5 60.5t49.5 23.5q26 0 43.5 -17.5t17.5 -42.5q0 -23 -15.5 -39.5t-37.5 -16.5q-6 0 -12 1.5t-7 2.5v24h-16v-19q0 -42 28 -81.5t76 -61.5zM355 451q-63 22 -102 69t-39 103q0 37 18.5 60.5t49.5 23.5q26 0 43.5 -17.5
t17.5 -42.5q0 -23 -15.5 -39.5t-37.5 -16.5q-6 0 -12 1.5t-7 2.5v24h-16v-19q0 -42 28 -81.5t76 -61.5z" />
    <glyph glyph-name="guilsinglleft" unicode="&#x2039;" horiz-adv-x="380" 
d="M306 -4v-6l-246 245l246 245v-6l-132 -239z" />
    <glyph glyph-name="guilsinglright" unicode="&#x203a;" horiz-adv-x="380" 
d="M74 474v6l246 -245l-246 -245v6l132 239z" />
    <glyph glyph-name="guillemotleft" unicode="&#xab;" horiz-adv-x="580" 
d="M306 -4v-6l-246 245l246 245v-6l-132 -239zM506 -4v-6l-246 245l246 245v-6l-132 -239z" />
    <glyph glyph-name="guillemotright" unicode="&#xbb;" horiz-adv-x="580" 
d="M274 474v6l246 -245l-246 -245v6l132 239zM74 474v6l246 -245l-246 -245v6l132 239z" />
    <glyph glyph-name="slash" unicode="/" horiz-adv-x="370" 
d="M353 700l-399 -931h-36l399 931h36z" />
    <glyph glyph-name="backslash" unicode="\" horiz-adv-x="370" 
d="M17 700h36l399 -931h-36z" />
    <glyph glyph-name="bar" unicode="|" horiz-adv-x="370" 
d="M208 700v-931h-46v931h46z" />
    <glyph glyph-name="bullet" unicode="&#x2022;" horiz-adv-x="279" 
d="M64 426h151v-152h-151v152z" />
    <glyph glyph-name="enspace" unicode="&#x2002;" horiz-adv-x="518" 
 />
    <glyph glyph-name="emspace" unicode="&#x2003;" horiz-adv-x="668" 
 />
    <glyph glyph-name="thinspace" unicode="&#x2009;" horiz-adv-x="175" 
 />
    <glyph glyph-name="hairspace" unicode="&#x200a;" horiz-adv-x="150" 
 />
    <glyph glyph-name="zerowidthspace" unicode="&#x200b;" horiz-adv-x="0" 
 />
    <glyph glyph-name="periodcentered" unicode="&#xb7;" horiz-adv-x="240" 
d="M64 407h112v-113h-112v113z" />
    <glyph glyph-name="hyphen" unicode="-" horiz-adv-x="418" 
d="M35 335h348v-40h-348v40z" />
    <glyph glyph-name="endash" unicode="&#x2013;" horiz-adv-x="518" 
d="M35 335h448v-40h-448v40z" />
    <glyph glyph-name="emdash" unicode="&#x2014;" horiz-adv-x="668" 
d="M35 335h598v-40h-598v40z" />
    <glyph glyph-name="parenleft" unicode="(" horiz-adv-x="416" 
d="M62 259q0 92 26 173.5t71.5 145t108.5 107t137 59.5v-2q-113 -66 -173.5 -190.5t-60.5 -292.5t60.5 -292.5t173.5 -190.5v-2q-74 16 -137 59.5t-108.5 107t-71.5 145t-26 173.5z" />
    <glyph glyph-name="parenright" unicode=")" horiz-adv-x="416" 
d="M354 259q0 -92 -26 -173.5t-71.5 -145t-108.5 -107t-137 -59.5v2q113 66 173.5 190.5t60.5 292.5t-60.5 292.5t-173.5 190.5v2q74 -16 137 -59.5t108.5 -107t71.5 -145t26 -173.5z" />
    <glyph glyph-name="bracketleft" unicode="[" horiz-adv-x="363" 
d="M175 -157h-32v-18h190v-35h-258v945h258v-35h-190v-18h32v-839z" />
    <glyph glyph-name="bracketright" unicode="]" horiz-adv-x="363" 
d="M188 682h32v18h-190v35h258v-945h-258v35h190v18h-32v839z" />
    <glyph glyph-name="braceleft" unicode="{" horiz-adv-x="383" 
d="M30 273q107 21 130.5 68t-6.5 122l-8 20q-51 127 6.5 197t202.5 70l3 -23q-98 -4 -124 -52.5t14 -149.5l10 -25q18 -45 13.5 -87t-32.5 -75t-80.5 -54t-128.5 -23v12zM140 256q94 -29 119 -91.5t-4 -137.5l-7 -18q-40 -101 -14 -149.5t124 -52.5l-3 -23q-145 0 -202.5 70
t-6.5 197l8 20q24 60 14.5 103.5t-81.5 73.5z" />
    <glyph glyph-name="braceright" unicode="}" horiz-adv-x="383" 
d="M353 261q-107 -21 -130.5 -68t6.5 -122l8 -20q51 -127 -6.5 -197t-202.5 -70l-3 23q98 4 124 52.5t-14 149.5l-10 25q-18 45 -13.5 87t32.5 75t80.5 54t128.5 23v-12zM243 278q-94 29 -119 91.5t4 137.5l7 18q40 101 14 149.5t-124 52.5l3 23q145 0 202.5 -70t6.5 -197
l-8 -20q-24 -60 -14.5 -103.5t81.5 -73.5z" />
    <glyph glyph-name="asterisk" unicode="*" horiz-adv-x="418" 
d="M229 536h-40v163h40v-163zM249 501l-20 35l141 81l20 -34zM189 536l-20 -35l-141 82l20 34zM229 466l20 35l141 -82l-20 -34zM169 501l20 -35l-141 -81l-20 34zM189 466h40v-163h-40v163z" />
    <glyph glyph-name="dagger" unicode="&#x2020;" horiz-adv-x="570" 
d="M337 320q-17 -97 -29.5 -236t-19.5 -315h-6q-7 176 -19.5 315t-29.5 236q16 35 27.5 78t11.5 76v26q0 55 -12 95t-12 63q0 21 10.5 31.5t26.5 10.5t26.5 -10.5t10.5 -31.5q0 -23 -12 -63t-12 -95v-26q0 -33 11.5 -76t27.5 -78zM252 497q1 -4 1 -10t-1 -10
q-48 -4 -83 -15.5t-55 -11.5q-21 0 -31.5 10.5t-10.5 26.5t10.5 26.5t31.5 10.5q20 0 55 -11.5t83 -15.5zM318 497q48 4 83 15.5t55 11.5q21 0 31.5 -10.5t10.5 -26.5t-10.5 -26.5t-31.5 -10.5q-20 0 -55 11.5t-83 15.5q-1 4 -1 10t1 10z" />
    <glyph glyph-name="daggerdbl" unicode="&#x2021;" horiz-adv-x="570" 
d="M298 236v-3q0 -41 13.5 -74t35.5 -55q-20 -19 -34.5 -48.5t-14.5 -60.5v-26q0 -55 12 -95t12 -63q0 -21 -10.5 -31.5t-26.5 -10.5t-26.5 10.5t-10.5 31.5q0 23 12 63t12 95v26q0 31 -14.5 60.5t-34.5 48.5q22 22 35.5 55t13.5 74v3q0 41 -13.5 74t-35.5 55
q20 19 34.5 48.5t14.5 60.5v26q0 55 -12 95t-12 63q0 21 10.5 31.5t26.5 10.5t26.5 -10.5t10.5 -31.5q0 -23 -12 -63t-12 -95v-26q0 -31 14.5 -60.5t34.5 -48.5q-22 -22 -35.5 -55t-13.5 -74zM252 497q1 -4 1 -10t-1 -10q-48 -4 -83 -15.5t-55 -11.5q-21 0 -31.5 10.5
t-10.5 26.5t10.5 26.5t31.5 10.5q20 0 55 -11.5t83 -15.5zM318 497q48 4 83 15.5t55 11.5q21 0 31.5 -10.5t10.5 -26.5t-10.5 -26.5t-31.5 -10.5q-20 0 -55 11.5t-83 15.5q-1 4 -1 10t1 10zM318 -28q-1 4 -1 10t1 10q48 4 83 15.5t55 11.5q21 0 31.5 -10.5t10.5 -26.5
t-10.5 -26.5t-31.5 -10.5q-20 0 -55 11.5t-83 15.5zM252 -28q-48 -4 -83 -15.5t-55 -11.5q-21 0 -31.5 10.5t-10.5 26.5t10.5 26.5t31.5 10.5q20 0 55 -11.5t83 -15.5q1 -4 1 -10t-1 -10z" />
    <glyph glyph-name="section" unicode="&#xa7;" horiz-adv-x="499" 
d="M462 311q0 -51 -35 -87.5t-91 -49.5l13 -14l35 10q22 -18 33 -38.5t11 -48.5q0 -69 -51.5 -113.5t-125.5 -44.5q-72 0 -121.5 34t-49.5 85q0 22 15 37.5t36 15.5q29 0 42.5 -19.5t6.5 -54.5h-21q3 -25 29.5 -40.5t62.5 -15.5q43 0 72 23t29 58q0 24 -15 40.5t-42 29.5
l-166 82q-46 22 -69.5 53.5t-23.5 74.5q0 50 35 87.5t92 49.5l-13 14l-35 -10q-19 16 -30 38.5t-11 50.5q0 66 49.5 109.5t126.5 43.5q68 0 115 -32.5t47 -82.5q0 -22 -15 -37.5t-36 -15.5q-30 0 -43 19.5t-6 54.5h21q-3 24 -27.5 38t-58.5 14q-43 0 -70 -23t-27 -58
q0 -23 15 -40t42 -30l162 -79q46 -22 69.5 -53.5t23.5 -74.5zM181 280l142 -70q28 8 44.5 27.5t16.5 46.5q0 25 -16 41.5t-51 33.5l-143 70q-28 -8 -44 -27t-16 -47q0 -25 15.5 -41t51.5 -34z" />
    <glyph glyph-name="paragraph" unicode="&#xb6;" horiz-adv-x="617" 
d="M432 659h-122v-35h43v-874h-61v473q-63 0 -113.5 18t-85.5 50t-54 77t-19 99q0 104 72.5 168.5t200.5 64.5h294v-29l-23 -2q-35 -3 -53 -21.5t-18 -52.5v-845h-61v909z" />
    <glyph glyph-name="asciicircum" unicode="^" horiz-adv-x="570" 
d="M267 700h36l228 -346h-51l-195 292l-195 -292h-51z" />
    <glyph glyph-name="asciitilde" unicode="~" horiz-adv-x="550" 
d="M516 389h4q-22 -73 -51 -108.5t-73 -35.5q-31 0 -67 10t-71.5 22.5t-69.5 22.5t-62 10q-25 0 -46 -13.5t-46 -51.5h-4q22 74 51 109.5t73 35.5q34 0 71 -10t72.5 -22.5t68 -22.5t58.5 -10q25 0 46 13.5t46 50.5z" />
    <glyph glyph-name="underscore" unicode="_" horiz-adv-x="446" 
d="M-1 -115h448v-40h-448v40z" />
    <glyph glyph-name="quotesingle" unicode="'" horiz-adv-x="240" 
d="M69 621q-10 36 5.5 63t46.5 27q30 0 45 -27.5t5 -62.5l-51 -169z" />
    <glyph glyph-name="quotedbl" unicode="&#x22;" horiz-adv-x="400" 
d="M69 621q-10 36 5.5 63t46.5 27q30 0 45 -27.5t5 -62.5l-51 -169zM229 621q-10 36 5.5 63t46.5 27q30 0 45 -27.5t5 -62.5l-51 -169z" />
    <glyph glyph-name="at" unicode="@" horiz-adv-x="764" 
d="M491 165q-15 -39 -6 -58t43 -19q36 0 67.5 17.5t54 48t35.5 72t13 88.5q0 53 -20 97.5t-55.5 77t-84 50.5t-104.5 18q-68 0 -132 -27t-112.5 -75t-77.5 -115t-29 -146q0 -63 22 -117t61 -92t94.5 -59.5t121.5 -21.5q51 0 102 12.5t104 38.5l1 -2q-53 -43 -110 -60.5
t-117 -17.5q-68 0 -126.5 24t-100.5 66.5t-66 101.5t-24 128q0 83 32 155.5t85.5 125t124.5 83t148 30.5q64 0 119 -20.5t95 -57t62.5 -87.5t22.5 -112q0 -55 -17.5 -103t-48 -83t-72.5 -55t-91 -20q-40 0 -67 15.5t-27 50.5l19 28l14 48q-47 -75 -87.5 -108.5t-80.5 -33.5
q-38 1 -60 28.5t-22 74.5q0 16 3 35.5t9 40.5q12 41 35 75.5t53 59t66 38.5t73 14q21 0 40.5 -6.5t33.5 -17.5l84 26zM278 152q0 -25 9 -38.5t26 -13.5q21 0 50 29.5t68 88.5l58 139q-10 15 -24 22.5t-31 7.5q-43 0 -80 -40t-60 -109q-7 -23 -11.5 -45t-4.5 -41z" />
    <glyph glyph-name="copyright" unicode="&#xa9;" horiz-adv-x="792" 
d="M396 -11q-74 0 -140 28.5t-115 77.5t-77.5 115t-28.5 140t28.5 140t77.5 115t115 77.5t140 28.5t140 -28.5t115 -77.5t77.5 -115t28.5 -140t-28.5 -140t-77.5 -115t-115 -77.5t-140 -28.5zM396 22q68 0 128 26t104 70t70 104t26 128q0 67 -26 127t-70.5 104.5
t-104.5 70.5t-127 26t-127 -26t-104.5 -70.5t-70.5 -104.5t-26 -127q0 -68 26 -128t70 -104t104 -70t128 -26zM405 517q-48 0 -75.5 -40t-27.5 -110q0 -69 34.5 -115.5t85.5 -46.5q40 0 67 15.5t52 52.5l2 -1q-13 -56 -52 -90.5t-90 -34.5q-81 0 -133.5 55t-52.5 142
q0 44 15 82.5t41 66.5t61.5 44.5t75.5 16.5q57 0 99 -30.5t42 -72.5q0 -19 -12.5 -32t-31.5 -13q-22 0 -34.5 16.5t-8.5 47.5h17q-1 22 -21.5 34.5t-52.5 12.5z" />
    <glyph glyph-name="registered" unicode="&#xae;" horiz-adv-x="553" 
d="M277 281q-46 0 -87.5 17.5t-71.5 48t-48 71.5t-18 87t18 87t48 71.5t71.5 48.5t87.5 18t87 -18t71.5 -48.5t48 -71.5t17.5 -87t-17.5 -87t-48 -71.5t-71.5 -48t-87 -17.5zM277 308q41 0 77 15.5t62.5 42t42 62.5t15.5 77t-15.5 77t-42 62.5t-62.5 42t-77 15.5t-77 -15.5
t-63 -42t-42.5 -62.5t-15.5 -77t15.5 -77t42.5 -62.5t63 -42t77 -15.5zM269 499h-49v-17h23v-57q0 -13 7 -20.5t20 -7.5h9v-19h-120v19h8q13 0 20 7.5t7 20.5v167q0 12 -7 20t-20 8h-8v20h133q39 0 63.5 -19t24.5 -47q0 -23 -18 -42.5t-41 -21.5q13 -5 21.5 -14t14.5 -22
l23 -51q6 -13 12.5 -17.5t18.5 -8.5l6 -2v-17h-75l-36 98q-4 13 -13.5 18t-23.5 5zM220 602h23v-83h32q24 0 38.5 14.5t14.5 36.5t-14 35.5t-39 13.5h-55v-17z" />
    <glyph glyph-name="trademark" unicode="&#x2122;" horiz-adv-x="852" 
d="M15 700h327l6 -122h-21l-8 30q-9 33 -28 47.5t-50 14.5h-47v-23h18v-252q0 -18 10 -29t28 -11h12v-25h-165v25h11q19 0 28.5 11t9.5 29v275h-28q-32 0 -50 -15t-28 -47l-9 -30h-22zM597 452l-12 -30l11 -25l120 303h125v-25h-11q-19 0 -29 -10.5t-10 -28.5v-241
q0 -18 10 -29t29 -11h11v-25h-164v25h12q19 0 27.5 11t8.5 29v214l13 38h-15l-137 -332h-1l-139 339v-254q0 -19 9.5 -31t28.5 -13l12 -1v-25h-127v25l12 1q19 1 28 13t9 31v230q0 20 -9 31.5t-28 12.5l-12 1v25h127z" />
    <glyph glyph-name="Euro" unicode="&#x20ac;" horiz-adv-x="639" 
d="M203 354v-16t1 -15h274l-29 -42h-241q7 -52 24.5 -95.5t42.5 -75t57 -49t68 -17.5q60 0 107.5 36t98.5 123l4 -2q-31 -100 -90 -155.5t-134 -55.5q-53 0 -100 19.5t-83.5 54t-62 83.5t-36.5 108h43q-2 7 -3.5 14.5t-2.5 11.5h-121v42h76v33h-76v42h79q7 69 30.5 126.5
t60 98.5t84.5 64t104 23q57 0 102 -30.5t78 -86.5v36q-3 4 -15.5 18t-16.5 17l77 43v-245h-34l-8 21q-37 99 -83.5 139.5t-96.5 40.5q-32 0 -62 -15t-54 -46.5t-40.5 -82t-20.5 -121.5h325l-29 -42h-297v-2z" />
    <glyph glyph-name="dollar" unicode="$" horiz-adv-x="495" 
d="M225 -68v76q-40 1 -75.5 12t-61.5 29t-41 41.5t-15 49.5q0 23 15.5 39.5t37.5 16.5q30 0 45.5 -22t11.5 -58h-22q1 -28 28.5 -45.5t76.5 -19.5v245l36 -17v-227q51 6 81.5 38.5t30.5 81.5q0 37 -20.5 65.5t-60.5 47.5l-146 68q-56 26 -85 65t-29 93q0 78 54 127.5
t141 53.5v58h36v-59q71 -6 119.5 -42t48.5 -84q0 -23 -15 -39.5t-37 -16.5q-30 0 -46 22.5t-11 56.5h22q-1 25 -22.5 40t-58.5 19v-217l-36 15v204q-51 -2 -82 -31.5t-31 -75.5q0 -33 21 -59t64 -45l146 -68q55 -26 84.5 -66.5t29.5 -95.5q0 -83 -54.5 -137.5t-143.5 -61.5
v-77h-36z" />
    <glyph glyph-name="cent" unicode="&#xa2;" horiz-adv-x="442" 
d="M139 -100h-38l38 119q-50 29 -79.5 84t-29.5 125q0 53 18 99.5t48.5 80.5t72.5 53.5t90 19.5q7 0 13.5 -0.5t12.5 -1.5l26 81h36l-28 -87q46 -13 75 -43t29 -67q0 -22 -14.5 -37t-35.5 -15q-30 0 -43.5 20t-7.5 54h21q-1 15 -11 26.5t-26 18.5zM128 255q0 -43 11 -80
t30 -64l104 328q-4 1 -9 1h-9q-59 0 -93 -49t-34 -136zM191 -2l23 70q16 -8 31.5 -11.5t31.5 -3.5q44 0 78 18.5t62 63.5l2 -1q-16 -65 -62.5 -104.5t-106.5 -39.5q-13 0 -29.5 2t-29.5 6z" />
    <glyph glyph-name="sterling" unicode="&#xa3;" horiz-adv-x="540" 
d="M173 318h39l-9 26h-155v42h104l-13 39q-20 63 -14.5 114.5t32 88.5t71.5 57t103 20q71 0 119.5 -35t48.5 -86q0 -26 -15 -43.5t-37 -17.5q-30 0 -46 22.5t-11 56.5h28q0 28 -25 47t-62 19q-69 0 -95.5 -53.5t-2.5 -140.5l24 -88h157v-42h-146l9 -33q16 -57 9.5 -115.5
t-32.5 -106.5l22 -12q4 6 7.5 13t5.5 13q27 -9 54 -15.5t52 -6.5q40 0 70 22t46 62l6 -1q-13 -84 -51 -129.5t-95 -45.5q-37 0 -72 20t-69 43q-23 -28 -54.5 -45.5t-66.5 -17.5q-37 0 -60.5 21t-23.5 55q0 35 27 57.5t70 22.5q22 0 44 -4.5t45 -11.5q2 24 -1 52t-12 58z
M58 67q0 -20 14.5 -32t38.5 -12q28 0 50 14t35 39q-22 14 -44 25t-43 11q-22 0 -36.5 -13t-14.5 -32z" />
    <glyph glyph-name="yen" unicode="&#xa5;" horiz-adv-x="716" 
d="M511 29v-29h-291v29l23 2q35 3 53 21.5t18 52.5v47h40v26h-207v42h167v26h-167v42h166l-218 325q-18 27 -35.5 41.5t-38.5 18.5v27h251v-29l-25 -3q-30 -4 -37.5 -26.5t13.5 -53.5l164 -248l149 226q31 46 19 72.5t-52 30.5l-17 2v29h209v-27q-22 -6 -42.5 -23.5
t-42.5 -50.5l-193 -288v-23h167v-42h-167v-26h167v-42h-167v-73q0 -34 18 -52.5t53 -21.5z" />
    <glyph glyph-name="numbersign" unicode="#" horiz-adv-x="744" 
d="M22 217l9 31h190l58 205h-190l9 31h190l62 217h35l-62 -217h174l62 217h35l-62 -217h190l-9 -31h-190l-58 -205h190l-9 -31h-190l-62 -217h-35l62 217h-174l-62 -217h-35l62 217h-190zM256 248h174l58 205h-174z" />
    <glyph glyph-name="zero" unicode="0" horiz-adv-x="593" 
d="M291 711q54 0 100.5 -26.5t80.5 -73.5t53 -113.5t19 -144.5t-19 -145t-51.5 -115.5t-77 -76t-94.5 -27.5q-54 0 -100.5 26.5t-80.5 73.5t-53 113.5t-19 144.5q0 79 19 146t51 115t76.5 75.5t95.5 27.5zM290 669q-65 0 -103 -82t-38 -222q0 -76 11 -138t30.5 -105.5
t48 -67t62.5 -23.5q66 0 104.5 82t38.5 222q0 76 -11 138t-31 105.5t-48.5 67t-63.5 23.5z" />
    <glyph glyph-name="one" unicode="1" horiz-adv-x="370" 
d="M231 710v-615q0 -31 20 -47t60 -20l21 -2v-26h-293v26l20 2q40 4 60 20t20 47v494q0 23 -11 35t-47 27l-40 17z" />
    <glyph glyph-name="two" unicode="2" horiz-adv-x="504" 
d="M97 47h23l21 24h152q56 0 87.5 16.5t44.5 46.5l18 40h32l-31 -174h-429l241 317q49 63 69.5 110.5t20.5 95.5q0 67 -32.5 106.5t-88.5 39.5q-54 0 -84 -29.5t-31 -79.5h21q4 -31 -10 -51.5t-40 -20.5q-22 0 -37 16.5t-15 40.5q0 32 15.5 62t42.5 53t65.5 36.5t83.5 13.5
q107 0 160.5 -48t53.5 -123q0 -41 -25 -91t-85 -119z" />
    <glyph glyph-name="three" unicode="3" horiz-adv-x="520" 
d="M479 218q0 -50 -18 -92t-49.5 -72.5t-75 -47.5t-93.5 -17q-44 0 -82 12t-65.5 32.5t-43.5 49t-16 60.5q0 22 15 38t37 16q28 0 43 -22.5t9 -54.5h-20q1 -42 31 -66t81 -24q66 0 106.5 46.5t40.5 123.5q0 63 -39 108.5t-129 45.5q-15 0 -31.5 -1.5t-35.5 -5.5l244 307h-23
l-20 -25h-163q-37 0 -59.5 -13.5t-35.5 -50.5l-10 -28h-32l28 163h409l-223 -281q49 2 89.5 -12.5t69.5 -41.5t45 -65t16 -82z" />
    <glyph glyph-name="four" unicode="4" horiz-adv-x="601" 
d="M25 214q57 68 107 133t96 131q52 74 69.5 124.5t15.5 95.5l116 21q1 -16 -2.5 -35t-16 -45t-37 -61.5t-64.5 -82.5q-44 -52 -91 -106.5t-95 -108.5h232v136l91 53v-186q33 6 55.5 24t33.5 47l12 31h32l-26 -171h-140v-18h33v-101q0 -31 11 -47.5t45 -19.5l21 -2v-26h-245
v26l21 2q33 3 44.5 19.5t11.5 47.5v119h-330z" />
    <glyph glyph-name="five" unicode="5" horiz-adv-x="521" 
d="M174 624l2 30h-18l-21 -232q24 10 51 15t63 5q51 0 94.5 -15.5t74.5 -43.5t48.5 -68.5t17.5 -90.5q0 -51 -18.5 -94t-50.5 -74t-77.5 -48.5t-98.5 -17.5q-40 0 -75.5 11.5t-62 31.5t-42 47.5t-15.5 59.5q0 24 15 41t37 17q21 0 39 -17t12 -60h-21q2 -43 33 -66.5
t82 -23.5q69 0 107 48.5t38 124.5t-45.5 118t-112.5 42q-40 0 -75.5 -9.5t-70.5 -27.5l35 373h229q30 0 49 8.5t26 27.5l6 16h27l-19 -128h-263z" />
    <glyph glyph-name="six" unicode="6" horiz-adv-x="566" 
d="M522 227q0 -49 -17.5 -92.5t-48 -75.5t-70.5 -50.5t-85 -18.5q-54 0 -100 25.5t-79.5 70.5t-53.5 107t-21 135q0 83 20 153.5t55.5 121t85.5 79.5t109 29q37 0 70.5 -12.5t59 -33.5t40 -49.5t14.5 -59.5q0 -23 -14.5 -38.5t-36.5 -15.5q-27 0 -43.5 21.5t-9.5 55.5h21
q-1 42 -29 66.5t-75 24.5q-70 0 -113.5 -77t-49.5 -211l-27 -28v-26q43 49 94 74t97 25q90 0 148.5 -56.5t58.5 -143.5zM292 384q-41 0 -80 -18t-61 -51q4 -131 46.5 -207t108.5 -76q54 0 86 47t32 126q0 81 -36 130t-96 49z" />
    <glyph glyph-name="seven" unicode="7" horiz-adv-x="486" 
d="M226 -6l-113 -28q-9 40 5 90t57 134q57 116 118.5 236t120.5 228h-21l-14 -25h-161q-65 0 -104 -14t-50 -48l-15 -46h-33l31 179h429q-54 -109 -104.5 -219.5t-97.5 -220.5q-41 -95 -50 -155.5t2 -110.5z" />
    <glyph glyph-name="eight" unicode="8" horiz-adv-x="543" 
d="M270 -11q-50 0 -93 14.5t-73.5 39.5t-47.5 59t-17 73q0 64 40.5 109t118.5 80l31 14l-18 10l-31 -13q-56 31 -82 72t-26 88q0 35 14 67t40.5 56t64 38t83.5 14q84 0 140 -44t56 -113q0 -56 -33.5 -96.5t-99.5 -67.5l-32 -13l19 -10l32 12q86 -41 117 -90.5t31 -101.5
q0 -38 -17 -74t-47.5 -63t-73.5 -43.5t-96 -16.5zM309 410q36 19 57 54.5t21 81.5q0 57 -34.5 93.5t-85.5 36.5q-49 0 -80 -31t-31 -80q0 -38 23 -70.5t72 -56.5zM270 31q64 0 100.5 38t36.5 92q0 43 -23.5 79t-89.5 70l-65 34q-48 -19 -74 -60t-26 -97q0 -67 39.5 -111.5
t101.5 -44.5z" />
    <glyph glyph-name="nine" unicode="9" horiz-adv-x="566" 
d="M517 373q0 -83 -20 -153.5t-55 -121t-84.5 -79.5t-107.5 -29q-37 0 -70.5 12.5t-59 33.5t-40.5 49.5t-15 59.5q0 23 15 38.5t36 15.5q28 0 44 -21.5t9 -55.5h-21q1 -42 29.5 -66.5t74.5 -24.5q69 0 112.5 77t48.5 211l28 27v27q-42 -49 -93 -74t-97 -25q-89 0 -147 56.5
t-58 143.5q0 49 17.5 92.5t47.5 75.5t70 50.5t84 18.5q54 0 100 -25.5t79 -70.5t52.5 -107t20.5 -135zM144 496q0 -81 35.5 -130t95.5 -49q40 0 78 18t60 50q-4 131 -45.5 207.5t-106.5 76.5q-54 0 -85.5 -47t-31.5 -126z" />
    <glyph glyph-name="onesuperior" unicode="&#xb9;" horiz-adv-x="214" 
d="M143 708v-328q0 -16 9 -24.5t26 -9.5l16 -1v-20h-174v20l15 1q18 1 27 9.5t9 24.5v252q0 13 -5.5 20t-22.5 15l-21 10z" />
    <glyph glyph-name="twosuperior" unicode="&#xb2;" horiz-adv-x="296" 
d="M66 361h17l17 17h88q24 0 37.5 9.5t22.5 28.5l9 21h19l-17 -112h-249l117 147q37 44 49.5 74t12.5 60q0 34 -17 54t-43 20q-27 0 -41.5 -16t-15.5 -41h13q5 -22 -4.5 -36.5t-29.5 -14.5q-15 0 -25 10.5t-10 26.5q0 36 34.5 66t89.5 30q60 0 93 -28.5t33 -66.5
q0 -22 -13.5 -49t-47.5 -61z" />
    <glyph glyph-name="threesuperior" unicode="&#xb3;" horiz-adv-x="311" 
d="M280 444q0 -50 -37 -87.5t-101 -37.5q-47 0 -81.5 24t-34.5 64q0 14 9 24t23 10q18 0 26.5 -13.5t4.5 -33.5h-13q1 -22 16 -36.5t44 -14.5q34 0 53.5 26t19.5 60q0 36 -23 57.5t-79 21.5h-10.5t-11.5 -1l132 155h-17l-14 -15h-72q-20 0 -33 -7t-20 -22l-8 -18h-18l13 100
h232l-119 -144q54 0 86.5 -34t32.5 -78z" />
    <glyph glyph-name="fraction" unicode="&#x2044;" horiz-adv-x="574" 
d="M535 700l-450 -700h-46l450 700h46z" />
    <glyph glyph-name="onehalf" unicode="&#xbd;" horiz-adv-x="632" 
d="M143 708v-328q0 -16 9 -24.5t26 -9.5l16 -1v-20h-174v20l15 1q18 1 27 9.5t9 24.5v252q0 13 -5.5 20t-22.5 15l-21 10zM535 700l-450 -700h-46l450 700h46zM402 36h17l17 17h88q24 0 37.5 9.5t22.5 28.5l9 21h19l-17 -112h-249l117 147q37 44 49.5 74t12.5 60
q0 34 -17 54t-43 20q-27 0 -41.5 -16t-15.5 -41h13q5 -22 -4.5 -36.5t-29.5 -14.5q-15 0 -25 10.5t-10 26.5q0 36 34.5 66t89.5 30q60 0 93 -28.5t33 -66.5q0 -22 -13.5 -49t-47.5 -61z" />
    <glyph glyph-name="onequarter" unicode="&#xbc;" horiz-adv-x="614" 
d="M143 708v-328q0 -16 9 -24.5t26 -9.5l16 -1v-20h-174v20l15 1q18 1 27 9.5t9 24.5v252q0 13 -5.5 20t-22.5 15l-21 10zM535 700l-450 -700h-46l450 700h46zM282 105q33 40 62 79t49 72q22 35 25.5 61t1.5 50l91 19q-1 -19 -11.5 -43.5t-44.5 -64.5q-24 -31 -50.5 -61.5
t-57.5 -63.5h114v66l67 36v-101q15 3 25.5 11.5t15.5 21.5l6 17h19l-13 -99h-74v-12h21v-38q0 -16 8 -24.5t25 -9.5l11 -1v-20h-155v20l11 1q17 1 25 9.5t8 24.5v50h-179z" />
    <glyph glyph-name="threequarters" unicode="&#xbe;" horiz-adv-x="693" 
d="M280 444q0 -50 -37 -87.5t-101 -37.5q-47 0 -81.5 24t-34.5 64q0 14 9 24t23 10q18 0 26.5 -13.5t4.5 -33.5h-13q1 -22 16 -36.5t44 -14.5q34 0 53.5 26t19.5 60q0 36 -23 57.5t-79 21.5h-10.5t-11.5 -1l132 155h-17l-14 -15h-72q-20 0 -33 -7t-20 -22l-8 -18h-18l13 100
h232l-119 -144q54 0 86.5 -34t32.5 -78zM614 700l-450 -700h-46l450 700h46zM361 105q33 40 62 79t49 72q22 35 25.5 61t1.5 50l91 19q-1 -19 -11.5 -43.5t-44.5 -64.5q-24 -31 -50.5 -61.5t-57.5 -63.5h114v66l67 36v-101q15 3 25.5 11.5t15.5 21.5l6 17h19l-13 -99h-74
v-12h21v-38q0 -16 8 -24.5t25 -9.5l11 -1v-20h-155v20l11 1q17 1 25 9.5t8 24.5v50h-179z" />
    <glyph glyph-name="uni2157" unicode="&#x2157;" horiz-adv-x="737" 
d="M280 444q0 -50 -37 -87.5t-101 -37.5q-47 0 -81.5 24t-34.5 64q0 14 9 24t23 10q18 0 26.5 -13.5t4.5 -33.5h-13q1 -22 16 -36.5t44 -14.5q34 0 53.5 26t19.5 60q0 36 -23 57.5t-79 21.5h-10.5t-11.5 -1l132 155h-17l-14 -15h-72q-20 0 -33 -7t-20 -22l-8 -18h-18l13 100
h232l-119 -144q54 0 86.5 -34t32.5 -78zM614 700l-450 -700h-46l450 700h46zM527 325l2 20h-13l-10 -110q15 6 32 8t33 2q72 1 105.5 -36t33.5 -83q0 -25 -9.5 -49t-27 -42.5t-44 -29.5t-60.5 -11q-44 0 -79 24t-35 64q0 14 9.5 24.5t22.5 10.5q17 0 26 -13t5 -35h-12
q1 -22 16 -36t43 -14q37 0 56.5 26.5t19.5 63.5q0 35 -21 58t-68 23q-17 0 -36 -3.5t-40 -10.5l18 199h131q19 0 31.5 4.5t16.5 15.5l3 11h18l-8 -81h-159z" />
    <glyph glyph-name="percent" unicode="%" horiz-adv-x="780" 
d="M183 706q62 0 105.5 -52t43.5 -139t-42.5 -141.5t-102.5 -54.5q-63 0 -106.5 52.5t-43.5 139.5t43 141t103 54zM639 700l-450 -700h-46l450 700h46zM179 680q-27 0 -46 -39.5t-19 -117.5q0 -83 20.5 -130t54.5 -47q27 0 46.5 39.5t19.5 117.5q0 83 -20.5 130t-55.5 47z
M594 381q62 0 105.5 -52t43.5 -139t-42.5 -141.5t-102.5 -54.5q-63 0 -106.5 52.5t-43.5 139.5t43 141t103 54zM590 355q-27 0 -46 -39.5t-19 -117.5q0 -83 20.5 -130t54.5 -47q27 0 46.5 39.5t19.5 117.5q0 83 -20.5 130t-55.5 47z" />
    <glyph glyph-name="plus" unicode="+" horiz-adv-x="518" 
d="M35 335h204v204h40v-204h204v-40h-204v-204h-40v204h-204v40z" />
    <glyph glyph-name="minus" unicode="&#x2212;" horiz-adv-x="518" 
d="M35 335h448v-40h-448v40z" />
    <glyph glyph-name="multiply" unicode="&#xd7;" horiz-adv-x="518" 
d="M76 161l154 154l-154 154l29 29l154 -154l154 154l29 -29l-154 -154l154 -154l-29 -29l-154 154l-154 -154z" />
    <glyph glyph-name="equal" unicode="=" horiz-adv-x="518" 
d="M35 410h448v-40h-448v40zM35 260h448v-40h-448v40z" />
    <glyph glyph-name="degree" unicode="&#xb0;" horiz-adv-x="389" 
d="M195 394q-32 0 -61.5 12t-51 33.5t-34.5 50.5t-13 62t13 62t34.5 50.5t51 33.5t61.5 12q66 0 112.5 -46t46.5 -112t-46.5 -112t-112.5 -46zM195 438q44 0 75.5 33t31.5 81t-31.5 81t-75.5 33q-45 0 -76.5 -33t-31.5 -81t31.5 -81t76.5 -33z" />
    <glyph glyph-name=".ttfautohint" horiz-adv-x="389" 
d="M0 0z" />
    </font>
</defs>
</svg>
